SplineFontDB: 3.0
FontName: KAN-KaveriItalic
FullName: KAN Kaveri Italic
FamilyName: KAN Kaveri
Weight: Book
Copyright: Copyright (c) 2009-2015, NLCI (http://www.nlci.in/fonts/)
Version: 1.0 Wed May 17 15:42:18 1995
ItalicAngle: 12
UnderlinePosition: -290
UnderlineWidth: 20
Ascent: 800
Descent: 200
InvalidEm: 0
LayerCount: 2
Layer: 0 0 "Back" 1
Layer: 1 0 "Fore" 0
XUID: [1021 297 2115494286 1251845]
FSType: 0
OS2Version: 0
OS2_WeightWidthSlopeOnly: 0
OS2_UseTypoMetrics: 1
CreationTime: 1250825687
ModificationTime: 1533087679
PfmFamily: 81
TTFWeight: 400
TTFWidth: 5
LineGap: 0
VLineGap: 0
Panose: 2 0 0 3 0 0 0 0 0 0
OS2TypoAscent: -72
OS2TypoAOffset: 1
OS2TypoDescent: -196
OS2TypoDOffset: 1
OS2TypoLinegap: 0
OS2WinAscent: -236
OS2WinAOffset: 1
OS2WinDescent: -103
OS2WinDOffset: 1
HheadAscent: -236
HheadAOffset: 1
HheadDescent: 103
HheadDOffset: 1
OS2SubXSize: 700
OS2SubYSize: 650
OS2SubXOff: 0
OS2SubYOff: 143
OS2SupXSize: 700
OS2SupYSize: 650
OS2SupXOff: 0
OS2SupYOff: 453
OS2StrikeYSize: 50
OS2StrikeYPos: 259
OS2Vendor: 'Alts'
OS2UnicodeRanges: 00000000.00000000.00000000.00000000
Lookup: 262 0 0 "blwm" { "blwm-2sub"  } []
MarkAttachClasses: 1
DEI: 91125
TtTable: prep
NPUSHB
 1
 1
SCANTYPE
PUSHW_1
 511
SCANCTRL
EndTTInstrs
ShortTable: maxp 16
  1
  0
  319
  202
  5
  175
  6
  2
  8
  64
  10
  0
  3
  557
  4
  2
EndShort
LangName: 1033 "" "" "Italic" "NLCI:KAN Kaveri Italic" "" "1.0 Wed May 17 15:42:18 1995"
Encoding: Original
Compacted: 1
UnicodeInterp: none
NameList: Adobe Glyph List
DisplaySize: -48
AntiAlias: 1
FitToEm: 1
WinInfo: 0 36 12
BeginPrivate: 0
EndPrivate
AnchorClass2: "Sub" "blwm-2sub" "Nukta"""  "s"""  "V""" 
BeginChars: 572 313

StartChar: .notdef
Encoding: 0 -1 0
Width: 500
Flags: HW
LayerCount: 2
Fore
SplineSet
31 0 m 1
 31 604 l 1
 469 604 l 1
 469 0 l 1
 31 0 l 1
438 31 m 1
 438 573 l 1
 62 573 l 1
 62 31 l 1
 438 31 l 1
EndSplineSet
EndChar

StartChar: exclam
Encoding: 4 33 4
Width: 346
VWidth: 500
Flags: HW
LayerCount: 2
Fore
SplineSet
304 647 m 0
 284.666666667 571.666666667 266.833333333 501.833333333 250.5 437.5 c 0
 243.5 410.166666667 236.5 382.75 229.5 355.25 c 0
 222.5 327.75 216 302 210 278 c 0
 204 254 198.666666667 232.75 194 214.25 c 0
 189.333333333 195.75 185.833333333 182 183.5 173 c 0
 119 173 l 0
 171 615.5 l 0
 172.666666667 628.5 175.25 640.166666667 178.75 650.5 c 0
 182.25 660.833333333 187.166666667 669.666666667 193.5 677 c 0
 199.833333333 684.333333333 207.833333333 689.916666667 217.5 693.75 c 0
 227.166666667 697.583333333 239 699.5 253 699.5 c 0
 287 699.5 304 682 304 647 c 0
200.5 50 m 0
 200.5 33.6666666667 194.416666667 19.75 182.25 8.25 c 0
 170.083333333 -3.25 153.666666667 -9 133 -9 c 0
 125.666666667 -9 118.083333333 -7.75 110.25 -5.25 c 0
 102.416666667 -2.75 95.3333333333 1 89 6 c 0
 82.6666666667 11 77.5 17.1666666667 73.5 24.5 c 0
 69.5 31.8333333333 67.5 40.3333333333 67.5 50 c 0
 67.5 59 69.1666666667 67.25 72.5 74.75 c 0
 75.8333333333 82.25 80.5 88.75 86.5 94.25 c 0
 92.5 99.75 99.5 104 107.5 107 c 0
 115.5 110 124 111.5 133 111.5 c 0
 142 111.5 150.583333333 110 158.75 107 c 0
 166.916666667 104 174.083333333 99.8333333333 180.25 94.5 c 0
 186.416666667 89.1666666667 191.333333333 82.75 195 75.25 c 0
 198.666666667 67.75 200.5 59.3333333333 200.5 50 c 0
EndSplineSet
EndChar

StartChar: quotedbl
Encoding: 5 34 5
Width: 339
VWidth: 500
Flags: HW
LayerCount: 2
Fore
SplineSet
385 692 m 0
 385 688.333333333 383.083333333 680.083333333 379.25 667.25 c 0
 375.416666667 654.416666667 370.583333333 639.083333333 364.75 621.25 c 0
 358.916666667 603.416666667 352.583333333 584.416666667 345.75 564.25 c 0
 338.916666667 544.083333333 332.25 525 325.75 507 c 0
 319.25 489 313.583333333 473.166666667 308.75 459.5 c 0
 303.916666667 445.833333333 300.666666667 436.666666667 299 432 c 0
 266 432 l 0
 278.5 660.5 l 0
 279.166666667 670.833333333 280.75 680.25 283.25 688.75 c 0
 285.75 697.25 289.416666667 704.666666667 294.25 711 c 0
 299.083333333 717.333333333 305.333333333 722.25 313 725.75 c 0
 320.666666667 729.25 330.333333333 731 342 731 c 0
 354.333333333 731 364.583333333 727.666666667 372.75 721 c 0
 380.916666667 714.333333333 385 704.666666667 385 692 c 0
220 692 m 0
 220 688.333333333 218.166666667 680.083333333 214.5 667.25 c 0
 210.833333333 654.416666667 206.083333333 639.083333333 200.25 621.25 c 0
 194.416666667 603.416666667 188.083333333 584.416666667 181.25 564.25 c 0
 174.416666667 544.083333333 167.916666667 525 161.75 507 c 0
 155.583333333 489 150 473.166666667 145 459.5 c 0
 140 445.833333333 136.666666667 436.666666667 135 432 c 0
 102.5 432 l 0
 115.5 660.5 l 0
 116.166666667 670.833333333 117.666666667 680.25 120 688.75 c 0
 122.333333333 697.25 125.833333333 704.666666667 130.5 711 c 0
 135.166666667 717.333333333 141.333333333 722.25 149 725.75 c 0
 156.666666667 729.25 166.333333333 731 178 731 c 0
 189.666666667 731 199.583333333 727.666666667 207.75 721 c 0
 215.916666667 714.333333333 220 704.666666667 220 692 c 0
EndSplineSet
EndChar

StartChar: numbersign
Encoding: 6 35 6
Width: 761
VWidth: 500
Flags: HW
LayerCount: 2
Fore
SplineSet
552 431 m 0
 503 284.5 l 0
 667.5 284.5 l 0
 667.5 233.5 l 0
 485.5 233.5 l 0
 398.5 -23.5 l 0
 347 -7 l 0
 428 233.5 l 0
 279.5 233.5 l 0
 192.5 -23.5 l 0
 141.5 -6 l 0
 223 233.5 l 0
 78 233.5 l 0
 78 284.5 l 0
 239.5 284.5 l 0
 290 431 l 0
 125 431 l 0
 125 483.5 l 0
 307 483.5 l 0
 389 725 l 0
 441.5 708.5 l 0
 363.5 483.5 l 0
 513 483.5 l 0
 594 725 l 0
 647 708.5 l 0
 569.5 483.5 l 0
 712.5 483.5 l 0
 712.5 431 l 0
 552 431 l 0
346 431 m 0
 297 284.5 l 0
 445.5 284.5 l 0
 494.5 431 l 0
 346 431 l 0
EndSplineSet
EndChar

StartChar: dollar
Encoding: 7 36 7
Width: 569
VWidth: 500
Flags: HW
LayerCount: 2
Fore
SplineSet
500.5 505 m 0
 440.5 505 l 0
 445.5 605 l 0
 445.5 607.333333333 444.166666667 610.25 441.5 613.75 c 0
 438.833333333 617.25 436.333333333 619.5 434 620.5 c 0
 433.333333333 620.833333333 431.25 621.833333333 427.75 623.5 c 0
 424.25 625.166666667 419.833333333 626.916666667 414.5 628.75 c 0
 409.166666667 630.583333333 402.916666667 632.416666667 395.75 634.25 c 0
 388.583333333 636.083333333 380.833333333 637.333333333 372.5 638 c 0
 324.5 384 l 0
 347.166666667 376.666666667 368.5 367.666666667 388.5 357 c 0
 408.5 346.333333333 425.916666667 334 440.75 320 c 0
 455.583333333 306 467.25 290.083333333 475.75 272.25 c 0
 484.25 254.416666667 488.5 234.666666667 488.5 213 c 0
 488.5 186.666666667 484.25 163.25 475.75 142.75 c 0
 467.25 122.25 456.083333333 104.25 442.25 88.75 c 0
 428.416666667 73.25 412.833333333 60.1666666667 395.5 49.5 c 0
 378.166666667 38.8333333333 360.666666667 30 343 23 c 0
 325.333333333 16 308.416666667 10.75 292.25 7.25 c 0
 276.083333333 3.75 262.333333333 1.66666666667 251 1 c 0
 231.5 -104.5 l 0
 171 -104.5 l 0
 190.5 0 l 0
 172.5 1 155.666666667 2.66666666667 140 5 c 0
 124.333333333 7.33333333333 109.5 10.3333333333 95.5 14 c 0
 81.5 17.6666666667 67.8333333333 22.0833333333 54.5 27.25 c 0
 41.1666666667 32.4166666667 27.8333333333 38.3333333333 14.5 45 c 0
 47 206 l 0
 115.5 206 l 0
 106.5 88 l 0
 106.5 85.3333333333 107.25 83.3333333333 108.75 82 c 0
 110.25 80.6666666667 111.833333333 79.6666666667 113.5 79 c 0
 114.833333333 78.3333333333 118.25 76.75 123.75 74.25 c 0
 129.25 71.75 136 69 144 66 c 0
 152 63 160.916666667 60.1666666667 170.75 57.5 c 0
 180.583333333 54.8333333333 190.833333333 53 201.5 52 c 0
 252 313.5 l 0
 230.333333333 322.5 210.416666667 332.666666667 192.25 344 c 0
 174.083333333 355.333333333 158.333333333 367.916666667 145 381.75 c 0
 131.666666667 395.583333333 121.25 410.833333333 113.75 427.5 c 0
 106.25 444.166666667 102.5 462.5 102.5 482.5 c 0
 102.5 511.5 108.583333333 537.833333333 120.75 561.5 c 0
 132.916666667 585.166666667 149.166666667 605.583333333 169.5 622.75 c 0
 189.833333333 639.916666667 213.333333333 653.75 240 664.25 c 0
 266.666666667 674.75 294.5 681.333333333 323.5 684 c 0
 338 761 l 0
 396.5 761 l 0
 384 687 l 0
 400.666666667 686.333333333 417 684.666666667 433 682 c 0
 449 679.333333333 463.75 676.416666667 477.25 673.25 c 0
 490.75 670.083333333 502.5 667 512.5 664 c 0
 522.5 661 529.5 658.833333333 533.5 657.5 c 0
 500.5 505 l 0
313.5 634 m 0
 297.166666667 629 282.333333333 622.583333333 269 614.75 c 0
 255.666666667 606.916666667 244.25 597.75 234.75 587.25 c 0
 225.25 576.75 217.916666667 565 212.75 552 c 0
 207.583333333 539 205 525 205 510 c 0
 205 487 210.666666667 467.5 222 451.5 c 0
 233.333333333 435.5 249.5 422.166666667 270.5 411.5 c 0
 313.5 634 l 0
381 185.5 m 0
 381 207.5 375.166666667 227.083333333 363.5 244.25 c 0
 351.833333333 261.416666667 333.333333333 275.833333333 308 287.5 c 0
 263 56.5 l 0
 301.333333333 65.8333333333 330.583333333 81.6666666667 350.75 104 c 0
 370.916666667 126.333333333 381 153.5 381 185.5 c 0
EndSplineSet
EndChar

StartChar: percent
Encoding: 8 37 8
Width: 880
VWidth: 500
Flags: HW
LayerCount: 2
Fore
SplineSet
840.5 271.5 m 0
 840.5 251.5 838.666666667 230.5 835 208.5 c 0
 831.333333333 186.5 825.666666667 164.833333333 818 143.5 c 0
 810.333333333 122.166666667 800.833333333 101.833333333 789.5 82.5 c 0
 778.166666667 63.1666666667 764.833333333 46.1666666667 749.5 31.5 c 0
 734.166666667 16.8333333333 716.75 5.16666666667 697.25 -3.5 c 0
 677.75 -12.1666666667 656.333333333 -16.5 633 -16.5 c 0
 611.333333333 -16.5 592.833333333 -12.75 577.5 -5.25 c 0
 562.166666667 2.25 549.666666667 12.5 540 25.5 c 0
 530.333333333 38.5 523.25 53.75 518.75 71.25 c 0
 514.25 88.75 512 107.333333333 512 127 c 0
 512 147 513.833333333 168 517.5 190 c 0
 521.166666667 212 526.833333333 233.583333333 534.5 254.75 c 0
 542.166666667 275.916666667 551.666666667 296.083333333 563 315.25 c 0
 574.333333333 334.416666667 587.75 351.25 603.25 365.75 c 0
 618.75 380.25 636.166666667 391.833333333 655.5 400.5 c 0
 674.833333333 409.166666667 696.333333333 413.5 720 413.5 c 0
 741.666666667 413.5 760.166666667 409.75 775.5 402.25 c 0
 790.833333333 394.75 803.333333333 384.583333333 813 371.75 c 0
 822.666666667 358.916666667 829.666666667 343.916666667 834 326.75 c 0
 838.333333333 309.583333333 840.5 291.166666667 840.5 271.5 c 0
200.5 0 m 0
 136 0 l 0
 709.5 687 l 0
 773 687 l 0
 200.5 0 l 0
398.5 561 m 0
 398.5 541 396.666666667 520.083333333 393 498.25 c 0
 389.333333333 476.416666667 383.666666667 454.833333333 376 433.5 c 0
 368.333333333 412.166666667 358.833333333 391.833333333 347.5 372.5 c 0
 336.166666667 353.166666667 322.75 336.166666667 307.25 321.5 c 0
 291.75 306.833333333 274.333333333 295.166666667 255 286.5 c 0
 235.666666667 277.833333333 214.166666667 273.5 190.5 273.5 c 0
 168.833333333 273.5 150.25 277.25 134.75 284.75 c 0
 119.25 292.25 106.583333333 302.5 96.75 315.5 c 0
 86.9166666667 328.5 79.75 343.75 75.25 361.25 c 0
 70.75 378.75 68.5 397.333333333 68.5 417 c 0
 68.5 437 70.4166666667 457.916666667 74.25 479.75 c 0
 78.0833333333 501.583333333 83.75 523.083333333 91.25 544.25 c 0
 98.75 565.416666667 108.25 585.666666667 119.75 605 c 0
 131.25 624.333333333 144.75 641.25 160.25 655.75 c 0
 175.75 670.25 193.25 681.833333333 212.75 690.5 c 0
 232.25 699.166666667 253.833333333 703.5 277.5 703.5 c 0
 299.166666667 703.5 317.666666667 699.75 333 692.25 c 0
 348.333333333 684.75 360.833333333 674.583333333 370.5 661.75 c 0
 380.166666667 648.916666667 387.25 633.833333333 391.75 616.5 c 0
 396.25 599.166666667 398.5 580.666666667 398.5 561 c 0
766 291 m 0
 766 300 765.333333333 309.416666667 764 319.25 c 0
 762.666666667 329.083333333 760.083333333 338.083333333 756.25 346.25 c 0
 752.416666667 354.416666667 746.916666667 361.25 739.75 366.75 c 0
 732.583333333 372.25 723.166666667 375 711.5 375 c 0
 696.166666667 375 682.416666667 370.083333333 670.25 360.25 c 0
 658.083333333 350.416666667 647.333333333 337.583333333 638 321.75 c 0
 628.666666667 305.916666667 620.666666667 288.166666667 614 268.5 c 0
 607.333333333 248.833333333 601.916666667 229.166666667 597.75 209.5 c 0
 593.583333333 189.833333333 590.5 171.25 588.5 153.75 c 0
 586.5 136.25 585.5 121.833333333 585.5 110.5 c 0
 585.5 101.166666667 586.166666667 91.3333333333 587.5 81 c 0
 588.833333333 70.6666666667 591.5 61.0833333333 595.5 52.25 c 0
 599.5 43.4166666667 605.166666667 36.0833333333 612.5 30.25 c 0
 619.833333333 24.4166666667 629.333333333 21.5 641 21.5 c 0
 656 21.5 669.583333333 26.5833333333 681.75 36.75 c 0
 693.916666667 46.9166666667 704.583333333 60.0833333333 713.75 76.25 c 0
 722.916666667 92.4166666667 730.833333333 110.583333333 737.5 130.75 c 0
 744.166666667 150.916666667 749.583333333 171 753.75 191 c 0
 757.916666667 211 761 229.833333333 763 247.5 c 0
 765 265.166666667 766 279.666666667 766 291 c 0
322.5 580.5 m 0
 322.5 589.5 321.916666667 598.916666667 320.75 608.75 c 0
 319.583333333 618.583333333 317.083333333 627.666666667 313.25 636 c 0
 309.416666667 644.333333333 304 651.166666667 297 656.5 c 0
 290 661.833333333 280.833333333 664.5 269.5 664.5 c 0
 253.833333333 664.5 239.833333333 659.583333333 227.5 649.75 c 0
 215.166666667 639.916666667 204.333333333 627.083333333 195 611.25 c 0
 185.666666667 595.416666667 177.666666667 577.666666667 171 558 c 0
 164.333333333 538.333333333 158.916666667 518.75 154.75 499.25 c 0
 150.583333333 479.75 147.5 461.25 145.5 443.75 c 0
 143.5 426.25 142.5 411.833333333 142.5 400.5 c 0
 142.5 391.166666667 143.25 381.333333333 144.75 371 c 0
 146.25 360.666666667 149 351.166666667 153 342.5 c 0
 157 333.833333333 162.666666667 326.666666667 170 321 c 0
 177.333333333 315.333333333 186.833333333 312.5 198.5 312.5 c 0
 213.833333333 312.5 227.5 317.583333333 239.5 327.75 c 0
 251.5 337.916666667 262.083333333 351 271.25 367 c 0
 280.416666667 383 288.25 401 294.75 421 c 0
 301.25 441 306.583333333 461 310.75 481 c 0
 314.916666667 501 317.916666667 519.75 319.75 537.25 c 0
 321.583333333 554.75 322.5 569.166666667 322.5 580.5 c 0
EndSplineSet
EndChar

StartChar: ampersand
Encoding: 9 38 9
Width: 721
VWidth: 500
Flags: HW
LayerCount: 2
Fore
SplineSet
615.5 315.5 m 0
 601.166666667 285.166666667 582.916666667 254 560.75 222 c 0
 538.583333333 190 514.5 160 488.5 132 c 0
 500.166666667 116 511.666666667 102.583333333 523 91.75 c 0
 534.333333333 80.9166666667 546.333333333 72.1666666667 559 65.5 c 0
 571.666666667 58.8333333333 585.666666667 54 601 51 c 0
 616.333333333 48 633.833333333 46.3333333333 653.5 46 c 0
 653.5 1 l 0
 636.833333333 0.333333333333 622.583333333 -0.333333333333 610.75 -1 c 0
 598.916666667 -1.66666666667 588.166666667 -2.33333333333 578.5 -3 c 0
 567.833333333 -3.66666666667 557.416666667 -3.83333333333 547.25 -3.5 c 0
 537.083333333 -3.16666666667 527.333333333 -2 518 0 c 0
 509.666666667 1.33333333333 501.583333333 3.58333333333 493.75 6.75 c 0
 485.916666667 9.91666666667 478.083333333 14.1666666667 470.25 19.5 c 0
 462.416666667 24.8333333333 454.333333333 31.5 446 39.5 c 0
 437.666666667 47.5 429 57.1666666667 420 68.5 c 0
 405 57.1666666667 389.333333333 46.6666666667 373 37 c 0
 356.666666667 27.3333333333 339.333333333 18.9166666667 321 11.75 c 0
 302.666666667 4.58333333333 283.166666667 -1.08333333333 262.5 -5.25 c 0
 241.833333333 -9.41666666667 219.5 -11.5 195.5 -11.5 c 0
 169.833333333 -11.5 145.916666667 -7.66666666667 123.75 0 c 0
 101.583333333 7.66666666667 82.25 18.8333333333 65.75 33.5 c 0
 49.25 48.1666666667 36.25 66 26.75 87 c 0
 17.25 108 12.5 131.833333333 12.5 158.5 c 0
 12.5 183.833333333 17.0833333333 207.083333333 26.25 228.25 c 0
 35.4166666667 249.416666667 48 268.916666667 64 286.75 c 0
 80 304.583333333 98.6666666667 320.833333333 120 335.5 c 0
 141.333333333 350.166666667 164.166666667 363.666666667 188.5 376 c 0
 180.833333333 386.666666667 173.583333333 397.333333333 166.75 408 c 0
 159.916666667 418.666666667 154 429.416666667 149 440.25 c 0
 144 451.083333333 140.083333333 462.166666667 137.25 473.5 c 0
 134.416666667 484.833333333 133 496.666666667 133 509 c 0
 133 536.666666667 138.833333333 562.166666667 150.5 585.5 c 0
 162.166666667 608.833333333 178.166666667 629 198.5 646 c 0
 218.833333333 663 242.916666667 676.333333333 270.75 686 c 0
 298.583333333 695.666666667 328.833333333 700.5 361.5 700.5 c 0
 389.5 700.5 413.333333333 696.666666667 433 689 c 0
 452.666666667 681.333333333 468.833333333 671.083333333 481.5 658.25 c 0
 494.166666667 645.416666667 503.416666667 630.916666667 509.25 614.75 c 0
 515.083333333 598.583333333 518 582 518 565 c 0
 518 540.333333333 512.916666667 518.166666667 502.75 498.5 c 0
 492.583333333 478.833333333 478.333333333 461 460 445 c 0
 441.666666667 429 419.75 414.666666667 394.25 402 c 0
 368.75 389.333333333 340.833333333 377.833333333 310.5 367.5 c 0
 454.5 177 l 0
 472.166666667 196.666666667 487.666666667 217.666666667 501 240 c 0
 514.333333333 262.333333333 525.166666667 282.333333333 533.5 300 c 0
 533.833333333 300.666666667 533.5 301.833333333 532.5 303.5 c 0
 531.5 305.166666667 530.416666667 306.833333333 529.25 308.5 c 0
 528.083333333 310.166666667 526.916666667 311.583333333 525.75 312.75 c 0
 524.583333333 313.916666667 523.833333333 314.5 523.5 314.5 c 0
 471 323.5 l 0
 471 370.5 l 0
 689 370.5 l 0
 689 323.5 l 0
 615.5 315.5 l 0
418 556 m 0
 418 568 416.333333333 579.666666667 413 591 c 0
 409.666666667 602.333333333 404.75 612.333333333 398.25 621 c 0
 391.75 629.666666667 383.666666667 636.666666667 374 642 c 0
 364.333333333 647.333333333 353.333333333 650 341 650 c 0
 328.666666667 650 315.75 647.666666667 302.25 643 c 0
 288.75 638.333333333 276.333333333 631.333333333 265 622 c 0
 253.666666667 612.666666667 244.25 600.916666667 236.75 586.75 c 0
 229.25 572.583333333 225.5 555.833333333 225.5 536.5 c 0
 225.5 524.166666667 227.166666667 511.916666667 230.5 499.75 c 0
 233.833333333 487.583333333 238.166666667 475.75 243.5 464.25 c 0
 248.833333333 452.75 254.916666667 441.75 261.75 431.25 c 0
 268.583333333 420.75 275.5 411.166666667 282.5 402.5 c 0
 302.5 410.5 320.833333333 419.333333333 337.5 429 c 0
 354.166666667 438.666666667 368.416666667 449.666666667 380.25 462 c 0
 392.083333333 474.333333333 401.333333333 488.166666667 408 503.5 c 0
 414.666666667 518.833333333 418 536.333333333 418 556 c 0
216 336 m 0
 186.666666667 317 163.5 295.5 146.5 271.5 c 0
 129.5 247.5 121 219.833333333 121 188.5 c 0
 121 167.833333333 124.5 149.166666667 131.5 132.5 c 0
 138.5 115.833333333 147.833333333 101.666666667 159.5 90 c 0
 171.166666667 78.3333333333 184.666666667 69.25 200 62.75 c 0
 215.333333333 56.25 231.333333333 53 248 53 c 0
 260 53 271.416666667 54.0833333333 282.25 56.25 c 0
 293.083333333 58.4166666667 304 61.8333333333 315 66.5 c 0
 326 71.1666666667 337.25 77.0833333333 348.75 84.25 c 0
 360.25 91.4166666667 372.666666667 99.8333333333 386 109.5 c 0
 216 336 l 0
EndSplineSet
EndChar

StartChar: quotesingle
Encoding: 10 39 10
Width: 174
VWidth: 500
Flags: HW
LayerCount: 2
Fore
SplineSet
225.5 692 m 0
 225.5 688.333333333 223.5 680.083333333 219.5 667.25 c 0
 215.5 654.416666667 210.5 639.083333333 204.5 621.25 c 0
 198.5 603.416666667 191.916666667 584.416666667 184.75 564.25 c 0
 177.583333333 544.083333333 170.666666667 525 164 507 c 0
 157.333333333 489 151.416666667 473.166666667 146.25 459.5 c 0
 141.083333333 445.833333333 137.666666667 436.666666667 136 432 c 0
 102.5 432 l 0
 115.5 660.5 l 0
 116.5 670.833333333 118.25 680.25 120.75 688.75 c 0
 123.25 697.25 127 704.666666667 132 711 c 0
 137 717.333333333 143.5 722.25 151.5 725.75 c 0
 159.5 729.25 169.333333333 731 181 731 c 0
 194 731 204.666666667 727.666666667 213 721 c 0
 221.333333333 714.333333333 225.5 704.666666667 225.5 692 c 0
EndSplineSet
EndChar

StartChar: parenleft
Encoding: 11 40 11
Width: 429
VWidth: 500
Flags: HW
LayerCount: 2
Fore
SplineSet
469 688 m 0
 440.666666667 684.333333333 414.75 675.5 391.25 661.5 c 0
 367.75 647.5 346.416666667 629.916666667 327.25 608.75 c 0
 308.083333333 587.583333333 290.916666667 563.583333333 275.75 536.75 c 0
 260.583333333 509.916666667 247.333333333 481.75 236 452.25 c 0
 224.666666667 422.75 215 392.666666667 207 362 c 0
 199 331.333333333 192.5 301.5 187.5 272.5 c 0
 182.5 243.5 178.833333333 216.166666667 176.5 190.5 c 0
 174.166666667 164.833333333 173 142.333333333 173 123 c 0
 173 85 176.75 52.9166666667 184.25 26.75 c 0
 191.75 0.583333333333 202.083333333 -21.1666666667 215.25 -38.5 c 0
 228.416666667 -55.8333333333 243.833333333 -69.25 261.5 -78.75 c 0
 279.166666667 -88.25 298.166666667 -95.1666666667 318.5 -99.5 c 0
 309 -146.5 l 0
 274.333333333 -144.5 242.583333333 -136.083333333 213.75 -121.25 c 0
 184.916666667 -106.416666667 160 -86.4166666667 139 -61.25 c 0
 118 -36.0833333333 101.666666667 -6.25 90 28.25 c 0
 78.3333333333 62.75 72.5 100.833333333 72.5 142.5 c 0
 72.5 183.166666667 76.1666666667 225.5 83.5 269.5 c 0
 90.8333333333 313.5 101.833333333 356.75 116.5 399.25 c 0
 131.166666667 441.75 149.666666667 482.416666667 172 521.25 c 0
 194.333333333 560.083333333 220.5 594.666666667 250.5 625 c 0
 280.5 655.333333333 314.5 680.25 352.5 699.75 c 0
 390.5 719.25 432.333333333 731 478 735 c 0
 469 688 l 0
EndSplineSet
EndChar

StartChar: parenright
Encoding: 12 41 12
Width: 428
VWidth: 500
Flags: HW
LayerCount: 2
Fore
SplineSet
355.5 454.5 m 0
 355.5 397.833333333 350.75 344.333333333 341.25 294 c 0
 331.75 243.666666667 318.416666667 197 301.25 154 c 0
 284.083333333 111 263.25 71.9166666667 238.75 36.75 c 0
 214.25 1.58333333333 187.083333333 -28.8333333333 157.25 -54.5 c 0
 127.416666667 -80.1666666667 95.0833333333 -100.916666667 60.25 -116.75 c 0
 25.4166666667 -132.583333333 -11 -142.833333333 -49 -147.5 c 0
 -40 -98.5 l 0
 -10.3333333333 -94.5 16.5833333333 -85.0833333333 40.75 -70.25 c 0
 64.9166666667 -55.4166666667 86.75 -36.8333333333 106.25 -14.5 c 0
 125.75 7.83333333333 142.916666667 33.0833333333 157.75 61.25 c 0
 172.583333333 89.4166666667 185.5 118.75 196.5 149.25 c 0
 207.5 179.75 216.75 210.583333333 224.25 241.75 c 0
 231.75 272.916666667 237.75 302.75 242.25 331.25 c 0
 246.75 359.75 250 386.083333333 252 410.25 c 0
 254 434.416666667 255 454.666666667 255 471 c 0
 255 481.333333333 254.333333333 493.333333333 253 507 c 0
 251.666666667 520.666666667 249.25 535 245.75 550 c 0
 242.25 565 237.166666667 580 230.5 595 c 0
 223.833333333 610 215.166666667 623.833333333 204.5 636.5 c 0
 193.833333333 649.166666667 180.75 660.083333333 165.25 669.25 c 0
 149.75 678.416666667 131.5 684.666666667 110.5 688 c 0
 120 735 l 0
 156.333333333 731 187.416666667 722.5 213.25 709.5 c 0
 239.083333333 696.5 260.75 681.166666667 278.25 663.5 c 0
 295.75 645.833333333 309.583333333 626.666666667 319.75 606 c 0
 329.916666667 585.333333333 337.666666667 565.333333333 343 546 c 0
 348.333333333 526.666666667 351.75 508.833333333 353.25 492.5 c 0
 354.75 476.166666667 355.5 463.5 355.5 454.5 c 0
EndSplineSet
EndChar

StartChar: asterisk
Encoding: 13 42 13
Width: 512
VWidth: 500
Flags: HW
LayerCount: 2
Fore
SplineSet
476 525.5 m 0
 344 518 l 0
 340 532.5 l 0
 449.5 605 l 0
 522 583.5 l 0
 476 525.5 l 0
327.5 542.5 m 0
 314.5 542.5 l 0
 278.5 670.5 l 0
 320.5 733 l 0
 363.5 670.5 l 0
 327.5 542.5 l 0
374 371.5 m 0
 326.5 494.5 l 0
 340 504 l 0
 443.5 421 l 0
 445.5 345 l 0
 374 371.5 l 0
299 518 m 0
 166 525.5 l 0
 120 583.5 l 0
 191.5 605 l 0
 302 532.5 l 0
 299 518 l 0
268.5 371.5 m 0
 196.5 345 l 0
 198.5 421 l 0
 302 504 l 0
 315.5 494.5 l 0
 268.5 371.5 l 0
EndSplineSet
EndChar

StartChar: plus
Encoding: 14 43 14
Width: 1024
VWidth: 500
Flags: HW
LayerCount: 2
Fore
SplineSet
543.5 275.5 m 0
 543.5 0 l 0
 480.5 0 l 0
 480.5 275.5 l 0
 205 275.5 l 0
 205 339 l 0
 480.5 339 l 0
 480.5 614.5 l 0
 543.5 614.5 l 0
 543.5 339 l 0
 819 339 l 0
 819 275.5 l 0
 543.5 275.5 l 0
EndSplineSet
EndChar

StartChar: comma
Encoding: 15 44 15
Width: 286
VWidth: 500
Flags: HW
LayerCount: 2
Fore
SplineSet
163 48 m 0
 163 19 156.833333333 -8.33333333333 144.5 -34 c 0
 132.166666667 -59.6666666667 115.75 -82.5 95.25 -102.5 c 0
 74.75 -122.5 51.3333333333 -138.833333333 25 -151.5 c 0
 -1.33333333333 -164.166666667 -28.5 -171.666666667 -56.5 -174 c 0
 -49 -137 l 0
 -28 -132.666666667 -9.58333333333 -126.583333333 6.25 -118.75 c 0
 22.0833333333 -110.916666667 35.75 -101.25 47.25 -89.75 c 0
 58.75 -78.25 68.1666666667 -64.5 75.5 -48.5 c 0
 82.8333333333 -32.5 88.3333333333 -14 92 7 c 0
 27.5 7 l 0
 23.8333333333 11.6666666667 21.25 16.9166666667 19.75 22.75 c 0
 18.25 28.5833333333 17.5 34.3333333333 17.5 40 c 0
 17.5 50.3333333333 19.6666666667 60.5833333333 24 70.75 c 0
 28.3333333333 80.9166666667 34.0833333333 90 41.25 98 c 0
 48.4166666667 106 56.75 112.5 66.25 117.5 c 0
 75.75 122.5 85.8333333333 125 96.5 125 c 0
 108.5 125 118.75 123.083333333 127.25 119.25 c 0
 135.75 115.416666667 142.583333333 110 147.75 103 c 0
 152.916666667 96 156.75 87.8333333333 159.25 78.5 c 0
 161.75 69.1666666667 163 59 163 48 c 0
EndSplineSet
EndChar

StartChar: hyphen
Encoding: 16 45 16
Width: 326
VWidth: 500
Flags: HW
LayerCount: 2
Fore
SplineSet
276.5 212 m 0
 30.5 212 l 0
 44 281.5 l 0
 290 281.5 l 0
 276.5 212 l 0
EndSplineSet
EndChar

StartChar: period
Encoding: 17 46 17
Width: 286
VWidth: 500
Flags: HW
LayerCount: 2
Fore
SplineSet
155.5 56.5 m 0
 155.5 46.8333333333 153.666666667 37.8333333333 150 29.5 c 0
 146.333333333 21.1666666667 141.333333333 13.9166666667 135 7.75 c 0
 128.666666667 1.58333333333 121.25 -3.33333333333 112.75 -7 c 0
 104.25 -10.6666666667 95.3333333333 -12.5 86 -12.5 c 0
 76.3333333333 -12.5 67.4166666667 -10.6666666667 59.25 -7 c 0
 51.0833333333 -3.33333333333 44 1.58333333333 38 7.75 c 0
 32 13.9166666667 27.25 21.1666666667 23.75 29.5 c 0
 20.25 37.8333333333 18.5 46.8333333333 18.5 56.5 c 0
 18.5 65.8333333333 20.25 74.6666666667 23.75 83 c 0
 27.25 91.3333333333 32 98.5833333333 38 104.75 c 0
 44 110.916666667 51.0833333333 115.833333333 59.25 119.5 c 0
 67.4166666667 123.166666667 76.3333333333 125 86 125 c 0
 95.3333333333 125 104.25 123.166666667 112.75 119.5 c 0
 121.25 115.833333333 128.666666667 110.916666667 135 104.75 c 0
 141.333333333 98.5833333333 146.333333333 91.3333333333 150 83 c 0
 153.666666667 74.6666666667 155.5 65.8333333333 155.5 56.5 c 0
EndSplineSet
EndChar

StartChar: slash
Encoding: 18 47 18
Width: 502
VWidth: 500
Flags: HW
LayerCount: 2
Fore
SplineSet
65.5 -95 m 0
 0 -95 l 0
 436 687 l 0
 502 687 l 0
 65.5 -95 l 0
EndSplineSet
EndChar

StartChar: zero
Encoding: 19 48 19
Width: 754
VWidth: 500
Flags: HW
LayerCount: 2
Fore
SplineSet
678 151 m 0
 759 534 l 0
 761.666666667 548 759.333333333 561 752 573 c 0
 742 583 730.666666667 588 718 588 c 0
 616 588 l 0
 598.666666667 588 582.833333333 582.166666667 568.5 570.5 c 0
 554.166666667 558.833333333 545.666666667 546.666666667 543 534 c 0
 461 147 l 0
 458.333333333 133 462.5 121.166666667 473.5 111.5 c 0
 484.5 101.833333333 497.333333333 97 512 97 c 0
 614 97 l 0
 628 97 641.666666667 102.833333333 655 114.5 c 0
 668.333333333 126.166666667 676 138.333333333 678 151 c 0
779 117 m 0
 775.666666667 97 766.333333333 77.6666666667 751 59 c 0
 743 51 734.333333333 43.3333333333 725 36 c 0
 715.666666667 28.6666666667 706 22.6666666667 696 18 c 0
 674 7.33333333333 651.333333333 2 628 2 c 0
 452 2 l 0
 416 2 388.333333333 16 369 44 c 0
 354.333333333 61.3333333333 347 82.3333333333 347 107 c 0
 347 116.333333333 348.333333333 126.333333333 351 137 c 0
 442 568 l 0
 448 599.333333333 467.666666667 626.166666667 501 648.5 c 0
 534.333333333 670.833333333 570.333333333 682 609 682 c 0
 764 682 l 0
 802.666666667 682 832 668.666666667 852 642 c 0
 866 623.333333333 873 601.666666667 873 577 c 0
 873 567 871.666666667 555.666666667 869 543 c 0
 779 117 l 0
EndSplineSet
EndChar

StartChar: one
Encoding: 20 49 20
Width: 754
VWidth: 500
Flags: HW
LayerCount: 2
Fore
SplineSet
754 0 m 0
 399 0 l 0
 418 95 l 0
 541 95 l 0
 636 541 l 0
 637.333333333 550.333333333 638 556.333333333 638 559 c 0
 638 563 638 563 638 567 c 0
 636.666666667 570.333333333 636 572.333333333 636 573 c 0
 633.333333333 581 628 585 620 585 c 0
 524 585 l 0
 544 680 l 0
 661 680 l 0
 691.666666667 680 716.333333333 669 735 647 c 0
 747 631.666666667 753 613.333333333 753 592 c 0
 753 586.666666667 752.333333333 578.666666667 751 568 c 0
 651 95 l 0
 774 95 l 0
 754 0 l 0
EndSplineSet
EndChar

StartChar: two
Encoding: 21 50 21
Width: 754
VWidth: 500
Flags: HW
LayerCount: 2
Fore
SplineSet
754 0 m 0
 305 0 l 0
 356 246 l 0
 365.333333333 283.333333333 386.333333333 312 419 332 c 0
 453 356 490 368 530 368 c 0
 681 368 l 0
 691.666666667 368 702 374 712 386 c 0
 722 398 729.333333333 412.666666667 734 430 c 0
 759 551 l 0
 761.666666667 560.333333333 760.5 568.166666667 755.5 574.5 c 0
 750.5 580.833333333 743.333333333 584 734 584 c 0
 583 584 l 0
 578.333333333 584 572.833333333 583.166666667 566.5 581.5 c 0
 560.166666667 579.833333333 552.833333333 577.166666667 544.5 573.5 c 0
 536.166666667 569.833333333 530.666666667 562.666666667 528 552 c 0
 510 463 l 0
 403 463 l 0
 428 586 l 0
 435.333333333 614.666666667 452 637.5 478 654.5 c 0
 504 671.5 534.666666667 680 570 680 c 0
 774 680 l 0
 808 680 834.666666667 669 854 647 c 0
 866.666666667 631.666666667 873 613.333333333 873 592 c 0
 873 586.666666667 872.333333333 578.666666667 871 568 c 0
 841 424 l 0
 835 395.333333333 824.666666667 371 810 351 c 0
 800.666666667 338.333333333 791.666666667 327.666666667 783 319 c 0
 774.333333333 310.333333333 763.666666667 302.333333333 751 295 c 0
 729.666666667 282.333333333 707 276 683 276 c 0
 520 276 l 0
 505.333333333 276 494.5 274.666666667 487.5 272 c 0
 480.5 269.333333333 475.833333333 266.666666667 473.5 264 c 0
 471.166666667 261.333333333 469.666666667 259.666666667 469 259 c 0
 434 100 l 0
 775 100 l 0
 754 0 l 0
EndSplineSet
EndChar

StartChar: three
Encoding: 22 51 22
Width: 754
VWidth: 500
Flags: HW
LayerCount: 2
Fore
SplineSet
778 109 m 0
 772 79.6666666667 755.5 54.3333333333 728.5 33 c 0
 701.5 11.6666666667 672.333333333 1 641 1 c 0
 437 1 l 0
 403 1 374.333333333 10.3333333333 351 29 c 0
 334.333333333 43 326 60.6666666667 326 82 c 0
 326 88 326.333333333 92.3333333333 327 95 c 0
 348 191 l 0
 455 191 l 0
 444 137 l 0
 441.333333333 126.333333333 443.833333333 116.833333333 451.5 108.5 c 0
 459.166666667 100.166666667 469.333333333 96 482 96 c 0
 612 96 l 0
 624.666666667 96 637.666666667 100.833333333 651 110.5 c 0
 664.333333333 120.166666667 672.333333333 132 675 146 c 0
 700 260 l 0
 702.666666667 275.333333333 699.833333333 288 691.5 298 c 0
 683.166666667 308 672 313 658 313 c 0
 616 313 l 0
 635 408 l 0
 670 408 l 0
 686.666666667 408 701.5 411.5 714.5 418.5 c 0
 727.5 425.5 735.333333333 433.666666667 738 443 c 0
 757 539 l 0
 757.666666667 542.333333333 758 546.666666667 758 552 c 0
 758 560 755.666666667 567.166666667 751 573.5 c 0
 746.333333333 579.833333333 738 583 726 583 c 0
 584 583 l 0
 572 583 560.166666667 579.333333333 548.5 572 c 0
 536.833333333 564.666666667 529.666666667 555 527 543 c 0
 519 501 l 0
 412 501 l 0
 431 597 l 0
 436.333333333 620.333333333 452 639.666666667 478 655 c 0
 504 670.333333333 534.666666667 678 570 678 c 0
 782 678 l 0
 812.666666667 678 837.333333333 667 856 645 c 0
 868 629.666666667 874 611.333333333 874 590 c 0
 874 584.666666667 873.333333333 576.666666667 872 566 c 0
 851 463 l 0
 847.666666667 444.333333333 836.666666667 426 818 408 c 0
 799.333333333 390 775.666666667 375 747 363 c 0
 771 355 788 341.333333333 798 322 c 0
 802.666666667 312.666666667 805.666666667 305.333333333 807 300 c 0
 808.333333333 294.666666667 809 288 809 280 c 0
 809 275.333333333 808.333333333 267.666666667 807 257 c 0
 778 109 l 0
EndSplineSet
EndChar

StartChar: four
Encoding: 23 52 23
Width: 754
VWidth: 500
Flags: HW
LayerCount: 2
Fore
SplineSet
789 163 m 0
 694 163 l 0
 659 0 l 0
 550 0 l 0
 585 163 l 0
 402 163 l 0
 374 163 351.5 171.166666667 334.5 187.5 c 0
 317.5 203.833333333 311.333333333 223 316 245 c 0
 320.666666667 262.333333333 325.5 277 330.5 289 c 0
 335.5 301 344.333333333 317.666666667 357 339 c 0
 544 680 l 0
 653 680 l 0
 456 333 l 0
 430 270 l 0
 430 266.666666667 430.333333333 264.166666667 431 262.5 c 0
 431.666666667 260.833333333 432.666666667 259.666666667 434 259 c 0
 604 259 l 0
 693 681 l 0
 802 681 l 0
 713 259 l 0
 808 259 l 0
 789 163 l 0
EndSplineSet
EndChar

StartChar: five
Encoding: 24 53 24
Width: 754
VWidth: 500
Flags: HW
LayerCount: 2
Fore
SplineSet
778 109 m 0
 772 79.6666666667 757 54.3333333333 733 33 c 0
 709 11.6666666667 683 1 655 1 c 0
 374 1 l 0
 347.333333333 1 327.5 9.16666666667 314.5 25.5 c 0
 301.5 41.8333333333 295 57.6666666667 295 73 c 0
 295 76.3333333333 295.666666667 81.6666666667 297 89 c 0
 320 203 l 0
 429 203 l 0
 414 131 l 0
 412.666666667 121 414.666666667 113.5 420 108.5 c 0
 425.333333333 103.5 429.833333333 100.166666667 433.5 98.5 c 0
 437.166666667 96.8333333333 441.666666667 96 447 96 c 0
 637 96 l 0
 644.333333333 96 652.666666667 100.666666667 662 110 c 0
 668 122 672.333333333 134 675 146 c 0
 708 301 l 0
 710.666666667 318.333333333 697.333333333 327 668 327 c 0
 345 327 l 0
 420 682 l 0
 884 682 l 0
 863 587 l 0
 508 587 l 0
 473 424 l 0
 719 424 l 0
 754.333333333 424 781.333333333 413 800 391 c 0
 814 374.333333333 821 355.333333333 821 334 c 0
 821 329.333333333 820.333333333 321.666666667 819 311 c 0
 778 109 l 0
EndSplineSet
EndChar

StartChar: six
Encoding: 25 54 25
Width: 754
VWidth: 500
Flags: HW
LayerCount: 2
Fore
SplineSet
678 148 m 0
 707 283 l 0
 709.666666667 297.666666667 706 308.833333333 696 316.5 c 0
 686 324.166666667 673.333333333 328 658 328 c 0
 472 328 l 0
 436 159 l 0
 433.333333333 141.666666667 436.666666667 127.666666667 446 117 c 0
 458.666666667 104.333333333 471.333333333 98 484 98 c 0
 607 98 l 0
 622.333333333 98 637.166666667 102.666666667 651.5 112 c 0
 665.833333333 121.333333333 674.666666667 133.333333333 678 148 c 0
781 123 m 0
 773.666666667 89.6666666667 756 61 728 37 c 0
 696.666666667 13 664.666666667 1 632 1 c 0
 428 1 l 0
 392 1 362.333333333 11.6666666667 339 33 c 0
 321.666666667 50.3333333333 313 69 313 89 c 0
 313 92.3333333333 313.666666667 98.6666666667 315 108 c 0
 411 567 l 0
 419 599.666666667 438.333333333 626.833333333 469 648.5 c 0
 499.666666667 670.166666667 534 681 572 681 c 0
 873 681 l 0
 852 586 l 0
 574 586 l 0
 561.333333333 586 548.666666667 582 536 574 c 0
 525.333333333 564 518.666666667 553 516 541 c 0
 491 424 l 0
 709 424 l 0
 749 424 779 412.333333333 799 389 c 0
 814.333333333 369 822 348.333333333 822 327 c 0
 822 321.666666667 821.333333333 313.666666667 820 303 c 0
 781 123 l 0
EndSplineSet
EndChar

StartChar: seven
Encoding: 26 55 26
Width: 754
VWidth: 500
Flags: HW
LayerCount: 2
Fore
SplineSet
873 560 m 0
 517 0 l 0
 408 0 l 0
 765 560 l 0
 765.666666667 568 764.166666667 574.5 760.5 579.5 c 0
 756.833333333 584.5 751 587 743 587 c 0
 519 587 l 0
 505 519 l 0
 396 519 l 0
 431 682 l 0
 786 682 l 0
 818.666666667 682 842.666666667 670 858 646 c 0
 870 630.666666667 876 612 876 590 c 0
 876 577.333333333 875 567.333333333 873 560 c 0
EndSplineSet
EndChar

StartChar: eight
Encoding: 27 56 27
Width: 754
VWidth: 500
Flags: HW
LayerCount: 2
Fore
SplineSet
678 147 m 0
 680 159 l 0
 680.666666667 162.333333333 681 167.666666667 681 175 c 0
 681 192.333333333 674 206.333333333 660 217 c 0
 597 280 l 0
 487 217 l 0
 467 200.333333333 455.666666667 187 453 177 c 0
 445 137 l 0
 442.333333333 127 445.333333333 117.666666667 454 109 c 0
 462.666666667 100.333333333 474.333333333 96 489 96 c 0
 613 96 l 0
 625.666666667 96 638.666666667 100.833333333 652 110.5 c 0
 665.333333333 120.166666667 674 132.333333333 678 147 c 0
761 548 m 0
 761.666666667 551.333333333 762 556.666666667 762 564 c 0
 762 569.333333333 761.333333333 573.333333333 760 576 c 0
 754.666666667 583.333333333 747.333333333 587 738 587 c 0
 579 587 l 0
 573.666666667 587 568.333333333 586.333333333 563 585 c 0
 557.666666667 583.666666667 553.333333333 582.666666667 550 582 c 0
 542 577.333333333 537.333333333 570.666666667 536 562 c 0
 534.666666667 553.333333333 534 546.666666667 534 542 c 0
 534 534 536 527 540 521 c 0
 625 435 l 0
 735 507 l 0
 749.666666667 515 758.333333333 528.666666667 761 548 c 0
774 89 m 0
 768.666666667 65 753 44.1666666667 727 26.5 c 0
 701 8.83333333333 672.333333333 0 641 0 c 0
 437 0 l 0
 403 0 374.333333333 9.33333333333 351 28 c 0
 334.333333333 42 326 59.6666666667 326 81 c 0
 326 87 326.333333333 91.3333333333 327 94 c 0
 353 217 l 0
 355.666666667 229.666666667 372.333333333 247.666666667 403 271 c 0
 540 362 l 0
 455 448 l 0
 427 481.333333333 414.666666667 506.666666667 418 524 c 0
 433 598 l 0
 438.333333333 621.333333333 454 640.666666667 480 656 c 0
 506 671.333333333 536.666666667 679 572 679 c 0
 784 679 l 0
 817.333333333 679 842.333333333 671.333333333 859 656 c 0
 873.666666667 644 881 629.666666667 881 613 c 0
 881 607 880.666666667 602.666666667 880 600 c 0
 859 498 l 0
 853.666666667 476 836.333333333 455.666666667 807 437 c 0
 666 349 l 0
 743 295 l 0
 783.666666667 256.333333333 801.333333333 225 796 201 c 0
 774 89 l 0
EndSplineSet
EndChar

StartChar: nine
Encoding: 28 57 28
Width: 754
VWidth: 500
Flags: HW
LayerCount: 2
Fore
SplineSet
716 354 m 0
 755 540 l 0
 757.666666667 552.666666667 754.333333333 563.333333333 745 572 c 0
 735.666666667 580.666666667 722.333333333 585 705 585 c 0
 574 585 l 0
 560 585 546 581 532 573 c 0
 520 563.666666667 512.666666667 552.666666667 510 540 c 0
 481 403 l 0
 479.666666667 388.333333333 484 377.333333333 494 370 c 0
 504 360 517.333333333 355 534 355 c 0
 716 354 l 0
782 131 m 0
 774 95 753 64.1666666667 719 38.5 c 0
 685 12.8333333333 647 0 605 0 c 0
 318 0 l 0
 337 95 l 0
 582 95 l 0
 604 95 624.333333333 100.333333333 643 111 c 0
 661.666666667 121.666666667 672.666666667 134.333333333 676 149 c 0
 699 259 l 0
 481 259 l 0
 444.333333333 259 414.333333333 269.666666667 391 291 c 0
 374.333333333 309.666666667 366 329.666666667 366 351 c 0
 366 358.333333333 366.333333333 363.666666667 367 367 c 0
 411 579 l 0
 414.333333333 596.333333333 424.333333333 613.333333333 441 630 c 0
 456.333333333 644 476.333333333 656 501 666 c 0
 525 674 550 678 576 678 c 0
 758 678 l 0
 782 678 803 672.666666667 821 662 c 0
 839 651.333333333 852.666666667 636.333333333 862 617 c 0
 867.333333333 606.333333333 870 594.666666667 870 582 c 0
 870 576.666666667 869.333333333 568.666666667 868 558 c 0
 782 131 l 0
EndSplineSet
EndChar

StartChar: colon
Encoding: 29 58 29
Width: 286
VWidth: 500
Flags: HW
LayerCount: 2
Fore
SplineSet
230.5 437 m 0
 230.5 427.666666667 228.666666667 418.833333333 225 410.5 c 0
 221.333333333 402.166666667 216.333333333 394.916666667 210 388.75 c 0
 203.666666667 382.583333333 196.25 377.666666667 187.75 374 c 0
 179.25 370.333333333 170.333333333 368.5 161 368.5 c 0
 151.333333333 368.5 142.333333333 370.333333333 134 374 c 0
 125.666666667 377.666666667 118.416666667 382.583333333 112.25 388.75 c 0
 106.083333333 394.916666667 101.166666667 402.166666667 97.5 410.5 c 0
 93.8333333333 418.833333333 92 427.666666667 92 437 c 0
 92 446.333333333 93.8333333333 455.25 97.5 463.75 c 0
 101.166666667 472.25 106.083333333 479.583333333 112.25 485.75 c 0
 118.416666667 491.916666667 125.666666667 496.833333333 134 500.5 c 0
 142.333333333 504.166666667 151.333333333 506 161 506 c 0
 170.333333333 506 179.25 504.166666667 187.75 500.5 c 0
 196.25 496.833333333 203.666666667 491.916666667 210 485.75 c 0
 216.333333333 479.583333333 221.333333333 472.25 225 463.75 c 0
 228.666666667 455.25 230.5 446.333333333 230.5 437 c 0
155.5 56.5 m 0
 155.5 46.8333333333 153.666666667 37.8333333333 150 29.5 c 0
 146.333333333 21.1666666667 141.333333333 13.9166666667 135 7.75 c 0
 128.666666667 1.58333333333 121.25 -3.33333333333 112.75 -7 c 0
 104.25 -10.6666666667 95.3333333333 -12.5 86 -12.5 c 0
 76.3333333333 -12.5 67.4166666667 -10.6666666667 59.25 -7 c 0
 51.0833333333 -3.33333333333 43.8333333333 1.58333333333 37.5 7.75 c 0
 31.1666666667 13.9166666667 26.25 21.1666666667 22.75 29.5 c 0
 19.25 37.8333333333 17.5 46.8333333333 17.5 56.5 c 0
 17.5 65.8333333333 19.25 74.6666666667 22.75 83 c 0
 26.25 91.3333333333 31.1666666667 98.5833333333 37.5 104.75 c 0
 43.8333333333 110.916666667 51.0833333333 115.833333333 59.25 119.5 c 0
 67.4166666667 123.166666667 76.3333333333 125 86 125 c 0
 95.3333333333 125 104.25 123.166666667 112.75 119.5 c 0
 121.25 115.833333333 128.666666667 110.916666667 135 104.75 c 0
 141.333333333 98.5833333333 146.333333333 91.3333333333 150 83 c 0
 153.666666667 74.6666666667 155.5 65.8333333333 155.5 56.5 c 0
EndSplineSet
EndChar

StartChar: semicolon
Encoding: 30 59 30
Width: 286
VWidth: 500
Flags: HW
LayerCount: 2
Fore
SplineSet
230.5 437 m 0
 230.5 427.666666667 228.666666667 418.833333333 225 410.5 c 0
 221.333333333 402.166666667 216.333333333 394.916666667 210 388.75 c 0
 203.666666667 382.583333333 196.25 377.666666667 187.75 374 c 0
 179.25 370.333333333 170.333333333 368.5 161 368.5 c 0
 151.333333333 368.5 142.333333333 370.333333333 134 374 c 0
 125.666666667 377.666666667 118.416666667 382.583333333 112.25 388.75 c 0
 106.083333333 394.916666667 101.166666667 402.166666667 97.5 410.5 c 0
 93.8333333333 418.833333333 92 427.666666667 92 437 c 0
 92 446.333333333 93.8333333333 455.25 97.5 463.75 c 0
 101.166666667 472.25 106.083333333 479.583333333 112.25 485.75 c 0
 118.416666667 491.916666667 125.666666667 496.833333333 134 500.5 c 0
 142.333333333 504.166666667 151.333333333 506 161 506 c 0
 170.333333333 506 179.25 504.166666667 187.75 500.5 c 0
 196.25 496.833333333 203.666666667 491.916666667 210 485.75 c 0
 216.333333333 479.583333333 221.333333333 472.25 225 463.75 c 0
 228.666666667 455.25 230.5 446.333333333 230.5 437 c 0
163 49 m 0
 163 20 156.833333333 -7.5 144.5 -33.5 c 0
 132.166666667 -59.5 115.75 -82.5 95.25 -102.5 c 0
 74.75 -122.5 51.3333333333 -138.833333333 25 -151.5 c 0
 -1.33333333333 -164.166666667 -28.5 -171.666666667 -56.5 -174 c 0
 -49 -137 l 0
 -28 -132.666666667 -9.58333333333 -126.666666667 6.25 -119 c 0
 22.0833333333 -111.333333333 35.75 -101.75 47.25 -90.25 c 0
 58.75 -78.75 68.1666666667 -65 75.5 -49 c 0
 82.8333333333 -33 88.3333333333 -14.3333333333 92 7 c 0
 27.5 7 l 0
 23.8333333333 11.6666666667 21.25 17.25 19.75 23.75 c 0
 18.25 30.25 17.5 36.3333333333 17.5 42 c 0
 17.5 52 19.6666666667 61.9166666667 24 71.75 c 0
 28.3333333333 81.5833333333 34.1666666667 90.5 41.5 98.5 c 0
 48.8333333333 106.5 57.25 112.916666667 66.75 117.75 c 0
 76.25 122.583333333 86.1666666667 125 96.5 125 c 0
 108.166666667 125 118.25 123.083333333 126.75 119.25 c 0
 135.25 115.416666667 142.166666667 110.083333333 147.5 103.25 c 0
 152.833333333 96.4166666667 156.75 88.3333333333 159.25 79 c 0
 161.75 69.6666666667 163 59.6666666667 163 49 c 0
EndSplineSet
EndChar

StartChar: less
Encoding: 31 60 31
Width: 1024
VWidth: 500
Flags: HW
LayerCount: 2
Fore
SplineSet
205 275.5 m 0
 205 339 l 0
 819 574.5 l 0
 819 511 l 0
 270.5 307 l 0
 819 103.5 l 0
 819 40 l 0
 205 275.5 l 0
EndSplineSet
EndChar

StartChar: equal
Encoding: 32 61 32
Width: 1024
VWidth: 500
Flags: HW
LayerCount: 2
Fore
SplineSet
205 368.5 m 0
 205 432 l 0
 819 432 l 0
 819 368.5 l 0
 205 368.5 l 0
205 182.5 m 0
 205 246 l 0
 819 246 l 0
 819 182.5 l 0
 205 182.5 l 0
EndSplineSet
EndChar

StartChar: greater
Encoding: 33 62 33
Width: 1024
VWidth: 500
Flags: HW
LayerCount: 2
Fore
SplineSet
205 40 m 0
 205 103.5 l 0
 753.5 307 l 0
 205 511 l 0
 205 574.5 l 0
 819 339 l 0
 819 275.5 l 0
 205 40 l 0
EndSplineSet
EndChar

StartChar: question
Encoding: 34 63 34
Width: 497
VWidth: 500
Flags: HW
LayerCount: 2
Fore
SplineSet
474 556 m 0
 474 521.666666667 467.083333333 490.916666667 453.25 463.75 c 0
 439.416666667 436.583333333 421.416666667 412.416666667 399.25 391.25 c 0
 377.083333333 370.083333333 352.083333333 351.583333333 324.25 335.75 c 0
 296.416666667 319.916666667 268.5 306.333333333 240.5 295 c 0
 217 173 l 0
 148.5 173 l 0
 176 325.5 l 0
 199.333333333 332.833333333 222.166666667 343.083333333 244.5 356.25 c 0
 266.833333333 369.416666667 286.75 385.25 304.25 403.75 c 0
 321.75 422.25 335.833333333 443.416666667 346.5 467.25 c 0
 357.166666667 491.083333333 362.5 517.333333333 362.5 546 c 0
 362.5 581 353 607.5 334 625.5 c 0
 315 643.5 289 652.5 256 652.5 c 0
 193.5 551 l 0
 164 551 l 0
 146.333333333 551 132.5 554.666666667 122.5 562 c 0
 112.5 569.333333333 107.5 579.666666667 107.5 593 c 0
 107.5 603 110.416666667 614.416666667 116.25 627.25 c 0
 122.083333333 640.083333333 132 652.083333333 146 663.25 c 0
 160 674.416666667 178.416666667 683.916666667 201.25 691.75 c 0
 224.083333333 699.583333333 252.5 703.5 286.5 703.5 c 0
 316.833333333 703.5 343.666666667 700.083333333 367 693.25 c 0
 390.333333333 686.416666667 409.916666667 676.583333333 425.75 663.75 c 0
 441.583333333 650.916666667 453.583333333 635.416666667 461.75 617.25 c 0
 469.916666667 599.083333333 474 578.666666667 474 556 c 0
232.5 45 m 0
 232.5 37 231.083333333 29.3333333333 228.25 22 c 0
 225.416666667 14.6666666667 221.166666667 8.16666666667 215.5 2.5 c 0
 209.833333333 -3.16666666667 202.916666667 -7.75 194.75 -11.25 c 0
 186.583333333 -14.75 177.333333333 -16.5 167 -16.5 c 0
 156.333333333 -16.5 146.75 -14.8333333333 138.25 -11.5 c 0
 129.75 -8.16666666667 122.583333333 -3.66666666667 116.75 2 c 0
 110.916666667 7.66666666667 106.416666667 14.0833333333 103.25 21.25 c 0
 100.083333333 28.4166666667 98.5 36 98.5 44 c 0
 98.5 52 100.083333333 59.75 103.25 67.25 c 0
 106.416666667 74.75 110.916666667 81.4166666667 116.75 87.25 c 0
 122.583333333 93.0833333333 129.75 97.75 138.25 101.25 c 0
 146.75 104.75 156.333333333 106.5 167 106.5 c 0
 177.333333333 106.5 186.583333333 104.833333333 194.75 101.5 c 0
 202.916666667 98.1666666667 209.833333333 93.5833333333 215.5 87.75 c 0
 221.166666667 81.9166666667 225.416666667 75.3333333333 228.25 68 c 0
 231.083333333 60.6666666667 232.5 53 232.5 45 c 0
EndSplineSet
EndChar

StartChar: at
Encoding: 35 64 35
Width: 958
VWidth: 500
Flags: HW
LayerCount: 2
Fore
SplineSet
895 382 m 0
 895 347.333333333 891.166666667 315.25 883.5 285.75 c 0
 875.833333333 256.25 865.583333333 229.5 852.75 205.5 c 0
 839.916666667 181.5 825 160.25 808 141.75 c 0
 791 123.25 773.166666667 107.75 754.5 95.25 c 0
 735.833333333 82.75 717 73.3333333333 698 67 c 0
 679 60.6666666667 661 57.5 644 57.5 c 0
 615.666666667 57.5 595.25 64.5833333333 582.75 78.75 c 0
 570.25 92.9166666667 564 114.166666667 564 142.5 c 0
 537.333333333 115.5 512.166666667 94.75 488.5 80.25 c 0
 464.833333333 65.75 441 58.5 417 58.5 c 0
 398.333333333 58.5 381.166666667 62.4166666667 365.5 70.25 c 0
 349.833333333 78.0833333333 336.333333333 89.25 325 103.75 c 0
 313.666666667 118.25 304.833333333 135.75 298.5 156.25 c 0
 292.166666667 176.75 289 199.833333333 289 225.5 c 0
 289 264.5 296.166666667 301 310.5 335 c 0
 324.833333333 369 343.833333333 398.5 367.5 423.5 c 0
 391.166666667 448.5 418.166666667 468.166666667 448.5 482.5 c 0
 478.833333333 496.833333333 510.166666667 504 542.5 504 c 0
 549.833333333 504 557.833333333 503.333333333 566.5 502 c 0
 575.166666667 500.666666667 583.916666667 498.75 592.75 496.25 c 0
 601.583333333 493.75 610.333333333 490.75 619 487.25 c 0
 627.666666667 483.75 635.666666667 480 643 476 c 0
 661.5 499.5 l 0
 720 499.5 l 0
 719.333333333 497.5 717.833333333 491.583333333 715.5 481.75 c 0
 713.166666667 471.916666667 710.25 459.75 706.75 445.25 c 0
 703.25 430.75 699.416666667 414.416666667 695.25 396.25 c 0
 691.083333333 378.083333333 686.833333333 359.833333333 682.5 341.5 c 0
 672.5 298.166666667 661.333333333 249.5 649 195.5 c 0
 646.333333333 183.833333333 645 173.083333333 645 163.25 c 0
 645 153.416666667 646.5 145 649.5 138 c 0
 652.5 131 657.083333333 125.5 663.25 121.5 c 0
 669.416666667 117.5 677.333333333 115.5 687 115.5 c 0
 697 115.5 707.916666667 118.25 719.75 123.75 c 0
 731.583333333 129.25 743.333333333 137.333333333 755 148 c 0
 766.666666667 158.666666667 777.916666667 171.666666667 788.75 187 c 0
 799.583333333 202.333333333 809.166666667 219.833333333 817.5 239.5 c 0
 825.833333333 259.166666667 832.5 280.833333333 837.5 304.5 c 0
 842.5 328.166666667 845 353.666666667 845 381 c 0
 845 413 841.25 442.25 833.75 468.75 c 0
 826.25 495.25 815.833333333 518.916666667 802.5 539.75 c 0
 789.166666667 560.583333333 773.416666667 578.666666667 755.25 594 c 0
 737.083333333 609.333333333 717.333333333 622.083333333 696 632.25 c 0
 674.666666667 642.416666667 652.166666667 650 628.5 655 c 0
 604.833333333 660 581 662.5 557 662.5 c 0
 518 662.5 481.083333333 657.916666667 446.25 648.75 c 0
 411.416666667 639.583333333 379.25 626.583333333 349.75 609.75 c 0
 320.25 592.916666667 293.583333333 572.5 269.75 548.5 c 0
 245.916666667 524.5 225.75 497.666666667 209.25 468 c 0
 192.75 438.333333333 180 406.25 171 371.75 c 0
 162 337.25 157.5 301 157.5 263 c 0
 157.5 211 165.583333333 162.5 181.75 117.5 c 0
 197.916666667 72.5 221.333333333 33.5 252 0.5 c 0
 282.666666667 -32.5 320.166666667 -58.4166666667 364.5 -77.25 c 0
 408.833333333 -96.0833333333 459.333333333 -105.5 516 -105.5 c 0
 546 -105.5 574.083333333 -103.166666667 600.25 -98.5 c 0
 626.416666667 -93.8333333333 650.75 -87.8333333333 673.25 -80.5 c 0
 695.75 -73.1666666667 716.5 -65 735.5 -56 c 0
 754.5 -47 771.833333333 -38.1666666667 787.5 -29.5 c 0
 802 -66.5 l 0
 779 -78.8333333333 755.416666667 -90.4166666667 731.25 -101.25 c 0
 707.083333333 -112.083333333 682.25 -121.583333333 656.75 -129.75 c 0
 631.25 -137.916666667 604.75 -144.416666667 577.25 -149.25 c 0
 549.75 -154.083333333 521.166666667 -156.5 491.5 -156.5 c 0
 454.833333333 -156.5 419.416666667 -152.333333333 385.25 -144 c 0
 351.083333333 -135.666666667 318.916666667 -123.583333333 288.75 -107.75 c 0
 258.583333333 -91.9166666667 231 -72.4166666667 206 -49.25 c 0
 181 -26.0833333333 159.583333333 0.333333333333 141.75 30 c 0
 123.916666667 59.6666666667 110 92.5 100 128.5 c 0
 90 164.5 85 203.166666667 85 244.5 c 0
 85 295.166666667 91.0833333333 341.75 103.25 384.25 c 0
 115.416666667 426.75 132.166666667 465.166666667 153.5 499.5 c 0
 174.833333333 533.833333333 200.083333333 564 229.25 590 c 0
 258.416666667 616 290.083333333 637.666666667 324.25 655 c 0
 358.416666667 672.333333333 394.25 685.416666667 431.75 694.25 c 0
 469.25 703.083333333 507 707.5 545 707.5 c 0
 595.666666667 707.5 642.416666667 700.416666667 685.25 686.25 c 0
 728.083333333 672.083333333 765 651.25 796 623.75 c 0
 827 596.25 851.25 562.25 868.75 521.75 c 0
 886.25 481.25 895 434.666666667 895 382 c 0
608.5 402.5 m 0
 609.5 406.833333333 608.583333333 412.333333333 605.75 419 c 0
 602.916666667 425.666666667 598.75 432.083333333 593.25 438.25 c 0
 587.75 444.416666667 581.083333333 449.75 573.25 454.25 c 0
 565.416666667 458.75 557 461 548 461 c 0
 522.666666667 461 499.833333333 455.083333333 479.5 443.25 c 0
 459.166666667 431.416666667 441.833333333 415.25 427.5 394.75 c 0
 413.166666667 374.25 402.166666667 350.25 394.5 322.75 c 0
 386.833333333 295.25 383 265.833333333 383 234.5 c 0
 383 197.5 389.833333333 169.833333333 403.5 151.5 c 0
 417.166666667 133.166666667 437 124 463 124 c 0
 474.333333333 124 485.166666667 126.25 495.5 130.75 c 0
 505.833333333 135.25 515.416666667 140.833333333 524.25 147.5 c 0
 533.083333333 154.166666667 541.166666667 161.333333333 548.5 169 c 0
 555.833333333 176.666666667 562.166666667 183.833333333 567.5 190.5 c 0
 608.5 402.5 l 0
EndSplineSet
EndChar

StartChar: A
Encoding: 36 65 36
Width: 689
VWidth: 500
Flags: HW
LayerCount: 2
Fore
SplineSet
400.5 0 m 0
 400.5 43 l 0
 447.5 48 l 0
 462.5 50 469 56.5 467 67.5 c 0
 436 263 l 0
 204 263 l 0
 99.5 67.5 l 0
 95.8333333333 60.8333333333 95.75 56.1666666667 99.25 53.5 c 0
 102.75 50.8333333333 109.333333333 49 119 48 c 0
 166 43 l 0
 166 0 l 0
 -54.5 0 l 0
 -54.5 43 l 0
 3 49 l 0
 381 703.5 l 0
 463 703.5 l 0
 573.5 67.5 l 0
 574.5 60.8333333333 576.333333333 56.0833333333 579 53.25 c 0
 581.666666667 50.4166666667 586.666666667 48.6666666667 594 48 c 0
 641 43 l 0
 641 0 l 0
 400.5 0 l 0
383 577.5 m 0
 231.5 311.5 l 0
 427 311.5 l 0
 383 577.5 l 0
EndSplineSet
EndChar

StartChar: B
Encoding: 37 66 37
Width: 621
VWidth: 500
Flags: HW
LayerCount: 2
Fore
SplineSet
474 549 m 0
 474 581.333333333 461.75 605.083333333 437.25 620.25 c 0
 412.75 635.416666667 378.666666667 643 335 643 c 0
 324.333333333 643 314.333333333 642.666666667 305 642 c 0
 295.666666667 641.333333333 288.166666667 640.666666667 282.5 640 c 0
 232.5 380 l 0
 236.5 379.666666667 240.666666667 379.333333333 245 379 c 0
 258.5 378.5 l 0
 263.166666667 378.5 267.416666667 378.416666667 271.25 378.25 c 0
 275.083333333 378.083333333 278.166666667 378 280.5 378 c 0
 312.5 378 340.583333333 382.583333333 364.75 391.75 c 0
 388.916666667 400.916666667 409.083333333 413.25 425.25 428.75 c 0
 441.416666667 444.25 453.583333333 462.416666667 461.75 483.25 c 0
 469.916666667 504.083333333 474 526 474 549 c 0
455.5 219 m 0
 455.5 240 451.833333333 257.75 444.5 272.25 c 0
 437.166666667 286.75 426.75 298.5 413.25 307.5 c 0
 399.75 316.5 383.333333333 323 364 327 c 0
 344.666666667 331 323 333 299 333 c 0
 286.333333333 333 273.166666667 332.5 259.5 331.5 c 0
 245.833333333 330.5 233.333333333 329.166666667 222 327.5 c 0
 168 49 l 0
 172 48.6666666667 176.75 48.3333333333 182.25 48 c 0
 187.75 47.6666666667 193.416666667 47.3333333333 199.25 47 c 0
 205.083333333 46.6666666667 210.833333333 46.4166666667 216.5 46.25 c 0
 222.166666667 46.0833333333 227.166666667 46 231.5 46 c 0
 304.833333333 46 360.5 61.25 398.5 91.75 c 0
 436.5 122.25 455.5 164.666666667 455.5 219 c 0
588 556 m 0
 588 529.666666667 583.5 506.333333333 574.5 486 c 0
 565.5 465.666666667 553.25 447.916666667 537.75 432.75 c 0
 522.25 417.583333333 504.083333333 404.5 483.25 393.5 c 0
 462.416666667 382.5 440.333333333 373.166666667 417 365.5 c 0
 439.333333333 362.5 459.666666667 357.916666667 478 351.75 c 0
 496.333333333 345.583333333 512.166666667 337.166666667 525.5 326.5 c 0
 538.833333333 315.833333333 549.166666667 302.583333333 556.5 286.75 c 0
 563.833333333 270.916666667 567.5 251.833333333 567.5 229.5 c 0
 567.5 187.5 559.833333333 151.916666667 544.5 122.75 c 0
 529.166666667 93.5833333333 507.916666667 69.9166666667 480.75 51.75 c 0
 453.583333333 33.5833333333 421.583333333 20.4166666667 384.75 12.25 c 0
 347.916666667 4.08333333333 308 0 265 0 c 0
 -15.5 0 l 0
 -15.5 43 l 0
 49 48 l 0
 55.3333333333 48.6666666667 59.9166666667 50.5833333333 62.75 53.75 c 0
 65.5833333333 56.9166666667 67.5 61.5 68.5 67.5 c 0
 175 618.5 l 0
 176 624.166666667 175.166666667 628.833333333 172.5 632.5 c 0
 169.833333333 636.166666667 163.833333333 638.333333333 154.5 639 c 0
 97.5 644 l 0
 97.5 687 l 0
 385 687 l 0
 422 687 453.416666667 683.916666667 479.25 677.75 c 0
 505.083333333 671.583333333 526.083333333 662.75 542.25 651.25 c 0
 558.416666667 639.75 570.083333333 625.916666667 577.25 609.75 c 0
 584.416666667 593.583333333 588 575.666666667 588 556 c 0
EndSplineSet
EndChar

StartChar: C
Encoding: 38 67 38
Width: 645
VWidth: 500
Flags: HW
LayerCount: 2
Fore
SplineSet
632 503 m 0
 571.5 503 l 0
 571.5 598 l 0
 571.5 603.333333333 569.583333333 608.833333333 565.75 614.5 c 0
 561.916666667 620.166666667 557.666666667 623.833333333 553 625.5 c 0
 551.666666667 626.166666667 548.666666667 627.916666667 544 630.75 c 0
 539.333333333 633.583333333 533.25 636.5 525.75 639.5 c 0
 518.25 642.5 509.5 645.25 499.5 647.75 c 0
 489.5 650.25 478.333333333 651.5 466 651.5 c 0
 439.666666667 651.5 413.833333333 647.333333333 388.5 639 c 0
 363.166666667 630.666666667 339.083333333 618.666666667 316.25 603 c 0
 293.416666667 587.333333333 272.333333333 568.166666667 253 545.5 c 0
 233.666666667 522.833333333 216.916666667 497.083333333 202.75 468.25 c 0
 188.583333333 439.416666667 177.5 407.666666667 169.5 373 c 0
 161.5 338.333333333 157.5 301.333333333 157.5 262 c 0
 157.5 223.333333333 163.083333333 189.833333333 174.25 161.5 c 0
 185.416666667 133.166666667 200.5 109.666666667 219.5 91 c 0
 238.5 72.3333333333 260.75 58.5 286.25 49.5 c 0
 311.75 40.5 338.833333333 36 367.5 36 c 0
 378.5 36 388.5 36.75 397.5 38.25 c 0
 406.5 39.75 414.25 41.5 420.75 43.5 c 0
 427.25 45.5 432.5 47.4166666667 436.5 49.25 c 0
 440.5 51.0833333333 443.166666667 52.3333333333 444.5 53 c 0
 448.5 53.6666666667 452.916666667 56.0833333333 457.75 60.25 c 0
 462.583333333 64.4166666667 466 68.8333333333 468 73.5 c 0
 512 190.5 l 0
 572.5 190.5 l 0
 545 24.5 l 0
 541 23.1666666667 532.416666667 20.3333333333 519.25 16 c 0
 506.083333333 11.6666666667 489.916666667 7.08333333333 470.75 2.25 c 0
 451.583333333 -2.58333333333 430.166666667 -6.91666666667 406.5 -10.75 c 0
 382.833333333 -14.5833333333 358.666666667 -16.5 334 -16.5 c 0
 300 -16.5 269.333333333 -12.6666666667 242 -5 c 0
 214.666666667 2.66666666667 190.5 13.1666666667 169.5 26.5 c 0
 148.5 39.8333333333 130.333333333 55.6666666667 115 74 c 0
 99.6666666667 92.3333333333 87.1666666667 112.25 77.5 133.75 c 0
 67.8333333333 155.25 60.6666666667 177.833333333 56 201.5 c 0
 51.3333333333 225.166666667 49 249.166666667 49 273.5 c 0
 49 309.833333333 53.5 345.666666667 62.5 381 c 0
 71.5 416.333333333 84.5 449.916666667 101.5 481.75 c 0
 118.5 513.583333333 139.166666667 543.083333333 163.5 570.25 c 0
 187.833333333 597.416666667 215.25 620.833333333 245.75 640.5 c 0
 276.25 660.166666667 309.583333333 675.583333333 345.75 686.75 c 0
 381.916666667 697.916666667 420.333333333 703.5 461 703.5 c 0
 477.666666667 703.5 493.666666667 702.583333333 509 700.75 c 0
 524.333333333 698.916666667 539.833333333 696.25 555.5 692.75 c 0
 571.166666667 689.25 587.5 684.916666667 604.5 679.75 c 0
 621.5 674.583333333 639.833333333 668.833333333 659.5 662.5 c 0
 632 503 l 0
EndSplineSet
EndChar

StartChar: D
Encoding: 39 68 39
Width: 687
VWidth: 500
Flags: HW
LayerCount: 2
Fore
SplineSet
668.5 425 m 0
 668.5 383 663.666666667 343.333333333 654 306 c 0
 644.333333333 268.666666667 630.333333333 234.25 612 202.75 c 0
 593.666666667 171.25 571.416666667 143 545.25 118 c 0
 519.083333333 93 489.583333333 71.75 456.75 54.25 c 0
 423.916666667 36.75 388.083333333 23.3333333333 349.25 14 c 0
 310.416666667 4.66666666667 269.166666667 0 225.5 0 c 0
 -15.5 0 l 0
 -15.5 43 l 0
 48 48 l 0
 54.6666666667 48.6666666667 59.3333333333 50.5833333333 62 53.75 c 0
 64.6666666667 56.9166666667 66.8333333333 61.5 68.5 67.5 c 0
 175 618.5 l 0
 176 624.166666667 175.166666667 628.833333333 172.5 632.5 c 0
 169.833333333 636.166666667 163.833333333 638.333333333 154.5 639 c 0
 97.5 644 l 0
 97.5 687 l 0
 342 687 l 0
 388.666666667 687 431.916666667 682.5 471.75 673.5 c 0
 511.583333333 664.5 546.083333333 649.666666667 575.25 629 c 0
 604.416666667 608.333333333 627.25 581.333333333 643.75 548 c 0
 660.25 514.666666667 668.5 473.666666667 668.5 425 c 0
558 434 m 0
 558 476.666666667 551.5 511 538.5 537 c 0
 525.5 563 508 583.166666667 486 597.5 c 0
 464 611.833333333 438.5 621.583333333 409.5 626.75 c 0
 380.5 631.916666667 350.166666667 635 318.5 636 c 0
 281.5 636 l 0
 169 53 l 0
 243.5 53 l 0
 295.166666667 53.6666666667 340.666666667 64.75 380 86.25 c 0
 419.333333333 107.75 452.166666667 136.166666667 478.5 171.5 c 0
 504.833333333 206.833333333 524.666666667 247.25 538 292.75 c 0
 551.333333333 338.25 558 385.333333333 558 434 c 0
EndSplineSet
EndChar

StartChar: E
Encoding: 40 69 40
Width: 571
VWidth: 500
Flags: HW
LayerCount: 2
Fore
SplineSet
563 533.5 m 0
 497.5 533.5 l 0
 497.5 616.5 l 0
 497.5 623.833333333 496.166666667 628.916666667 493.5 631.75 c 0
 490.833333333 634.583333333 485.666666667 636 478 636 c 0
 281.5 636 l 0
 234.5 384 l 0
 371.5 384 l 0
 378.833333333 384 384.416666667 385.416666667 388.25 388.25 c 0
 392.083333333 391.083333333 395.166666667 396.166666667 397.5 403.5 c 0
 417 472 l 0
 474 472 l 0
 429 237.5 l 0
 370.5 237.5 l 0
 381 310.5 l 0
 383 324.166666667 376.5 331 361.5 331 c 0
 223 331 l 0
 170 51 l 0
 410.5 51 l 0
 417.833333333 51 423.416666667 52.9166666667 427.25 56.75 c 0
 431.083333333 60.5833333333 434 65.5 436 71.5 c 0
 468 170 l 0
 530.5 170 l 0
 496.5 0 l 0
 -15.5 0 l 0
 -15.5 43 l 0
 44 48 l 0
 58.3333333333 49 66.5 55.5 68.5 67.5 c 0
 175 618.5 l 0
 176 624.166666667 175.166666667 628.833333333 172.5 632.5 c 0
 169.833333333 636.166666667 164.166666667 638.333333333 155.5 639 c 0
 98.5 644 l 0
 98.5 687 l 0
 594 687 l 0
 563 533.5 l 0
EndSplineSet
EndChar

StartChar: F
Encoding: 41 70 41
Width: 526
VWidth: 500
Flags: HW
LayerCount: 2
Fore
SplineSet
551 522 m 0
 485.5 522 l 0
 485.5 616.5 l 0
 485.5 623.833333333 484 628.916666667 481 631.75 c 0
 478 634.583333333 472.666666667 636 465 636 c 0
 281.5 636 l 0
 231.5 372.5 l 0
 362.5 372.5 l 0
 369.833333333 372.5 375.333333333 374 379 377 c 0
 382.666666667 380 385.333333333 385 387 392 c 0
 406.5 462 l 0
 465 462 l 0
 420 228.5 l 0
 361.5 228.5 l 0
 371.5 300 l 0
 372.833333333 306.666666667 371.583333333 311.75 367.75 315.25 c 0
 363.916666667 318.75 358.333333333 320.5 351 320.5 c 0
 221 320.5 l 0
 172 67.5 l 0
 171 62.5 171.833333333 58.1666666667 174.5 54.5 c 0
 177.166666667 50.8333333333 182.833333333 48.6666666667 191.5 48 c 0
 258 43 l 0
 258 0 l 0
 -15.5 0 l 0
 -15.5 43 l 0
 43 48 l 0
 57 49 65.5 55.5 68.5 67.5 c 0
 175 618.5 l 0
 176 624.166666667 175.166666667 628.833333333 172.5 632.5 c 0
 169.833333333 636.166666667 163.833333333 638.333333333 154.5 639 c 0
 97.5 644 l 0
 97.5 687 l 0
 582.5 687 l 0
 551 522 l 0
EndSplineSet
EndChar

StartChar: G
Encoding: 42 71 42
Width: 704
VWidth: 500
Flags: HW
LayerCount: 2
Fore
SplineSet
633 283.5 m 0
 626.333333333 282.833333333 620.75 281.083333333 616.25 278.25 c 0
 611.75 275.416666667 608.666666667 270.666666667 607 264 c 0
 561 23.5 l 0
 557.666666667 22.5 551.833333333 20.9166666667 543.5 18.75 c 0
 535.166666667 16.5833333333 525.166666667 14 513.5 11 c 0
 501.833333333 8 488.916666667 4.91666666667 474.75 1.75 c 0
 460.583333333 -1.41666666667 445.833333333 -4.41666666667 430.5 -7.25 c 0
 415.166666667 -10.0833333333 399.75 -12.3333333333 384.25 -14 c 0
 368.75 -15.6666666667 354 -16.5 340 -16.5 c 0
 301 -16.5 266.75 -12 237.25 -3 c 0
 207.75 6 182.25 18.0833333333 160.75 33.25 c 0
 139.25 48.4166666667 121.333333333 65.9166666667 107 85.75 c 0
 92.6666666667 105.583333333 81.1666666667 126.333333333 72.5 148 c 0
 63.8333333333 169.666666667 57.75 191.333333333 54.25 213 c 0
 50.75 234.666666667 49 255.166666667 49 274.5 c 0
 49 318.166666667 54.8333333333 359.083333333 66.5 397.25 c 0
 78.1666666667 435.416666667 94.25 470.416666667 114.75 502.25 c 0
 135.25 534.083333333 159.416666667 562.416666667 187.25 587.25 c 0
 215.083333333 612.083333333 245.416666667 633.166666667 278.25 650.5 c 0
 311.083333333 667.833333333 345.5 681 381.5 690 c 0
 417.5 699 453.833333333 703.5 490.5 703.5 c 0
 507.166666667 703.5 522.75 702.833333333 537.25 701.5 c 0
 551.75 700.166666667 566.333333333 698.083333333 581 695.25 c 0
 595.666666667 692.416666667 611.083333333 688.75 627.25 684.25 c 0
 643.416666667 679.75 661.333333333 674.5 681 668.5 c 0
 649 504 l 0
 579.5 504 l 0
 582.5 598 l 0
 583.166666667 605.666666667 581.666666667 611.916666667 578 616.75 c 0
 574.333333333 621.583333333 569.333333333 624.833333333 563 626.5 c 0
 561.666666667 626.833333333 558.833333333 628.166666667 554.5 630.5 c 0
 550.166666667 632.833333333 544.416666667 635.333333333 537.25 638 c 0
 530.083333333 640.666666667 521.5 643 511.5 645 c 0
 501.5 647 490.333333333 648 478 648 c 0
 452.333333333 648 426.75 643.833333333 401.25 635.5 c 0
 375.75 627.166666667 351.25 615.166666667 327.75 599.5 c 0
 304.25 583.833333333 282.416666667 564.583333333 262.25 541.75 c 0
 242.083333333 518.916666667 224.583333333 493.083333333 209.75 464.25 c 0
 194.916666667 435.416666667 183.25 403.666666667 174.75 369 c 0
 166.25 334.333333333 162 297.333333333 162 258 c 0
 162 230.333333333 165.166666667 205.75 171.5 184.25 c 0
 177.833333333 162.75 186.333333333 143.833333333 197 127.5 c 0
 207.666666667 111.166666667 219.833333333 97.3333333333 233.5 86 c 0
 247.166666667 74.6666666667 261.333333333 65.4166666667 276 58.25 c 0
 290.666666667 51.0833333333 305.333333333 45.9166666667 320 42.75 c 0
 334.666666667 39.5833333333 348.166666667 38 360.5 38 c 0
 370.833333333 38 381.25 38.6666666667 391.75 40 c 0
 402.25 41.3333333333 412.166666667 43 421.5 45 c 0
 430.833333333 47 439.25 49 446.75 51 c 0
 454.25 53 460 54.5 464 55.5 c 0
 504 264 l 0
 505 269.666666667 504.166666667 274.166666667 501.5 277.5 c 0
 498.833333333 280.833333333 492.833333333 282.833333333 483.5 283.5 c 0
 427 289 l 0
 427 332 l 0
 691 332 l 0
 691 289 l 0
 633 283.5 l 0
EndSplineSet
EndChar

StartChar: H
Encoding: 43 72 43
Width: 742
VWidth: 500
Flags: HW
LayerCount: 2
Fore
SplineSet
726 639 m 0
 719.666666667 638.333333333 714.416666667 636.416666667 710.25 633.25 c 0
 706.083333333 630.083333333 703.166666667 625.166666667 701.5 618.5 c 0
 595 67.5 l 0
 594 62.5 594.833333333 58.1666666667 597.5 54.5 c 0
 600.166666667 50.8333333333 606.166666667 48.6666666667 615.5 48 c 0
 673 43 l 0
 673 0 l 0
 405.5 0 l 0
 405.5 43 l 0
 467 48 l 0
 473 48.6666666667 478.333333333 50.5833333333 483 53.75 c 0
 487.666666667 56.9166666667 490.5 61.5 491.5 67.5 c 0
 542.5 334 l 0
 223 334 l 0
 172 67.5 l 0
 171 62.5 171.833333333 58.1666666667 174.5 54.5 c 0
 177.166666667 50.8333333333 182.833333333 48.6666666667 191.5 48 c 0
 251 43 l 0
 251 0 l 0
 -15.5 0 l 0
 -15.5 43 l 0
 43 48 l 0
 57 49 65.5 55.5 68.5 67.5 c 0
 175 618.5 l 0
 176 624.166666667 175.166666667 628.833333333 172.5 632.5 c 0
 169.833333333 636.166666667 163.833333333 638.333333333 154.5 639 c 0
 97.5 644 l 0
 97.5 687 l 0
 363.5 687 l 0
 363.5 644 l 0
 303 639 l 0
 297 638.333333333 291.666666667 636.416666667 287 633.25 c 0
 282.333333333 630.083333333 279.5 625.166666667 278.5 618.5 c 0
 233.5 385 l 0
 553 385 l 0
 598 618.5 l 0
 599 624.166666667 598.166666667 628.833333333 595.5 632.5 c 0
 592.833333333 636.166666667 586.833333333 638.333333333 577.5 639 c 0
 519 644 l 0
 519 687 l 0
 785.5 687 l 0
 785.5 644 l 0
 726 639 l 0
EndSplineSet
EndChar

StartChar: I
Encoding: 44 73 44
Width: 321
VWidth: 500
Flags: HW
LayerCount: 2
Fore
SplineSet
299 639 m 0
 292.333333333 638.333333333 287.666666667 636.416666667 285 633.25 c 0
 282.333333333 630.083333333 280.166666667 625.166666667 278.5 618.5 c 0
 172 67.5 l 0
 171 62.5 171.833333333 58.1666666667 174.5 54.5 c 0
 177.166666667 50.8333333333 183.166666667 48.6666666667 192.5 48 c 0
 252 43 l 0
 252 0 l 0
 -15.5 0 l 0
 -15.5 43 l 0
 49 48 l 0
 55.3333333333 48.6666666667 59.9166666667 50.5833333333 62.75 53.75 c 0
 65.5833333333 56.9166666667 67.5 61.5 68.5 67.5 c 0
 175 618.5 l 0
 176 624.166666667 175.166666667 628.833333333 172.5 632.5 c 0
 169.833333333 636.166666667 164.166666667 638.333333333 155.5 639 c 0
 98.5 644 l 0
 98.5 687 l 0
 364.5 687 l 0
 364.5 644 l 0
 299 639 l 0
EndSplineSet
EndChar

StartChar: J
Encoding: 45 74 45
Width: 479
VWidth: 500
Flags: HW
LayerCount: 2
Fore
SplineSet
461 639 m 0
 447 638 438.333333333 631.166666667 435 618.5 c 0
 369.5 262 l 0
 361.833333333 219.666666667 352.5 181.333333333 341.5 147 c 0
 330.5 112.666666667 315.5 83.4166666667 296.5 59.25 c 0
 277.5 35.0833333333 253.416666667 16.4166666667 224.25 3.25 c 0
 195.083333333 -9.91666666667 158.5 -16.5 114.5 -16.5 c 0
 94.5 -16.5 76.6666666667 -15.1666666667 61 -12.5 c 0
 45.3333333333 -9.83333333333 31.9166666667 -6.75 20.75 -3.25 c 0
 9.58333333333 0.25 0.583333333333 3.75 -6.25 7.25 c 0
 -13.0833333333 10.75 -17.8333333333 13.1666666667 -20.5 14.5 c 0
 13.5 189.5 l 0
 81 189.5 l 0
 81 64.5 l 0
 81 55.8333333333 85.1666666667 49.0833333333 93.5 44.25 c 0
 101.833333333 39.4166666667 111.333333333 37 122 37 c 0
 143.666666667 37 162.166666667 41.8333333333 177.5 51.5 c 0
 192.833333333 61.1666666667 205.833333333 75.1666666667 216.5 93.5 c 0
 227.166666667 111.833333333 236.25 134.416666667 243.75 161.25 c 0
 251.25 188.083333333 258 218.666666667 264 253 c 0
 332 618.5 l 0
 333 624.166666667 332.166666667 628.833333333 329.5 632.5 c 0
 326.833333333 636.166666667 321.166666667 638.333333333 312.5 639 c 0
 253 644 l 0
 253 687 l 0
 519 687 l 0
 519 644 l 0
 461 639 l 0
EndSplineSet
EndChar

StartChar: K
Encoding: 46 75 46
Width: 671
VWidth: 500
Flags: HW
LayerCount: 2
Fore
SplineSet
622.5 636 m 0
 354.5 377 l 0
 496.5 101.5 l 0
 502.833333333 88.8333333333 508.916666667 78.5833333333 514.75 70.75 c 0
 520.583333333 62.9166666667 526.666666667 56.75 533 52.25 c 0
 539.333333333 47.75 546.083333333 44.75 553.25 43.25 c 0
 560.416666667 41.75 568.5 41 577.5 41 c 0
 583.833333333 41 590.5 41.1666666667 597.5 41.5 c 0
 604.5 41.8333333333 612.166666667 42.3333333333 620.5 43 c 0
 620.5 0 l 0
 604.5 -4.66666666667 587.833333333 -8.58333333333 570.5 -11.75 c 0
 553.166666667 -14.9166666667 537.833333333 -16.5 524.5 -16.5 c 0
 509.5 -16.5 496.416666667 -15.3333333333 485.25 -13 c 0
 474.083333333 -10.6666666667 463.833333333 -6.58333333333 454.5 -0.75 c 0
 445.166666667 5.08333333333 436.666666667 12.8333333333 429 22.5 c 0
 421.333333333 32.1666666667 413.5 44.5 405.5 59.5 c 0
 279.5 302 l 0
 217 302 l 0
 171 67.5 l 0
 170 62.5 171 58.1666666667 174 54.5 c 0
 177 50.8333333333 182.833333333 48.6666666667 191.5 48 c 0
 251 43 l 0
 251 0 l 0
 -16.5 0 l 0
 -16.5 43 l 0
 43 48 l 0
 57.3333333333 49 65.5 55.5 67.5 67.5 c 0
 175 618.5 l 0
 176 624.166666667 175.166666667 628.833333333 172.5 632.5 c 0
 169.833333333 636.166666667 164.166666667 638.333333333 155.5 639 c 0
 98.5 644 l 0
 98.5 687 l 0
 364.5 687 l 0
 364.5 644 l 0
 304 639 l 0
 297.333333333 638.333333333 291.833333333 636.416666667 287.5 633.25 c 0
 283.166666667 630.083333333 280.166666667 625.166666667 278.5 618.5 c 0
 226.5 350 l 0
 243.5 350 l 0
 516 618.5 l 0
 520.333333333 622.5 522.083333333 626.75 521.25 631.25 c 0
 520.416666667 635.75 516.333333333 638.333333333 509 639 c 0
 443.5 644 l 0
 443.5 687 l 0
 708.5 687 l 0
 708.5 644 l 0
 622.5 636 l 0
EndSplineSet
EndChar

StartChar: L
Encoding: 47 76 47
Width: 530
VWidth: 500
Flags: HW
LayerCount: 2
Fore
SplineSet
457.5 0 m 0
 -15.5 0 l 0
 -15.5 43 l 0
 44 48 l 0
 58.3333333333 49 66.5 55.5 68.5 67.5 c 0
 175 618.5 l 0
 176 624.166666667 175.166666667 628.833333333 172.5 632.5 c 0
 169.833333333 636.166666667 164.166666667 638.333333333 155.5 639 c 0
 98.5 644 l 0
 98.5 687 l 0
 364.5 687 l 0
 364.5 644 l 0
 304 639 l 0
 296.333333333 638.333333333 290.416666667 636 286.25 632 c 0
 282.083333333 628 279.5 623.5 278.5 618.5 c 0
 170 51 l 0
 371.5 51 l 0
 378.166666667 51 383.583333333 52.9166666667 387.75 56.75 c 0
 391.916666667 60.5833333333 395.166666667 65.5 397.5 71.5 c 0
 434 189.5 l 0
 494.5 189.5 l 0
 457.5 0 l 0
EndSplineSet
EndChar

StartChar: M
Encoding: 48 77 48
Width: 882
VWidth: 500
Flags: HW
LayerCount: 2
Fore
SplineSet
866.5 639 m 0
 852.5 638 843.833333333 631.166666667 840.5 618.5 c 0
 735 67.5 l 0
 734 62.5 734.916666667 58.1666666667 737.75 54.5 c 0
 740.583333333 50.8333333333 746.5 48.6666666667 755.5 48 c 0
 813 43 l 0
 813 0 l 0
 547 0 l 0
 547 43 l 0
 607 48 l 0
 613.333333333 48.6666666667 618.833333333 50.5833333333 623.5 53.75 c 0
 628.166666667 56.9166666667 631 61.5 632 67.5 c 0
 731 587 l 0
 402.5 0 l 0
 341 0 l 0
 238.5 581.5 l 0
 143.5 67.5 l 0
 142.5 62.5 143.333333333 58.1666666667 146 54.5 c 0
 148.666666667 50.8333333333 154.333333333 48.6666666667 163 48 c 0
 220 43 l 0
 220 0 l 0
 -14.5 0 l 0
 -14.5 43 l 0
 44 48 l 0
 58 49 66.5 55.5 69.5 67.5 c 0
 175 618.5 l 0
 176 624.166666667 175.166666667 628.833333333 172.5 632.5 c 0
 169.833333333 636.166666667 163.833333333 638.333333333 154.5 639 c 0
 97.5 644 l 0
 97.5 687 l 0
 326.5 687 l 0
 326.5 658.5 l 0
 414.5 163 l 0
 688 653.5 l 0
 688 687 l 0
 924.5 687 l 0
 924.5 644 l 0
 866.5 639 l 0
EndSplineSet
EndChar

StartChar: N
Encoding: 49 78 49
Width: 728
VWidth: 500
Flags: HW
LayerCount: 2
Fore
SplineSet
715 639 m 0
 708.333333333 638.333333333 702.75 636.416666667 698.25 633.25 c 0
 693.75 630.083333333 690.666666667 625.166666667 689 618.5 c 0
 568.5 0 l 0
 494.5 0 l 0
 236.5 543.5 l 0
 145.5 67.5 l 0
 144.5 62.5 145.333333333 58.1666666667 148 54.5 c 0
 150.666666667 50.8333333333 156.666666667 48.6666666667 166 48 c 0
 223 43 l 0
 223 0 l 0
 -14.5 0 l 0
 -14.5 43 l 0
 44 48 l 0
 58 49 66.5 55.5 69.5 67.5 c 0
 175 618.5 l 0
 176 624.166666667 175.166666667 628.833333333 172.5 632.5 c 0
 169.833333333 636.166666667 164.166666667 638.333333333 155.5 639 c 0
 98.5 644 l 0
 98.5 687 l 0
 296 687 l 0
 296 660.5 l 0
 526.5 172 l 0
 613.5 618.5 l 0
 614.5 624.166666667 613.666666667 628.833333333 611 632.5 c 0
 608.333333333 636.166666667 602.666666667 638.333333333 594 639 c 0
 535.5 644 l 0
 535.5 687 l 0
 773 687 l 0
 773 644 l 0
 715 639 l 0
EndSplineSet
EndChar

StartChar: O
Encoding: 50 79 50
Width: 727
VWidth: 500
Flags: HW
LayerCount: 2
Fore
SplineSet
707.5 427 m 0
 707.5 391 703.666666667 355.083333333 696 319.25 c 0
 688.333333333 283.416666667 677.166666667 249 662.5 216 c 0
 647.833333333 183 629.666666667 152.416666667 608 124.25 c 0
 586.333333333 96.0833333333 561.416666667 71.5 533.25 50.5 c 0
 505.083333333 29.5 473.75 13.0833333333 439.25 1.25 c 0
 404.75 -10.5833333333 367.5 -16.5 327.5 -16.5 c 0
 286.5 -16.5 249 -9.75 215 3.75 c 0
 181 17.25 151.666666667 36.5 127 61.5 c 0
 102.333333333 86.5 83.1666666667 116.5 69.5 151.5 c 0
 55.8333333333 186.5 49 225.5 49 268.5 c 0
 49 305.166666667 53.1666666667 341.333333333 61.5 377 c 0
 69.8333333333 412.666666667 81.9166666667 446.666666667 97.75 479 c 0
 113.583333333 511.333333333 132.75 541.166666667 155.25 568.5 c 0
 177.75 595.833333333 203.083333333 619.5 231.25 639.5 c 0
 259.416666667 659.5 290.25 675.166666667 323.75 686.5 c 0
 357.25 697.833333333 392.666666667 703.5 430 703.5 c 0
 472.333333333 703.5 510.666666667 696.25 545 681.75 c 0
 579.333333333 667.25 608.5 647.5 632.5 622.5 c 0
 656.5 597.5 675 568.166666667 688 534.5 c 0
 701 500.833333333 707.5 465 707.5 427 c 0
591 427 m 0
 591 461 586.75 491.833333333 578.25 519.5 c 0
 569.75 547.166666667 557.916666667 570.916666667 542.75 590.75 c 0
 527.583333333 610.583333333 509.583333333 625.833333333 488.75 636.5 c 0
 467.916666667 647.166666667 445.333333333 652.5 421 652.5 c 0
 396 652.5 372.333333333 647 350 636 c 0
 327.666666667 625 307 610 288 591 c 0
 269 572 251.916666667 549.75 236.75 524.25 c 0
 221.583333333 498.75 208.666666667 471.5 198 442.5 c 0
 187.333333333 413.5 179.166666667 383.416666667 173.5 352.25 c 0
 167.833333333 321.083333333 165 290.333333333 165 260 c 0
 165 225.333333333 169.416666667 194.25 178.25 166.75 c 0
 187.083333333 139.25 199.083333333 115.916666667 214.25 96.75 c 0
 229.416666667 77.5833333333 247.333333333 62.8333333333 268 52.5 c 0
 288.666666667 42.1666666667 311 37 335 37 c 0
 360 37 383.666666667 42.5833333333 406 53.75 c 0
 428.333333333 64.9166666667 449 80.1666666667 468 99.5 c 0
 487 118.833333333 504.083333333 141.25 519.25 166.75 c 0
 534.416666667 192.25 547.333333333 219.5 558 248.5 c 0
 568.666666667 277.5 576.833333333 307.25 582.5 337.75 c 0
 588.166666667 368.25 591 398 591 427 c 0
EndSplineSet
EndChar

StartChar: P
Encoding: 51 80 51
Width: 579
VWidth: 500
Flags: HW
LayerCount: 2
Fore
SplineSet
584.5 523.5 m 0
 584.5 482.166666667 576.666666667 445 561 412 c 0
 545.333333333 379 523.583333333 350.916666667 495.75 327.75 c 0
 467.916666667 304.583333333 434.916666667 286.833333333 396.75 274.5 c 0
 358.583333333 262.166666667 317.166666667 256 272.5 256 c 0
 267.166666667 256 260.833333333 256.083333333 253.5 256.25 c 0
 246.166666667 256.416666667 239.166666667 256.666666667 232.5 257 c 0
 224.5 257.333333333 216.333333333 257.666666667 208 258 c 0
 170 67.5 l 0
 169 62.5 169.833333333 58.1666666667 172.5 54.5 c 0
 175.166666667 50.8333333333 181.166666667 48.6666666667 190.5 48 c 0
 249 43 l 0
 249 0 l 0
 -17.5 0 l 0
 -17.5 43 l 0
 42 48 l 0
 55.3333333333 49 63.5 55.5 66.5 67.5 c 0
 174 618.5 l 0
 175 624.166666667 174.166666667 628.833333333 171.5 632.5 c 0
 168.833333333 636.166666667 162.833333333 638.333333333 153.5 639 c 0
 96.5 644 l 0
 96.5 687 l 0
 351 687 l 0
 393 687 428.75 682.916666667 458.25 674.75 c 0
 487.75 666.583333333 511.916666667 655.25 530.75 640.75 c 0
 549.583333333 626.25 563.25 609 571.75 589 c 0
 580.25 569 584.5 547.166666667 584.5 523.5 c 0
478 506 m 0
 478 525.666666667 475.25 543.666666667 469.75 560 c 0
 464.25 576.333333333 455.25 590.333333333 442.75 602 c 0
 430.25 613.666666667 413.916666667 622.75 393.75 629.25 c 0
 373.583333333 635.75 348.833333333 639 319.5 639 c 0
 313.166666667 639 306.416666667 638.833333333 299.25 638.5 c 0
 292.083333333 638.166666667 285.833333333 637.666666667 280.5 637 c 0
 217 311.5 l 0
 232 310.166666667 247.083333333 309.75 262.25 310.25 c 0
 277.416666667 310.75 292.333333333 312.25 307 314.75 c 0
 321.666666667 317.25 335.833333333 320.916666667 349.5 325.75 c 0
 363.166666667 330.583333333 376 336.666666667 388 344 c 0
 401 351.666666667 413 360.666666667 424 371 c 0
 435 381.333333333 444.5 393.166666667 452.5 406.5 c 0
 460.5 419.833333333 466.75 434.75 471.25 451.25 c 0
 475.75 467.75 478 486 478 506 c 0
EndSplineSet
EndChar

StartChar: Q
Encoding: 52 81 52
Width: 727
VWidth: 500
Flags: HW
LayerCount: 2
Fore
SplineSet
739.5 -113.5 m 0
 735.5 -115.5 727.666666667 -119.333333333 716 -125 c 0
 704.333333333 -130.666666667 690.333333333 -136.333333333 674 -142 c 0
 657.666666667 -147.666666667 640.166666667 -152.75 621.5 -157.25 c 0
 602.833333333 -161.75 584.5 -164 566.5 -164 c 0
 540.166666667 -164 517.166666667 -160.166666667 497.5 -152.5 c 0
 477.833333333 -144.833333333 460.583333333 -134.166666667 445.75 -120.5 c 0
 430.916666667 -106.833333333 417.916666667 -90.8333333333 406.75 -72.5 c 0
 395.583333333 -54.1666666667 385.333333333 -34.1666666667 376 -12.5 c 0
 368.333333333 -13.1666666667 359.916666667 -14 350.75 -15 c 0
 341.583333333 -16 332.833333333 -16.5 324.5 -16.5 c 0
 286.833333333 -16.5 251.166666667 -10.25 217.5 2.25 c 0
 183.833333333 14.75 154.416666667 33 129.25 57 c 0
 104.083333333 81 84.0833333333 110.5 69.25 145.5 c 0
 54.4166666667 180.5 47 220.333333333 47 265 c 0
 47 300.333333333 51.25 335.666666667 59.75 371 c 0
 68.25 406.333333333 80.4166666667 440.25 96.25 472.75 c 0
 112.083333333 505.25 131.333333333 535.583333333 154 563.75 c 0
 176.666666667 591.916666667 202.166666667 616.333333333 230.5 637 c 0
 258.833333333 657.666666667 289.916666667 673.916666667 323.75 685.75 c 0
 357.583333333 697.583333333 393.333333333 703.5 431 703.5 c 0
 472.666666667 703.5 510.5 696.5 544.5 682.5 c 0
 578.5 668.5 607.5 649.166666667 631.5 624.5 c 0
 655.5 599.833333333 674 570.666666667 687 537 c 0
 700 503.333333333 706.5 467 706.5 428 c 0
 706.5 409.666666667 705.333333333 389.333333333 703 367 c 0
 700.666666667 344.666666667 696.5 321.416666667 690.5 297.25 c 0
 684.5 273.083333333 676.166666667 248.5 665.5 223.5 c 0
 654.833333333 198.5 641.166666667 173.916666667 624.5 149.75 c 0
 607.833333333 125.583333333 587.833333333 102.5 564.5 80.5 c 0
 541.166666667 58.5 513.833333333 38.5 482.5 20.5 c 0
 492.833333333 1.5 502.666666667 -15.6666666667 512 -31 c 0
 521.333333333 -46.3333333333 531.333333333 -59.5 542 -70.5 c 0
 552.666666667 -81.5 564.333333333 -89.9166666667 577 -95.75 c 0
 589.666666667 -101.583333333 604.5 -104.5 621.5 -104.5 c 0
 631.5 -104.5 641.75 -103.416666667 652.25 -101.25 c 0
 662.75 -99.0833333333 673.166666667 -96.3333333333 683.5 -93 c 0
 693.833333333 -89.6666666667 703.75 -86 713.25 -82 c 0
 722.75 -78 731.5 -74.1666666667 739.5 -70.5 c 0
 739.5 -113.5 l 0
591 428 m 0
 591 460.333333333 587 490.166666667 579 517.5 c 0
 571 544.833333333 559.75 568.416666667 545.25 588.25 c 0
 530.75 608.083333333 513.416666667 623.583333333 493.25 634.75 c 0
 473.083333333 645.916666667 450.666666667 651.5 426 651.5 c 0
 400.666666667 651.5 376.5 646.25 353.5 635.75 c 0
 330.5 625.25 309.25 610.833333333 289.75 592.5 c 0
 270.25 574.166666667 252.583333333 552.5 236.75 527.5 c 0
 220.916666667 502.5 207.5 475.5 196.5 446.5 c 0
 185.5 417.5 177 387.166666667 171 355.5 c 0
 165 323.833333333 162 292 162 260 c 0
 162 228 166 198.416666667 174 171.25 c 0
 182 144.083333333 193.416666667 120.666666667 208.25 101 c 0
 223.083333333 81.3333333333 241.083333333 65.9166666667 262.25 54.75 c 0
 283.416666667 43.5833333333 307.333333333 38 334 38 c 0
 358.333333333 38 381.583333333 43.5 403.75 54.5 c 0
 425.916666667 65.5 446.583333333 80.5 465.75 99.5 c 0
 484.916666667 118.5 502.166666667 140.75 517.5 166.25 c 0
 532.833333333 191.75 546 218.916666667 557 247.75 c 0
 568 276.583333333 576.416666667 306.416666667 582.25 337.25 c 0
 588.083333333 368.083333333 591 398.333333333 591 428 c 0
EndSplineSet
EndChar

StartChar: R
Encoding: 53 82 53
Width: 656
VWidth: 500
Flags: HW
LayerCount: 2
Fore
SplineSet
630 0 m 0
 616 -6.33333333333 602.916666667 -10.6666666667 590.75 -13 c 0
 578.583333333 -15.3333333333 566.666666667 -16.5 555 -16.5 c 0
 524 -16.5 499.083333333 -11.5 480.25 -1.5 c 0
 461.416666667 8.5 446.583333333 21.5 435.75 37.5 c 0
 424.916666667 53.5 416.916666667 71.25 411.75 90.75 c 0
 406.583333333 110.25 402.166666667 129.5 398.5 148.5 c 0
 394.5 167.5 390.083333333 186.25 385.25 204.75 c 0
 380.416666667 223.25 373.583333333 239.75 364.75 254.25 c 0
 355.916666667 268.75 344.166666667 280.5 329.5 289.5 c 0
 314.833333333 298.5 295.5 303 271.5 303 c 0
 266.833333333 303 261.5 302.916666667 255.5 302.75 c 0
 249.5 302.583333333 243.666666667 302.5 238 302.5 c 0
 231.666666667 302.166666667 225 302 218 302 c 0
 174 67.5 l 0
 173 62.5 173.833333333 58.1666666667 176.5 54.5 c 0
 179.166666667 50.8333333333 184.833333333 48.6666666667 193.5 48 c 0
 253 43 l 0
 253 0 l 0
 -13.5 0 l 0
 -13.5 43 l 0
 45 48 l 0
 59 49 67.5 55.5 70.5 67.5 c 0
 175 618.5 l 0
 176 624.166666667 175.166666667 628.833333333 172.5 632.5 c 0
 169.833333333 636.166666667 164.166666667 638.333333333 155.5 639 c 0
 98.5 644 l 0
 98.5 687 l 0
 372.5 687 l 0
 400.833333333 687 428.416666667 684.666666667 455.25 680 c 0
 482.083333333 675.333333333 505.833333333 667.166666667 526.5 655.5 c 0
 547.166666667 643.833333333 563.75 628.25 576.25 608.75 c 0
 588.75 589.25 595 564.833333333 595 535.5 c 0
 595 507.833333333 589.5 482.833333333 578.5 460.5 c 0
 567.5 438.166666667 552.5 418.25 533.5 400.75 c 0
 514.5 383.25 492.333333333 368.166666667 467 355.5 c 0
 441.666666667 342.833333333 414.666666667 332.5 386 324.5 c 0
 407 315.5 423.75 305.416666667 436.25 294.25 c 0
 448.75 283.083333333 458.833333333 270.666666667 466.5 257 c 0
 474.166666667 243.333333333 480.166666667 228.166666667 484.5 211.5 c 0
 488.833333333 194.833333333 493.5 176.833333333 498.5 157.5 c 0
 503.5 138.5 509 121.75 515 107.25 c 0
 521 92.75 528.916666667 80.6666666667 538.75 71 c 0
 548.583333333 61.3333333333 560.75 54.0833333333 575.25 49.25 c 0
 589.75 44.4166666667 608 42 630 42 c 0
 630 0 l 0
479 521 m 0
 479 546 473.583333333 566.166666667 462.75 581.5 c 0
 451.916666667 596.833333333 438 608.666666667 421 617 c 0
 404 625.333333333 385.166666667 630.75 364.5 633.25 c 0
 343.833333333 635.75 323.666666667 636.666666667 304 636 c 0
 301.333333333 636 297.666666667 635.833333333 293 635.5 c 0
 288.333333333 635.166666667 284.5 635 281.5 635 c 0
 229.5 355.5 l 0
 252 355.5 l 0
 279.666666667 355.5 307 358 334 363 c 0
 361 368 385.25 376.833333333 406.75 389.5 c 0
 428.25 402.166666667 445.666666667 419.083333333 459 440.25 c 0
 472.333333333 461.416666667 479 488.333333333 479 521 c 0
EndSplineSet
EndChar

StartChar: S
Encoding: 54 83 54
Width: 533
VWidth: 500
Flags: HW
LayerCount: 2
Fore
SplineSet
492.5 510 m 0
 432 510 l 0
 436 613.5 l 0
 436 616.833333333 433.5 620.75 428.5 625.25 c 0
 423.5 629.75 416.75 634.083333333 408.25 638.25 c 0
 399.75 642.416666667 390 646 379 649 c 0
 368 652 356.333333333 653.5 344 653.5 c 0
 324.333333333 653.5 305.25 650 286.75 643 c 0
 268.25 636 251.833333333 626.25 237.5 613.75 c 0
 223.166666667 601.25 211.75 586.416666667 203.25 569.25 c 0
 194.75 552.083333333 190.5 533.333333333 190.5 513 c 0
 190.5 494.666666667 195.5 478.583333333 205.5 464.75 c 0
 215.5 450.916666667 227.833333333 438.666666667 242.5 428 c 0
 257.166666667 417.333333333 272.833333333 408 289.5 400 c 0
 306.166666667 392 321.333333333 384.666666667 335 378 c 0
 353 368.666666667 370.583333333 358.833333333 387.75 348.5 c 0
 404.916666667 338.166666667 420.166666667 326.5 433.5 313.5 c 0
 446.833333333 300.5 457.583333333 285.583333333 465.75 268.75 c 0
 473.916666667 251.916666667 478 232.333333333 478 210 c 0
 478 185.333333333 472.916666667 159.666666667 462.75 133 c 0
 452.583333333 106.333333333 436.166666667 81.9166666667 413.5 59.75 c 0
 390.833333333 37.5833333333 361.416666667 19.3333333333 325.25 5 c 0
 289.083333333 -9.33333333333 244.833333333 -16.5 192.5 -16.5 c 0
 166.166666667 -16.5 141.75 -14.0833333333 119.25 -9.25 c 0
 96.75 -4.41666666667 76.9166666667 1.08333333333 59.75 7.25 c 0
 42.5833333333 13.4166666667 28.4166666667 19.4166666667 17.25 25.25 c 0
 6.08333333333 31.0833333333 -1.33333333333 35 -5 37 c 0
 29.5 201.5 l 0
 99.5 201.5 l 0
 88 84 l 0
 87.6666666667 80 90 76 95 72 c 0
 100 68 106.5 64.25 114.5 60.75 c 0
 122.5 57.25 131.333333333 54.0833333333 141 51.25 c 0
 150.666666667 48.4166666667 159.916666667 45.9166666667 168.75 43.75 c 0
 177.583333333 41.5833333333 185.416666667 39.9166666667 192.25 38.75 c 0
 199.083333333 37.5833333333 203.666666667 37 206 37 c 0
 228 37 249 40.4166666667 269 47.25 c 0
 289 54.0833333333 306.583333333 63.9166666667 321.75 76.75 c 0
 336.916666667 89.5833333333 349 105.25 358 123.75 c 0
 367 142.25 371.5 163.166666667 371.5 186.5 c 0
 371.5 203.833333333 366.416666667 219.25 356.25 232.75 c 0
 346.083333333 246.25 333.583333333 258.333333333 318.75 269 c 0
 303.916666667 279.666666667 288.166666667 289.083333333 271.5 297.25 c 0
 254.833333333 305.416666667 240.166666667 312.833333333 227.5 319.5 c 0
 209.5 328.833333333 192 338.583333333 175 348.75 c 0
 158 358.916666667 142.916666667 370.25 129.75 382.75 c 0
 116.583333333 395.25 106 409.333333333 98 425 c 0
 90 440.666666667 86 458.666666667 86 479 c 0
 86 513 92.6666666667 543.833333333 106 571.5 c 0
 119.333333333 599.166666667 137.916666667 622.75 161.75 642.25 c 0
 185.583333333 661.75 213.75 676.833333333 246.25 687.5 c 0
 278.75 698.166666667 314.166666667 703.5 352.5 703.5 c 0
 375.5 703.5 396.833333333 701.916666667 416.5 698.75 c 0
 436.166666667 695.583333333 453.5 691.833333333 468.5 687.5 c 0
 483.5 683.166666667 495.916666667 679 505.75 675 c 0
 515.583333333 671 522.166666667 668.166666667 525.5 666.5 c 0
 492.5 510 l 0
EndSplineSet
EndChar

StartChar: T
Encoding: 55 84 55
Width: 600
VWidth: 500
Flags: HW
LayerCount: 2
Fore
SplineSet
633 530.5 m 0
 568.5 530.5 l 0
 572.5 620.5 l 0
 573.5 634.166666667 567 641 553 641 c 0
 421 641 l 0
 314.5 67.5 l 0
 313.5 62.5 314.333333333 58.1666666667 317 54.5 c 0
 319.666666667 50.8333333333 325.666666667 48.6666666667 335 48 c 0
 393 43 l 0
 393 0 l 0
 127 0 l 0
 127 43 l 0
 186.5 48 l 0
 192.5 48.6666666667 197.833333333 50.5833333333 202.5 53.75 c 0
 207.166666667 56.9166666667 210 61.5 211 67.5 c 0
 317.5 641 l 0
 189.5 641 l 0
 176.5 641 168 634.166666667 164 620.5 c 0
 132 530.5 l 0
 67.5 530.5 l 0
 97.5 687 l 0
 664.5 687 l 0
 633 530.5 l 0
EndSplineSet
EndChar

StartChar: U
Encoding: 56 85 56
Width: 724
VWidth: 500
Flags: HW
LayerCount: 2
Fore
SplineSet
707.5 639 m 0
 701.5 638.333333333 696.166666667 636.416666667 691.5 633.25 c 0
 686.833333333 630.083333333 684 625.166666667 683 618.5 c 0
 604 219 l 0
 597 182 585.833333333 148.916666667 570.5 119.75 c 0
 555.166666667 90.5833333333 535.583333333 65.9166666667 511.75 45.75 c 0
 487.916666667 25.5833333333 459.916666667 10.1666666667 427.75 -0.5 c 0
 395.583333333 -11.1666666667 359.166666667 -16.5 318.5 -16.5 c 0
 286.833333333 -16.5 257.416666667 -13.25 230.25 -6.75 c 0
 203.083333333 -0.25 179.333333333 10.1666666667 159 24.5 c 0
 138.666666667 38.8333333333 122.75 57.3333333333 111.25 80 c 0
 99.75 102.666666667 94 130.333333333 94 163 c 0
 94 173.333333333 95.0833333333 187.833333333 97.25 206.5 c 0
 99.4166666667 225.166666667 102.833333333 246.5 107.5 270.5 c 0
 179 618.5 l 0
 180 624.166666667 179.166666667 628.833333333 176.5 632.5 c 0
 173.833333333 636.166666667 167.833333333 638.333333333 158.5 639 c 0
 101.5 644 l 0
 101.5 687 l 0
 367.5 687 l 0
 367.5 644 l 0
 307 639 l 0
 301 638.333333333 295.666666667 636.416666667 291 633.25 c 0
 286.333333333 630.083333333 283.5 625.166666667 282.5 618.5 c 0
 212 270.5 l 0
 208 250.5 205.083333333 232.583333333 203.25 216.75 c 0
 201.416666667 200.916666667 200.5 188.333333333 200.5 179 c 0
 200.5 157.333333333 203.916666667 138.5 210.75 122.5 c 0
 217.583333333 106.5 227.25 93.0833333333 239.75 82.25 c 0
 252.25 71.4166666667 267.416666667 63.3333333333 285.25 58 c 0
 303.083333333 52.6666666667 323 50 345 50 c 0
 378.333333333 50 406.25 55.5833333333 428.75 66.75 c 0
 451.25 77.9166666667 470 92.8333333333 485 111.5 c 0
 500 130.166666667 511.833333333 151.916666667 520.5 176.75 c 0
 529.166666667 201.583333333 536.166666667 227.666666667 541.5 255 c 0
 613.5 618.5 l 0
 614.5 624.166666667 613.666666667 628.833333333 611 632.5 c 0
 608.333333333 636.166666667 602.333333333 638.333333333 593 639 c 0
 535.5 644 l 0
 535.5 687 l 0
 767 687 l 0
 767 644 l 0
 707.5 639 l 0
EndSplineSet
EndChar

StartChar: V
Encoding: 57 86 57
Width: 658
VWidth: 500
Flags: HW
LayerCount: 2
Fore
SplineSet
679 638 m 0
 325.5 -16.5 l 0
 248 -16.5 l 0
 148.5 621.5 l 0
 147.5 628.166666667 144.833333333 633.083333333 140.5 636.25 c 0
 136.166666667 639.416666667 130.666666667 641.333333333 124 642 c 0
 85 644 l 0
 85 687 l 0
 317.5 687 l 0
 317.5 644 l 0
 273.5 642 l 0
 265.833333333 641.333333333 260.25 639.583333333 256.75 636.75 c 0
 253.25 633.916666667 252 628.833333333 253 621.5 c 0
 329.5 126 l 0
 590 621.5 l 0
 592.666666667 626.833333333 593.166666667 631.416666667 591.5 635.25 c 0
 589.833333333 639.083333333 584.166666667 641.333333333 574.5 642 c 0
 524.5 644 l 0
 524.5 687 l 0
 733 687 l 0
 733 644 l 0
 679 638 l 0
EndSplineSet
EndChar

StartChar: W
Encoding: 58 87 58
Width: 949
VWidth: 500
Flags: HW
LayerCount: 2
Fore
SplineSet
963.5 638 m 0
 656.5 -16.5 l 0
 591 -16.5 l 0
 531.5 530.5 l 0
 275.5 -16.5 l 0
 204 -16.5 l 0
 152.5 621.5 l 0
 151.833333333 628.166666667 149.75 633.083333333 146.25 636.25 c 0
 142.75 639.416666667 136.666666667 641.333333333 128 642 c 0
 85 644 l 0
 85 687 l 0
 321.5 687 l 0
 321.5 644 l 0
 276.5 642 l 0
 268.833333333 641.333333333 263.5 639.333333333 260.5 636 c 0
 257.5 632.666666667 256 627.833333333 256 621.5 c 0
 292 177 l 0
 532.5 687 l 0
 615.5 687 l 0
 667.5 170 l 0
 875.5 621.5 l 0
 881.5 634.166666667 875 641 856 642 c 0
 810 644 l 0
 810 687 l 0
 1024 687 l 0
 1024 644 l 0
 963.5 638 l 0
EndSplineSet
EndChar

StartChar: X
Encoding: 59 88 59
Width: 648
VWidth: 500
Flags: HW
LayerCount: 2
Fore
SplineSet
633 640 m 0
 627.666666667 639.333333333 622.75 637.25 618.25 633.75 c 0
 613.75 630.25 610.5 627.166666667 608.5 624.5 c 0
 383 368.5 l 0
 517 62.5 l 0
 520.333333333 56.1666666667 523.666666667 52.1666666667 527 50.5 c 0
 530.333333333 48.8333333333 533.833333333 47.6666666667 537.5 47 c 0
 593 43 l 0
 593 0 l 0
 328.5 0 l 0
 328.5 43 l 0
 394 47 l 0
 399.666666667 47.6666666667 404.166666667 50 407.5 54 c 0
 410.833333333 58 411.166666667 62.5 408.5 67.5 c 0
 316.5 282.5 l 0
 123 67.5 l 0
 118.666666667 63.5 116.916666667 59.25 117.75 54.75 c 0
 118.583333333 50.25 123.333333333 47.6666666667 132 47 c 0
 193.5 43 l 0
 193.5 0 l 0
 -45 0 l 0
 -45 43 l 0
 4 47 l 0
 9.66666666667 47.6666666667 14.6666666667 49.75 19 53.25 c 0
 23.3333333333 56.75 26.5 59.8333333333 28.5 62.5 c 0
 283.5 348 l 0
 161 624.5 l 0
 158.333333333 630.833333333 155.333333333 634.833333333 152 636.5 c 0
 148.666666667 638.166666667 145.166666667 639.333333333 141.5 640 c 0
 85 644 l 0
 85 687 l 0
 351 687 l 0
 351 644 l 0
 284.5 640 l 0
 278.833333333 639.333333333 274.333333333 637.083333333 271 633.25 c 0
 267.666666667 629.416666667 267.166666667 624.833333333 269.5 619.5 c 0
 353.5 428 l 0
 521 619.5 l 0
 524.666666667 623.5 526.25 627.75 525.75 632.25 c 0
 525.25 636.75 520.666666667 639.333333333 512 640 c 0
 463 644 l 0
 463 687 l 0
 694.5 687 l 0
 694.5 644 l 0
 633 640 l 0
EndSplineSet
EndChar

StartChar: Y
Encoding: 60 89 60
Width: 654
VWidth: 500
Flags: HW
LayerCount: 2
Fore
SplineSet
670.5 640 m 0
 665.5 639.333333333 660.5 637.25 655.5 633.75 c 0
 650.5 630.25 646.666666667 627.166666667 644 624.5 c 0
 384 287.5 l 0
 341 67.5 l 0
 339.333333333 62.5 340 58.1666666667 343 54.5 c 0
 346 50.8333333333 351.833333333 48.6666666667 360.5 48 c 0
 418 43 l 0
 418 0 l 0
 151.5 0 l 0
 151.5 43 l 0
 211 48 l 0
 217 48.6666666667 222.166666667 50.5833333333 226.5 53.75 c 0
 230.833333333 56.9166666667 233.833333333 61.5 235.5 67.5 c 0
 277.5 278.5 l 0
 163 624.5 l 0
 160.666666667 631.166666667 157.75 635.25 154.25 636.75 c 0
 150.75 638.25 147.166666667 639.333333333 143.5 640 c 0
 86 644 l 0
 86 687 l 0
 351 687 l 0
 351 644 l 0
 285.5 640 l 0
 279.833333333 639.333333333 275.583333333 637.166666667 272.75 633.5 c 0
 269.916666667 629.833333333 269.5 625.166666667 271.5 619.5 c 0
 355.5 353.5 l 0
 553 619.5 l 0
 554.333333333 621.833333333 555.5 624.166666667 556.5 626.5 c 0
 557.5 628.833333333 557.833333333 630.916666667 557.5 632.75 c 0
 557.166666667 634.583333333 556.083333333 636.166666667 554.25 637.5 c 0
 552.416666667 638.833333333 549.333333333 639.666666667 545 640 c 0
 481.5 644 l 0
 481.5 687 l 0
 728 687 l 0
 728 644 l 0
 670.5 640 l 0
EndSplineSet
EndChar

StartChar: Z
Encoding: 61 90 61
Width: 576
VWidth: 500
Flags: HW
LayerCount: 2
Fore
SplineSet
600 641 m 0
 118 54.5 l 0
 396.5 54.5 l 0
 409.833333333 54.5 418.333333333 61.3333333333 422 75 c 0
 452.5 189.5 l 0
 522 189.5 l 0
 486.5 0 l 0
 -20.5 0 l 0
 -11.5 45 l 0
 469 634 l 0
 229.5 634 l 0
 222.166666667 634 216.75 632.416666667 213.25 629.25 c 0
 209.75 626.083333333 207 621.166666667 205 614.5 c 0
 177 524.5 l 0
 106.5 524.5 l 0
 139.5 687 l 0
 609.5 687 l 0
 600 641 l 0
EndSplineSet
EndChar

StartChar: bracketleft
Encoding: 62 91 62
Width: 431
VWidth: 500
Flags: HW
LayerCount: 2
Fore
SplineSet
315.5 677 m 0
 163 -87 l 0
 319.5 -87 l 0
 319.5 -135 l 0
 55.5 -135 l 0
 227.5 725 l 0
 482.5 725 l 0
 482.5 677 l 0
 315.5 677 l 0
EndSplineSet
EndChar

StartChar: backslash
Encoding: 63 92 63
Width: 500
VWidth: 500
Flags: HW
LayerCount: 2
Fore
SplineSet
435 -95 m 0
 0 687 l 0
 65.5 687 l 0
 500.5 -95 l 0
 435 -95 l 0
EndSplineSet
EndChar

StartChar: bracketright
Encoding: 64 93 64
Width: 431
VWidth: 500
Flags: HW
LayerCount: 2
Fore
SplineSet
213 -135 m 0
 -42 -135 l 0
 -42 -86 l 0
 126 -86 l 0
 277.5 678 l 0
 121 678 l 0
 121 725 l 0
 385 725 l 0
 213 -135 l 0
EndSplineSet
EndChar

StartChar: asciicircum
Encoding: 65 94 65
Width: 351
VWidth: 500
Flags: HW
LayerCount: 2
Fore
SplineSet
380.75 282 m 0
 338.75 329.25 l 0
 277.25 282 l 0
 241.5 282 l 0
 326 368.75 l 0
 366.25 368.75 l 0
 416.5 282 l 0
 380.75 282 l 0
EndSplineSet
EndChar

StartChar: underscore
Encoding: 66 95 66
Width: 311
VWidth: 500
Flags: HW
LayerCount: 2
Fore
SplineSet
231 -157.5 m 0
 -80 -157.5 l 0
 -65.5 -90 l 0
 244 -90 l 0
 231 -157.5 l 0
EndSplineSet
EndChar

StartChar: grave
Encoding: 67 96 67
Width: 402
VWidth: 500
Flags: HW
LayerCount: 2
Fore
SplineSet
338.5 282 m 0
 264.25 330.75 l 0
 260.75 333.083333333 257.916666667 335.958333333 255.75 339.375 c 0
 253.583333333 342.791666667 252.5 347.083333333 252.5 352.25 c 0
 252.5 354.75 252.875 357.333333333 253.625 360 c 0
 254.375 362.666666667 255.625 365.083333333 257.375 367.25 c 0
 259.125 369.416666667 261.458333333 371.208333333 264.375 372.625 c 0
 267.291666667 374.041666667 271 374.75 275.5 374.75 c 0
 279.166666667 374.75 282.291666667 374.416666667 284.875 373.75 c 0
 287.458333333 373.083333333 289.75 372.208333333 291.75 371.125 c 0
 293.75 370.041666667 295.541666667 368.708333333 297.125 367.125 c 0
 298.708333333 365.541666667 300.25 363.833333333 301.75 362 c 0
 370.25 282 l 0
 338.5 282 l 0
EndSplineSet
EndChar

StartChar: a
Encoding: 68 97 68
Width: 533
VWidth: 500
Flags: HW
LayerCount: 2
Fore
SplineSet
530.5 27.5 m 0
 526.5 25.8333333333 519.166666667 22.75 508.5 18.25 c 0
 497.833333333 13.75 485.916666667 9.25 472.75 4.75 c 0
 459.583333333 0.25 446.25 -3.75 432.75 -7.25 c 0
 419.25 -10.75 407.5 -12.5 397.5 -12.5 c 0
 385.166666667 -12.5 374.75 -11 366.25 -8 c 0
 357.75 -5 350.75 -0.5 345.25 5.5 c 0
 339.75 11.5 335.5 18.8333333333 332.5 27.5 c 0
 329.5 36.1666666667 327.5 46.1666666667 326.5 57.5 c 0
 318.833333333 50.1666666667 309.833333333 42.4166666667 299.5 34.25 c 0
 289.166666667 26.0833333333 277.75 18.5 265.25 11.5 c 0
 252.75 4.5 239.416666667 -1.25 225.25 -5.75 c 0
 211.083333333 -10.25 196.333333333 -12.5 181 -12.5 c 0
 161 -12.5 143.416666667 -9.66666666667 128.25 -4 c 0
 113.083333333 1.66666666667 100 9.25 89 18.75 c 0
 78 28.25 68.9166666667 39.25 61.75 51.75 c 0
 54.5833333333 64.25 48.8333333333 77.25 44.5 90.75 c 0
 40.1666666667 104.25 37.1666666667 117.916666667 35.5 131.75 c 0
 33.8333333333 145.583333333 33 158.666666667 33 171 c 0
 33 197.333333333 35.8333333333 223.916666667 41.5 250.75 c 0
 47.1666666667 277.583333333 55.5833333333 303.416666667 66.75 328.25 c 0
 77.9166666667 353.083333333 91.8333333333 376.333333333 108.5 398 c 0
 125.166666667 419.666666667 144.416666667 438.5 166.25 454.5 c 0
 188.083333333 470.5 212.416666667 483.083333333 239.25 492.25 c 0
 266.083333333 501.416666667 295.5 506 327.5 506 c 0
 336.833333333 506 346.083333333 504.916666667 355.25 502.75 c 0
 364.416666667 500.583333333 373 497.75 381 494.25 c 0
 389 490.75 396.333333333 486.833333333 403 482.5 c 0
 409.666666667 478.166666667 415.333333333 473.666666667 420 469 c 0
 435 493.5 l 0
 505 493.5 l 0
 503.333333333 489.5 501.5 484.75 499.5 479.25 c 0
 497.5 473.75 495.5 468.166666667 493.5 462.5 c 0
 491.5 456.833333333 489.75 451.5 488.25 446.5 c 0
 486.75 441.5 485.833333333 437.666666667 485.5 435 c 0
 483.166666667 426 479.833333333 412.416666667 475.5 394.25 c 0
 471.166666667 376.083333333 466.583333333 355.666666667 461.75 333 c 0
 456.916666667 310.333333333 451.916666667 286.583333333 446.75 261.75 c 0
 441.583333333 236.916666667 437 213.416666667 433 191.25 c 0
 429 169.083333333 425.666666667 149.416666667 423 132.25 c 0
 420.333333333 115.083333333 419 102.666666667 419 95 c 0
 419 77 422.833333333 64.6666666667 430.5 58 c 0
 438.166666667 51.3333333333 449 48 463 48 c 0
 466.333333333 48 471.25 48.75 477.75 50.25 c 0
 484.25 51.75 491 53.5 498 55.5 c 0
 505 57.5 511.5 59.3333333333 517.5 61 c 0
 523.5 62.6666666667 527.833333333 63.8333333333 530.5 64.5 c 0
 530.5 27.5 l 0
380 401.5 m 0
 380.333333333 403.166666667 379.083333333 407 376.25 413 c 0
 373.416666667 419 370 425.25 366 431.75 c 0
 362 438.25 357.75 444 353.25 449 c 0
 348.75 454 345 456.5 342 456.5 c 0
 316 456.5 292.75 452.25 272.25 443.75 c 0
 251.75 435.25 233.833333333 423.75 218.5 409.25 c 0
 203.166666667 394.75 190.083333333 378 179.25 359 c 0
 168.416666667 340 159.666666667 320.166666667 153 299.5 c 0
 146.333333333 278.833333333 141.5 258 138.5 237 c 0
 135.5 216 134 196 134 177 c 0
 134 162.666666667 135.166666667 148.333333333 137.5 134 c 0
 139.833333333 119.666666667 143.916666667 106.666666667 149.75 95 c 0
 155.583333333 83.3333333333 163.583333333 73.8333333333 173.75 66.5 c 0
 183.916666667 59.1666666667 197 55.5 213 55.5 c 0
 225 55.5 237 58.1666666667 249 63.5 c 0
 261 68.8333333333 272.166666667 75 282.5 82 c 0
 292.833333333 89 301.833333333 96 309.5 103 c 0
 317.166666667 110 322.833333333 115.333333333 326.5 119 c 0
 380 401.5 l 0
EndSplineSet
EndChar

StartChar: b
Encoding: 69 98 69
Width: 504
VWidth: 500
Flags: HW
LayerCount: 2
Fore
SplineSet
471 317.5 m 0
 471 296.166666667 468.666666667 273.25 464 248.75 c 0
 459.333333333 224.25 452.083333333 199.833333333 442.25 175.5 c 0
 432.416666667 151.166666667 419.833333333 127.666666667 404.5 105 c 0
 389.166666667 82.3333333333 370.833333333 62.3333333333 349.5 45 c 0
 328.166666667 27.6666666667 303.666666667 13.75 276 3.25 c 0
 248.333333333 -7.25 217.166666667 -12.5 182.5 -12.5 c 0
 153.5 -12.5 124.916666667 -8.5 96.75 -0.5 c 0
 68.5833333333 7.5 42.5 19.3333333333 18.5 35 c 0
 139.5 684 l 0
 48 693 l 0
 48 724 l 0
 208 754.5 l 0
 248 754.5 l 0
 189.5 444.5 l 0
 198.833333333 452.833333333 209.083333333 460.75 220.25 468.25 c 0
 231.416666667 475.75 243 482.25 255 487.75 c 0
 267 493.25 279.333333333 497.666666667 292 501 c 0
 304.666666667 504.333333333 317.166666667 506 329.5 506 c 0
 355.833333333 506 378 500.166666667 396 488.5 c 0
 414 476.833333333 428.583333333 461.833333333 439.75 443.5 c 0
 450.916666667 425.166666667 458.916666667 404.916666667 463.75 382.75 c 0
 468.583333333 360.583333333 471 338.833333333 471 317.5 c 0
369.5 313.5 m 0
 369.5 336.5 366.833333333 355.916666667 361.5 371.75 c 0
 356.166666667 387.583333333 349.666666667 400.5 342 410.5 c 0
 334.333333333 420.5 326.25 427.666666667 317.75 432 c 0
 309.25 436.333333333 302 438.5 296 438.5 c 0
 287.666666667 438.5 278.5 437.166666667 268.5 434.5 c 0
 258.5 431.833333333 248.25 428.083333333 237.75 423.25 c 0
 227.25 418.416666667 216.833333333 412.833333333 206.5 406.5 c 0
 196.166666667 400.166666667 186.666666667 393.333333333 178 386 c 0
 121 76 l 0
 124.333333333 71 128.833333333 66.1666666667 134.5 61.5 c 0
 140.166666667 56.8333333333 146.666666667 52.5833333333 154 48.75 c 0
 161.333333333 44.9166666667 169.333333333 41.8333333333 178 39.5 c 0
 186.666666667 37.1666666667 195.666666667 36 205 36 c 0
 220.666666667 36 235.583333333 40 249.75 48 c 0
 263.916666667 56 277.083333333 66.8333333333 289.25 80.5 c 0
 301.416666667 94.1666666667 312.5 110.166666667 322.5 128.5 c 0
 332.5 146.833333333 340.916666667 166.25 347.75 186.75 c 0
 354.583333333 207.25 359.916666667 228.416666667 363.75 250.25 c 0
 367.583333333 272.083333333 369.5 293.166666667 369.5 313.5 c 0
EndSplineSet
EndChar

StartChar: c
Encoding: 70 99 70
Width: 445
VWidth: 500
Flags: HW
LayerCount: 2
Fore
SplineSet
412.5 434 m 0
 412.5 427.333333333 411.5 420.5 409.5 413.5 c 0
 407.5 406.5 403.583333333 400 397.75 394 c 0
 391.916666667 388 383.916666667 382.583333333 373.75 377.75 c 0
 363.583333333 372.916666667 350.333333333 369.5 334 367.5 c 0
 275.5 446.5 l 0
 257.166666667 445.5 240.833333333 440.416666667 226.5 431.25 c 0
 212.166666667 422.083333333 199.583333333 410.333333333 188.75 396 c 0
 177.916666667 381.666666667 168.75 365.416666667 161.25 347.25 c 0
 153.75 329.083333333 147.666666667 310.666666667 143 292 c 0
 138.333333333 273.333333333 135 255.166666667 133 237.5 c 0
 131 219.833333333 130 204.166666667 130 190.5 c 0
 130 173.833333333 131.583333333 157.416666667 134.75 141.25 c 0
 137.916666667 125.083333333 143.083333333 110.583333333 150.25 97.75 c 0
 157.416666667 84.9166666667 166.75 74.5 178.25 66.5 c 0
 189.75 58.5 204 54.5 221 54.5 c 0
 234.666666667 54.5 248.5 56.9166666667 262.5 61.75 c 0
 276.5 66.5833333333 290.583333333 73.3333333333 304.75 82 c 0
 318.916666667 90.6666666667 333.166666667 101 347.5 113 c 0
 361.833333333 125 376.333333333 138.166666667 391 152.5 c 0
 391 88 l 0
 380.333333333 77.6666666667 368.166666667 66.6666666667 354.5 55 c 0
 340.833333333 43.3333333333 325.666666667 32.5 309 22.5 c 0
 292.333333333 12.5 274.083333333 4.16666666667 254.25 -2.5 c 0
 234.416666667 -9.16666666667 213.166666667 -12.5 190.5 -12.5 c 0
 166.166666667 -12.5 144.25 -8.25 124.75 0.25 c 0
 105.25 8.75 88.75 21.0833333333 75.25 37.25 c 0
 61.75 53.4166666667 51.3333333333 73.3333333333 44 97 c 0
 36.6666666667 120.666666667 33 147.666666667 33 178 c 0
 33 208.666666667 36.5833333333 238 43.75 266 c 0
 50.9166666667 294 60.8333333333 320.166666667 73.5 344.5 c 0
 86.1666666667 368.833333333 101.166666667 390.916666667 118.5 410.75 c 0
 135.833333333 430.583333333 154.666666667 447.583333333 175 461.75 c 0
 195.333333333 475.916666667 216.75 486.833333333 239.25 494.5 c 0
 261.75 502.166666667 284.666666667 506 308 506 c 0
 326.333333333 506 342.166666667 503.666666667 355.5 499 c 0
 368.833333333 494.333333333 379.666666667 488.5 388 481.5 c 0
 396.333333333 474.5 402.5 466.75 406.5 458.25 c 0
 410.5 449.75 412.5 441.666666667 412.5 434 c 0
EndSplineSet
EndChar

StartChar: d
Encoding: 71 100 71
Width: 538
VWidth: 500
Flags: HW
LayerCount: 2
Fore
SplineSet
385 403.5 m 0
 385.333333333 404.833333333 383.416666667 408.583333333 379.25 414.75 c 0
 375.083333333 420.916666667 369.75 427.333333333 363.25 434 c 0
 356.75 440.666666667 349.666666667 446.666666667 342 452 c 0
 334.333333333 457.333333333 327.166666667 460 320.5 460 c 0
 295.5 460 271.666666667 452.75 249 438.25 c 0
 226.333333333 423.75 206.333333333 403.833333333 189 378.5 c 0
 171.666666667 353.166666667 157.833333333 323.25 147.5 288.75 c 0
 137.166666667 254.25 132 217 132 177 c 0
 132 155 134.25 136 138.75 120 c 0
 143.25 104 149.25 90.8333333333 156.75 80.5 c 0
 164.25 70.1666666667 172.833333333 62.5 182.5 57.5 c 0
 192.166666667 52.5 202 50 212 50 c 0
 221.333333333 50 231.416666667 52.3333333333 242.25 57 c 0
 253.083333333 61.6666666667 264 67.9166666667 275 75.75 c 0
 286 83.5833333333 296.916666667 92.5833333333 307.75 102.75 c 0
 318.583333333 112.916666667 328.666666667 123.333333333 338 134 c 0
 385 403.5 l 0
425 88 m 0
 423.333333333 78.3333333333 423.833333333 70.5 426.5 64.5 c 0
 429.166666667 58.5 432.75 53.75 437.25 50.25 c 0
 441.75 46.75 446.416666667 44.3333333333 451.25 43 c 0
 456.083333333 41.6666666667 459.666666667 41 462 41 c 0
 464.333333333 41 469.083333333 41.9166666667 476.25 43.75 c 0
 483.416666667 45.5833333333 491 47.6666666667 499 50 c 0
 507 52.3333333333 514.5 54.5 521.5 56.5 c 0
 535.5 60.5 l 0
 535.5 22.5 l 0
 531.5 20.8333333333 524.166666667 18.0833333333 513.5 14.25 c 0
 502.833333333 10.4166666667 491 6.5 478 2.5 c 0
 465 -1.5 451.583333333 -5 437.75 -8 c 0
 423.916666667 -11 411.833333333 -12.5 401.5 -12.5 c 0
 385.833333333 -12.5 373 -10.5833333333 363 -6.75 c 0
 353 -2.91666666667 345.166666667 2.41666666667 339.5 9.25 c 0
 333.833333333 16.0833333333 329.916666667 24.1666666667 327.75 33.5 c 0
 325.583333333 42.8333333333 324.5 53.1666666667 324.5 64.5 c 0
 315.5 54.8333333333 305.583333333 45.4166666667 294.75 36.25 c 0
 283.916666667 27.0833333333 272.333333333 18.9166666667 260 11.75 c 0
 247.666666667 4.58333333333 234.666666667 -1.25 221 -5.75 c 0
 207.333333333 -10.25 193.333333333 -12.5 179 -12.5 c 0
 150.333333333 -12.5 126.583333333 -7 107.75 4 c 0
 88.9166666667 15 74 29.3333333333 63 47 c 0
 52 64.6666666667 44.25 84.3333333333 39.75 106 c 0
 35.25 127.666666667 33 149.333333333 33 171 c 0
 33 198 35.9166666667 225.083333333 41.75 252.25 c 0
 47.5833333333 279.416666667 56.25 305.416666667 67.75 330.25 c 0
 79.25 355.083333333 93.3333333333 378.166666667 110 399.5 c 0
 126.666666667 420.833333333 145.666666667 439.416666667 167 455.25 c 0
 188.333333333 471.083333333 212.083333333 483.5 238.25 492.5 c 0
 264.416666667 501.5 292.5 506 322.5 506 c 0
 330.166666667 506 337.666666667 505.25 345 503.75 c 0
 352.333333333 502.25 359.333333333 500.5 366 498.5 c 0
 372.666666667 496.5 378.833333333 494.333333333 384.5 492 c 0
 390.166666667 489.666666667 395.166666667 487.833333333 399.5 486.5 c 0
 434 684 l 0
 341 693 l 0
 341 724 l 0
 499.5 754.5 l 0
 541.5 754.5 l 0
 425 88 l 0
EndSplineSet
EndChar

StartChar: e
Encoding: 72 101 72
Width: 444
VWidth: 500
Flags: HW
LayerCount: 2
Fore
SplineSet
427 402.5 m 0
 427 383.833333333 422.666666667 366.666666667 414 351 c 0
 405.333333333 335.333333333 393.583333333 321.166666667 378.75 308.5 c 0
 363.916666667 295.833333333 346.75 284.583333333 327.25 274.75 c 0
 307.75 264.916666667 287.25 256.583333333 265.75 249.75 c 0
 244.25 242.916666667 222.333333333 237.416666667 200 233.25 c 0
 177.666666667 229.083333333 156.333333333 226.5 136 225.5 c 0
 135 218.833333333 134.083333333 210.833333333 133.25 201.5 c 0
 132.416666667 192.166666667 132 184.333333333 132 178 c 0
 132 159.333333333 134.25 142.166666667 138.75 126.5 c 0
 143.25 110.833333333 149.75 97.25 158.25 85.75 c 0
 166.75 74.25 177 65.25 189 58.75 c 0
 201 52.25 214.5 49 229.5 49 c 0
 252.5 49 277.833333333 57.3333333333 305.5 74 c 0
 333.166666667 90.6666666667 365.833333333 115.5 403.5 148.5 c 0
 403.5 84 l 0
 393.833333333 74.6666666667 382 64.4166666667 368 53.25 c 0
 354 42.0833333333 338.083333333 31.5833333333 320.25 21.75 c 0
 302.416666667 11.9166666667 283 3.75 262 -2.75 c 0
 241 -9.25 218.833333333 -12.5 195.5 -12.5 c 0
 185.166666667 -12.5 173.916666667 -11.5 161.75 -9.5 c 0
 149.583333333 -7.5 137.5 -3.91666666667 125.5 1.25 c 0
 113.5 6.41666666667 101.916666667 13.5 90.75 22.5 c 0
 79.5833333333 31.5 69.75 42.9166666667 61.25 56.75 c 0
 52.75 70.5833333333 45.9166666667 87.0833333333 40.75 106.25 c 0
 35.5833333333 125.416666667 33 148 33 174 c 0
 33 201 36.25 227.916666667 42.75 254.75 c 0
 49.25 281.583333333 58.4166666667 307.25 70.25 331.75 c 0
 82.0833333333 356.25 96.3333333333 379.083333333 113 400.25 c 0
 129.666666667 421.416666667 148 439.75 168 455.25 c 0
 188 470.75 209.416666667 482.916666667 232.25 491.75 c 0
 255.083333333 500.583333333 278.666666667 505 303 505 c 0
 326.666666667 505 346.416666667 501.083333333 362.25 493.25 c 0
 378.083333333 485.416666667 390.833333333 476 400.5 465 c 0
 410.166666667 454 417 442.666666667 421 431 c 0
 425 419.333333333 427 409.833333333 427 402.5 c 0
336 403.5 m 0
 336 410.166666667 334.666666667 416.75 332 423.25 c 0
 329.333333333 429.75 325.666666667 435.5 321 440.5 c 0
 316.333333333 445.5 310.5 449.583333333 303.5 452.75 c 0
 296.5 455.916666667 288.833333333 457.5 280.5 457.5 c 0
 269.166666667 457.5 258.333333333 454.5 248 448.5 c 0
 237.666666667 442.5 227.75 434.5 218.25 424.5 c 0
 208.75 414.5 199.916666667 403 191.75 390 c 0
 183.583333333 377 176.25 363.333333333 169.75 349 c 0
 163.25 334.666666667 157.5 320.166666667 152.5 305.5 c 0
 147.5 290.833333333 143.5 277 140.5 264 c 0
 162.166666667 266 184.583333333 271 207.75 279 c 0
 230.916666667 287 252 297.25 271 309.75 c 0
 290 322.25 305.583333333 336.5 317.75 352.5 c 0
 329.916666667 368.5 336 385.5 336 403.5 c 0
EndSplineSet
EndChar

StartChar: f
Encoding: 73 102 73
Width: 329
VWidth: 500
Flags: HW
LayerCount: 2
Fore
SplineSet
451.5 691 m 0
 451.5 674.666666667 445.5 662.083333333 433.5 653.25 c 0
 421.5 644.416666667 406 638.666666667 387 636 c 0
 307 700.5 l 0
 299.666666667 694.5 292.833333333 685.833333333 286.5 674.5 c 0
 280.166666667 663.166666667 274.333333333 650.333333333 269 636 c 0
 263.666666667 621.666666667 258.75 606.416666667 254.25 590.25 c 0
 249.75 574.083333333 245.833333333 558.416666667 242.5 543.25 c 0
 239.166666667 528.083333333 236.333333333 513.916666667 234 500.75 c 0
 231.666666667 487.583333333 229.833333333 476.666666667 228.5 468 c 0
 353.5 468 l 0
 353.5 417 l 0
 219 417 l 0
 218 409.333333333 216.25 396 213.75 377 c 0
 211.25 358 208.166666667 336 204.5 311 c 0
 200.833333333 286 196.916666667 259.25 192.75 230.75 c 0
 188.583333333 202.25 184.416666667 174.75 180.25 148.25 c 0
 176.083333333 121.75 172 97.3333333333 168 75 c 0
 164 52.6666666667 160.5 35.1666666667 157.5 22.5 c 0
 152.833333333 3.5 146.416666667 -16.0833333333 138.25 -36.25 c 0
 130.083333333 -56.4166666667 120.416666667 -76 109.25 -95 c 0
 98.0833333333 -114 85.75 -132 72.25 -149 c 0
 58.75 -166 44.4166666667 -180.833333333 29.25 -193.5 c 0
 14.0833333333 -206.166666667 -1.75 -216.166666667 -18.25 -223.5 c 0
 -34.75 -230.833333333 -51.5 -234.5 -68.5 -234.5 c 0
 -81.5 -234.5 -92.25 -232.333333333 -100.75 -228 c 0
 -109.25 -223.666666667 -115.833333333 -218.583333333 -120.5 -212.75 c 0
 -125.166666667 -206.916666667 -128.416666667 -201.25 -130.25 -195.75 c 0
 -132.083333333 -190.25 -133 -186.166666667 -133 -183.5 c 0
 -133 -170.5 -130.5 -160.416666667 -125.5 -153.25 c 0
 -120.5 -146.083333333 -114.166666667 -139.666666667 -106.5 -134 c 0
 -2 -161 l 0
 7 -150 15.25 -136.5 22.75 -120.5 c 0
 30.25 -104.5 37.0833333333 -86.8333333333 43.25 -67.5 c 0
 49.4166666667 -48.1666666667 55 -27.4166666667 60 -5.25 c 0
 65 16.9166666667 69.5 39.8333333333 73.5 63.5 c 0
 82.1666666667 111.833333333 90.1666666667 165.75 97.5 225.25 c 0
 104.833333333 284.75 113.666666667 348.166666667 124 415.5 c 0
 45 407.5 l 0
 46 447.5 l 0
 135 477 l 0
 138.333333333 495 142.916666667 514.416666667 148.75 535.25 c 0
 154.583333333 556.083333333 161.833333333 576.75 170.5 597.25 c 0
 179.166666667 617.75 189.416666667 637.5 201.25 656.5 c 0
 213.083333333 675.5 226.666666667 692.25 242 706.75 c 0
 257.333333333 721.25 274.583333333 732.833333333 293.75 741.5 c 0
 312.916666667 750.166666667 334.166666667 754.5 357.5 754.5 c 0
 374.833333333 754.5 389.5 752.333333333 401.5 748 c 0
 413.5 743.666666667 423.166666667 738.25 430.5 731.75 c 0
 437.833333333 725.25 443.166666667 718.333333333 446.5 711 c 0
 449.833333333 703.666666667 451.5 697 451.5 691 c 0
EndSplineSet
EndChar

StartChar: g
Encoding: 74 103 74
Width: 450
VWidth: 500
Flags: HW
LayerCount: 2
Fore
SplineSet
402.5 431 m 0
 405.5 423.333333333 408.416666667 413.5 411.25 401.5 c 0
 414.083333333 389.5 415.5 376.5 415.5 362.5 c 0
 415.5 329.833333333 409.5 301.333333333 397.5 277 c 0
 385.5 252.666666667 369.333333333 232.333333333 349 216 c 0
 328.666666667 199.666666667 305.083333333 187.416666667 278.25 179.25 c 0
 251.416666667 171.083333333 223.166666667 167 193.5 167 c 0
 191.166666667 162 189.166666667 156.5 187.5 150.5 c 0
 185.833333333 144.5 184.5 138.583333333 183.5 132.75 c 0
 182.5 126.916666667 181.833333333 121.583333333 181.5 116.75 c 0
 181.166666667 111.916666667 181.5 108.166666667 182.5 105.5 c 0
 319.5 43 l 0
 335.166666667 36 349.416666667 28.9166666667 362.25 21.75 c 0
 375.083333333 14.5833333333 386.083333333 6.75 395.25 -1.75 c 0
 404.416666667 -10.25 411.5 -19.9166666667 416.5 -30.75 c 0
 421.5 -41.5833333333 424 -54.5 424 -69.5 c 0
 424 -84.1666666667 420.583333333 -98.4166666667 413.75 -112.25 c 0
 406.916666667 -126.083333333 397.583333333 -139.083333333 385.75 -151.25 c 0
 373.916666667 -163.416666667 359.75 -174.666666667 343.25 -185 c 0
 326.75 -195.333333333 308.916666667 -204.166666667 289.75 -211.5 c 0
 270.583333333 -218.833333333 250.416666667 -224.5 229.25 -228.5 c 0
 208.083333333 -232.5 186.666666667 -234.5 165 -234.5 c 0
 131.333333333 -234.5 102.166666667 -230.333333333 77.5 -222 c 0
 52.8333333333 -213.666666667 32.4166666667 -202.666666667 16.25 -189 c 0
 0.0833333333333 -175.333333333 -11.9166666667 -159.5 -19.75 -141.5 c 0
 -27.5833333333 -123.5 -31.5 -104.666666667 -31.5 -85 c 0
 -31.5 -67.6666666667 -27.9166666667 -51.6666666667 -20.75 -37 c 0
 -13.5833333333 -22.3333333333 -3.83333333333 -9.16666666667 8.5 2.5 c 0
 20.8333333333 14.1666666667 35.25 24.5 51.75 33.5 c 0
 68.25 42.5 85.8333333333 50.1666666667 104.5 56.5 c 0
 102.833333333 64.5 102.75 73.9166666667 104.25 84.75 c 0
 105.75 95.5833333333 108.25 106.583333333 111.75 117.75 c 0
 115.25 128.916666667 119.833333333 139.666666667 125.5 150 c 0
 131.166666667 160.333333333 137.5 169 144.5 176 c 0
 130.833333333 182 118.166666667 188.916666667 106.5 196.75 c 0
 94.8333333333 204.583333333 84.75 213.583333333 76.25 223.75 c 0
 67.75 233.916666667 61.0833333333 245.583333333 56.25 258.75 c 0
 51.4166666667 271.916666667 49 286.666666667 49 303 c 0
 49 328 53.6666666667 352.583333333 63 376.75 c 0
 72.3333333333 400.916666667 85.9166666667 422.583333333 103.75 441.75 c 0
 121.583333333 460.916666667 143.25 476.416666667 168.75 488.25 c 0
 194.25 500.083333333 223.333333333 506 256 506 c 0
 268.333333333 506 279.916666667 504.916666667 290.75 502.75 c 0
 301.583333333 500.583333333 311.416666667 498.083333333 320.25 495.25 c 0
 329.083333333 492.416666667 336.75 489.5 343.25 486.5 c 0
 349.75 483.5 354.5 481 357.5 479 c 0
 496.5 479 l 0
 496.5 431 l 0
 402.5 431 l 0
317.5 367.5 m 0
 317.5 380.166666667 316.333333333 392.25 314 403.75 c 0
 311.666666667 415.25 308.083333333 425.416666667 303.25 434.25 c 0
 298.416666667 443.083333333 292.25 450.083333333 284.75 455.25 c 0
 277.25 460.416666667 268.333333333 463 258 463 c 0
 245.666666667 463 233 458.5 220 449.5 c 0
 207 440.5 195.083333333 428.166666667 184.25 412.5 c 0
 173.416666667 396.833333333 164.583333333 378.5 157.75 357.5 c 0
 150.916666667 336.5 147.5 314 147.5 290 c 0
 147.5 277.666666667 148.833333333 266.25 151.5 255.75 c 0
 154.166666667 245.25 158.083333333 236.25 163.25 228.75 c 0
 168.416666667 221.25 174.583333333 215.416666667 181.75 211.25 c 0
 188.916666667 207.083333333 197 205 206 205 c 0
 223 205 238.416666667 210.416666667 252.25 221.25 c 0
 266.083333333 232.083333333 277.833333333 245.666666667 287.5 262 c 0
 297.166666667 278.333333333 304.583333333 296 309.75 315 c 0
 314.916666667 334 317.5 351.5 317.5 367.5 c 0
328.5 -90 m 0
 328.5 -77.6666666667 324.833333333 -66.3333333333 317.5 -56 c 0
 310.166666667 -45.6666666667 296.5 -35.8333333333 276.5 -26.5 c 0
 148.5 31.5 l 0
 132.166666667 27.5 118.583333333 22 107.75 15 c 0
 96.9166666667 8 88.3333333333 0.0833333333333 82 -8.75 c 0
 75.6666666667 -17.5833333333 71.1666666667 -27 68.5 -37 c 0
 65.8333333333 -47 64.5 -57.1666666667 64.5 -67.5 c 0
 64.5 -79.1666666667 67 -92 72 -106 c 0
 77 -120 84.75 -133 95.25 -145 c 0
 105.75 -157 119 -167.083333333 135 -175.25 c 0
 151 -183.416666667 169.833333333 -187.5 191.5 -187.5 c 0
 216.166666667 -187.5 237.166666667 -184 254.5 -177 c 0
 271.833333333 -170 286 -161.5 297 -151.5 c 0
 308 -141.5 316 -130.916666667 321 -119.75 c 0
 326 -108.583333333 328.5 -98.6666666667 328.5 -90 c 0
EndSplineSet
EndChar

StartChar: h
Encoding: 75 104 75
Width: 536
VWidth: 500
Flags: HW
LayerCount: 2
Fore
SplineSet
534.5 25.5 m 0
 530.166666667 23.8333333333 522.583333333 21 511.75 17 c 0
 500.916666667 13 488.833333333 8.75 475.5 4.25 c 0
 462.166666667 -0.25 448.5 -4.16666666667 434.5 -7.5 c 0
 420.5 -10.8333333333 408.166666667 -12.5 397.5 -12.5 c 0
 391.166666667 -12.5 383.166666667 -11.5833333333 373.5 -9.75 c 0
 363.833333333 -7.91666666667 354.75 -4.58333333333 346.25 0.25 c 0
 337.75 5.08333333333 331 11.8333333333 326 20.5 c 0
 321 29.1666666667 319.833333333 40.5 322.5 54.5 c 0
 385 356.5 l 0
 388 369.833333333 387.75 381.666666667 384.25 392 c 0
 380.75 402.333333333 375.833333333 410.916666667 369.5 417.75 c 0
 363.166666667 424.583333333 356.166666667 429.75 348.5 433.25 c 0
 340.833333333 436.75 334.166666667 438.5 328.5 438.5 c 0
 320.5 438.5 310.75 436.5 299.25 432.5 c 0
 287.75 428.5 275.583333333 423 262.75 416 c 0
 249.916666667 409 237 400.583333333 224 390.75 c 0
 211 380.916666667 198.833333333 370.166666667 187.5 358.5 c 0
 112.5 0 l 0
 18.5 0 l 0
 159.5 684 l 0
 68.5 693 l 0
 68.5 724 l 0
 228.5 754.5 l 0
 269.5 754.5 l 0
 200.5 424 l 0
 210.833333333 435.333333333 223.083333333 446 237.25 456 c 0
 251.416666667 466 266.583333333 474.75 282.75 482.25 c 0
 298.916666667 489.75 315.75 495.583333333 333.25 499.75 c 0
 350.75 503.916666667 368 506 385 506 c 0
 403.666666667 506 420.166666667 503.083333333 434.5 497.25 c 0
 448.833333333 491.416666667 460.416666667 482.75 469.25 471.25 c 0
 478.083333333 459.75 483.75 445.333333333 486.25 428 c 0
 488.75 410.666666667 487.5 390.5 482.5 367.5 c 0
 426 92 l 0
 424 82.3333333333 424.5 74.25 427.5 67.75 c 0
 430.5 61.25 434.583333333 56.0833333333 439.75 52.25 c 0
 444.916666667 48.4166666667 450.333333333 45.75 456 44.25 c 0
 461.666666667 42.75 466 42 469 42 c 0
 478.333333333 42 488.5 44.3333333333 499.5 49 c 0
 510.5 53.6666666667 521.833333333 57.8333333333 533.5 61.5 c 0
 534.5 25.5 l 0
EndSplineSet
EndChar

StartChar: i
Encoding: 76 105 76
Width: 272
VWidth: 500
Flags: HW
LayerCount: 2
Fore
SplineSet
265 656.5 m 0
 265 648.833333333 263.583333333 641.583333333 260.75 634.75 c 0
 257.916666667 627.916666667 253.916666667 621.833333333 248.75 616.5 c 0
 243.583333333 611.166666667 237.166666667 606.916666667 229.5 603.75 c 0
 221.833333333 600.583333333 213 599 203 599 c 0
 182 599 166.166666667 604.583333333 155.5 615.75 c 0
 144.833333333 626.916666667 139.5 640.5 139.5 656.5 c 0
 139.5 663.166666667 140.916666667 669.833333333 143.75 676.5 c 0
 146.583333333 683.166666667 150.75 689.25 156.25 694.75 c 0
 161.75 700.25 168.5 704.75 176.5 708.25 c 0
 184.5 711.75 193.666666667 713.5 204 713.5 c 0
 213.666666667 713.5 222.25 711.833333333 229.75 708.5 c 0
 237.25 705.166666667 243.666666667 700.833333333 249 695.5 c 0
 254.333333333 690.166666667 258.333333333 684.083333333 261 677.25 c 0
 263.666666667 670.416666667 265 663.5 265 656.5 c 0
269.5 29.5 m 0
 265.5 27.8333333333 258.166666667 24.6666666667 247.5 20 c 0
 236.833333333 15.3333333333 224.333333333 10.5833333333 210 5.75 c 0
 195.666666667 0.916666666667 180.583333333 -3.33333333333 164.75 -7 c 0
 148.916666667 -10.6666666667 134 -12.5 120 -12.5 c 0
 102.333333333 -12.5 88.3333333333 -9.5 78 -3.5 c 0
 67.6666666667 2.5 60 10.3333333333 55 20 c 0
 50 29.6666666667 47.1666666667 40.5 46.5 52.5 c 0
 45.8333333333 64.5 46.6666666667 76.3333333333 49 88 c 0
 114.5 435 l 0
 26.5 444.5 l 0
 26.5 474 l 0
 181 506 l 0
 223 506 l 0
 145.5 96.5 l 0
 144.166666667 89.5 144.25 82.8333333333 145.75 76.5 c 0
 147.25 70.1666666667 149.75 64.5833333333 153.25 59.75 c 0
 156.75 54.9166666667 161.25 51.0833333333 166.75 48.25 c 0
 172.25 45.4166666667 178.5 44 185.5 44 c 0
 191.5 44 198.583333333 45.0833333333 206.75 47.25 c 0
 214.916666667 49.4166666667 223.083333333 51.9166666667 231.25 54.75 c 0
 239.416666667 57.5833333333 247 60.3333333333 254 63 c 0
 261 65.6666666667 266.166666667 67.5 269.5 68.5 c 0
 269.5 29.5 l 0
EndSplineSet
EndChar

StartChar: j
Encoding: 77 106 77
Width: 279
VWidth: 500
Flags: HW
LayerCount: 2
Fore
SplineSet
272.5 656.5 m 0
 272.5 650.5 271 644.083333333 268 637.25 c 0
 265 630.416666667 260.666666667 624.166666667 255 618.5 c 0
 249.333333333 612.833333333 242.583333333 608.166666667 234.75 604.5 c 0
 226.916666667 600.833333333 218.333333333 599 209 599 c 0
 190.333333333 599 175.083333333 604.416666667 163.25 615.25 c 0
 151.416666667 626.083333333 145.5 639.833333333 145.5 656.5 c 0
 145.5 664.166666667 146.75 671.5 149.25 678.5 c 0
 151.75 685.5 155.666666667 691.75 161 697.25 c 0
 166.333333333 702.75 173 707.083333333 181 710.25 c 0
 189 713.416666667 198.333333333 715 209 715 c 0
 219.333333333 715 228.416666667 713.416666667 236.25 710.25 c 0
 244.083333333 707.083333333 250.666666667 702.75 256 697.25 c 0
 261.333333333 691.75 265.416666667 685.5 268.25 678.5 c 0
 271.083333333 671.5 272.5 664.166666667 272.5 656.5 c 0
164 82 m 0
 161 65 156.5 45.3333333333 150.5 23 c 0
 144.5 0.666666666667 136.916666667 -22.25 127.75 -45.75 c 0
 118.583333333 -69.25 107.75 -92.25 95.25 -114.75 c 0
 82.75 -137.25 68.5 -157.416666667 52.5 -175.25 c 0
 36.5 -193.083333333 18.8333333333 -207.416666667 -0.5 -218.25 c 0
 -19.8333333333 -229.083333333 -40.8333333333 -234.5 -63.5 -234.5 c 0
 -85.1666666667 -234.5 -102 -229.333333333 -114 -219 c 0
 -126 -208.666666667 -132 -195.666666667 -132 -180 c 0
 -132 -173.666666667 -131 -168 -129 -163 c 0
 -127 -158 -124.5 -153.666666667 -121.5 -150 c 0
 -118.5 -146.333333333 -115.416666667 -143.166666667 -112.25 -140.5 c 0
 -109.083333333 -137.833333333 -106.166666667 -135.666666667 -103.5 -134 c 0
 -1 -162 l 0
 4 -156.666666667 9.08333333333 -148.5 14.25 -137.5 c 0
 19.4166666667 -126.5 24.5 -114.083333333 29.5 -100.25 c 0
 34.5 -86.4166666667 39 -71.8333333333 43 -56.5 c 0
 47 -41.1666666667 50.3333333333 -26.5 53 -12.5 c 0
 130 435 l 0
 44 444.5 l 0
 44 474 l 0
 198.5 506 l 0
 236.5 506 l 0
 164 82 l 0
EndSplineSet
EndChar

StartChar: k
Encoding: 78 107 78
Width: 521
VWidth: 500
Flags: HW
LayerCount: 2
Fore
SplineSet
509 23.5 m 0
 500.333333333 19.1666666667 490.416666667 14.8333333333 479.25 10.5 c 0
 468.083333333 6.16666666667 456.666666667 2.33333333333 445 -1 c 0
 433.333333333 -4.33333333333 421.916666667 -7.08333333333 410.75 -9.25 c 0
 399.583333333 -11.4166666667 390 -12.5 382 -12.5 c 0
 373.666666667 -12.5 365.5 -11.0833333333 357.5 -8.25 c 0
 349.5 -5.41666666667 341.916666667 -1.75 334.75 2.75 c 0
 327.583333333 7.25 321 12.4166666667 315 18.25 c 0
 309 24.0833333333 304 30 300 36 c 0
 295.333333333 43 290.083333333 52.0833333333 284.25 63.25 c 0
 278.416666667 74.4166666667 272.25 86.6666666667 265.75 100 c 0
 259.25 113.333333333 252.666666667 127.25 246 141.75 c 0
 239.333333333 156.25 232.916666667 170.25 226.75 183.75 c 0
 220.583333333 197.25 214.916666667 209.833333333 209.75 221.5 c 0
 204.583333333 233.166666667 200.166666667 242.666666667 196.5 250 c 0
 149.5 208 l 0
 107.5 0 l 0
 13.5 0 l 0
 149.5 684 l 0
 59.5 693 l 0
 59.5 724 l 0
 218 754.5 l 0
 259 754.5 l 0
 164 278.5 l 0
 329.5 449.5 l 0
 339.166666667 459.5 348 468.083333333 356 475.25 c 0
 364 482.416666667 371.75 488.25 379.25 492.75 c 0
 386.75 497.25 394.333333333 500.583333333 402 502.75 c 0
 409.666666667 504.916666667 418 506 427 506 c 0
 438.333333333 506 448.25 504.333333333 456.75 501 c 0
 465.25 497.666666667 472.25 493.333333333 477.75 488 c 0
 483.25 482.666666667 487.333333333 476.666666667 490 470 c 0
 492.666666667 463.333333333 493.833333333 456.833333333 493.5 450.5 c 0
 493.5 438.833333333 488.083333333 426.75 477.25 414.25 c 0
 466.416666667 401.75 449 391.333333333 425 383 c 0
 390 420 l 0
 380.666666667 412.666666667 370.583333333 404.5 359.75 395.5 c 0
 348.916666667 386.5 338 377.333333333 327 368 c 0
 316 358.666666667 305.5 349.5 295.5 340.5 c 0
 285.5 331.5 276.5 323.5 268.5 316.5 c 0
 272.833333333 307.833333333 277.583333333 297 282.75 284 c 0
 287.916666667 271 293.416666667 257.083333333 299.25 242.25 c 0
 305.083333333 227.416666667 311.416666667 212.25 318.25 196.75 c 0
 325.083333333 181.25 332.333333333 166.5 340 152.5 c 0
 347.666666667 138.166666667 355.75 124.416666667 364.25 111.25 c 0
 372.75 98.0833333333 381.5 86.4166666667 390.5 76.25 c 0
 399.5 66.0833333333 408.666666667 58 418 52 c 0
 427.333333333 46 436.5 43 445.5 43 c 0
 449.166666667 43 453.666666667 43.4166666667 459 44.25 c 0
 464.333333333 45.0833333333 470 46.1666666667 476 47.5 c 0
 482 48.8333333333 487.916666667 50.5 493.75 52.5 c 0
 499.583333333 54.5 504.666666667 56.5 509 58.5 c 0
 509 23.5 l 0
EndSplineSet
EndChar

StartChar: l
Encoding: 79 108 79
Width: 271
VWidth: 500
Flags: HW
LayerCount: 2
Fore
SplineSet
269.5 26.5 m 0
 265.5 24.8333333333 258 21.9166666667 247 17.75 c 0
 236 13.5833333333 223.666666667 9.25 210 4.75 c 0
 196.333333333 0.25 182.083333333 -3.75 167.25 -7.25 c 0
 152.416666667 -10.75 139 -12.5 127 -12.5 c 0
 111.333333333 -12.5 98 -10.6666666667 87 -7 c 0
 76 -3.33333333333 67 1.83333333333 60 8.5 c 0
 53 15.1666666667 47.9166666667 23.0833333333 44.75 32.25 c 0
 41.5833333333 41.4166666667 40 51.5 40 62.5 c 0
 40 72.8333333333 41 84.8333333333 43 98.5 c 0
 155.5 684 l 0
 64.5 693 l 0
 64.5 724 l 0
 224.5 754.5 l 0
 264 754.5 l 0
 139.5 101.5 l 0
 138.166666667 94.5 138.5 87.5833333333 140.5 80.75 c 0
 142.5 73.9166666667 145.666666667 67.9166666667 150 62.75 c 0
 154.333333333 57.5833333333 159.666666667 53.3333333333 166 50 c 0
 172.333333333 46.6666666667 179.166666667 45 186.5 45 c 0
 191.5 45 198.083333333 45.9166666667 206.25 47.75 c 0
 214.416666667 49.5833333333 222.666666667 51.6666666667 231 54 c 0
 239.333333333 56.3333333333 247.083333333 58.6666666667 254.25 61 c 0
 261.416666667 63.3333333333 266.5 64.8333333333 269.5 65.5 c 0
 269.5 26.5 l 0
EndSplineSet
EndChar

StartChar: m
Encoding: 80 109 80
Width: 794
VWidth: 500
Flags: HW
LayerCount: 2
Fore
SplineSet
791.5 26.5 m 0
 782.833333333 22.8333333333 773.083333333 18.75 762.25 14.25 c 0
 751.416666667 9.75 740.25 5.5 728.75 1.5 c 0
 717.25 -2.5 705.833333333 -5.83333333333 694.5 -8.5 c 0
 683.166666667 -11.1666666667 672.5 -12.5 662.5 -12.5 c 0
 648.5 -12.5 635.916666667 -10.9166666667 624.75 -7.75 c 0
 613.583333333 -4.58333333333 604.25 0 596.75 6 c 0
 589.25 12 583.916666667 19.5 580.75 28.5 c 0
 577.583333333 37.5 577.166666667 47.8333333333 579.5 59.5 c 0
 636 333 l 0
 639.333333333 350 640.5 364.833333333 639.5 377.5 c 0
 638.5 390.166666667 635.916666667 400.666666667 631.75 409 c 0
 627.583333333 417.333333333 622.416666667 423.583333333 616.25 427.75 c 0
 610.083333333 431.916666667 603.666666667 434 597 434 c 0
 581.333333333 434 566.083333333 430.5 551.25 423.5 c 0
 536.416666667 416.5 522.833333333 408.25 510.5 398.75 c 0
 498.166666667 389.25 487.5 379.583333333 478.5 369.75 c 0
 469.5 359.916666667 463.333333333 352 460 346 c 0
 388 0 l 0
 293 0 l 0
 361.5 334 l 0
 363.833333333 345 364.916666667 356.416666667 364.75 368.25 c 0
 364.583333333 380.083333333 362.916666667 390.833333333 359.75 400.5 c 0
 356.583333333 410.166666667 351.666666667 418.166666667 345 424.5 c 0
 338.333333333 430.833333333 329.5 434 318.5 434 c 0
 306.5 434 293.75 430.5 280.25 423.5 c 0
 266.75 416.5 253.75 408.166666667 241.25 398.5 c 0
 228.75 388.833333333 217.416666667 378.916666667 207.25 368.75 c 0
 197.083333333 358.583333333 189.5 350.333333333 184.5 344 c 0
 112.5 0 l 0
 18.5 0 l 0
 106.5 435 l 0
 21.5 444.5 l 0
 21.5 474 l 0
 175 506 l 0
 217 506 l 0
 197.5 411.5 l 0
 210.166666667 423.5 223.666666667 435.25 238 446.75 c 0
 252.333333333 458.25 267.166666667 468.333333333 282.5 477 c 0
 297.833333333 485.666666667 313.333333333 492.666666667 329 498 c 0
 344.666666667 503.333333333 360 506 375 506 c 0
 392 506 406.083333333 502.833333333 417.25 496.5 c 0
 428.416666667 490.166666667 437.416666667 482.25 444.25 472.75 c 0
 451.083333333 463.25 456.083333333 453 459.25 442 c 0
 462.416666667 431 464.666666667 420.833333333 466 411.5 c 0
 478.333333333 423.833333333 492 435.666666667 507 447 c 0
 522 458.333333333 537.666666667 468.416666667 554 477.25 c 0
 570.333333333 486.083333333 586.916666667 493.083333333 603.75 498.25 c 0
 620.583333333 503.416666667 636.833333333 506 652.5 506 c 0
 669.5 506 684.416666667 502.916666667 697.25 496.75 c 0
 710.083333333 490.583333333 720.416666667 481.833333333 728.25 470.5 c 0
 736.083333333 459.166666667 741.083333333 445.5 743.25 429.5 c 0
 745.416666667 413.5 744.5 395.666666667 740.5 376 c 0
 683 99.5 l 0
 681.333333333 91.1666666667 681.5 83.5833333333 683.5 76.75 c 0
 685.5 69.9166666667 688.583333333 64 692.75 59 c 0
 696.916666667 54 702 50.0833333333 708 47.25 c 0
 714 44.4166666667 720.333333333 43 727 43 c 0
 735.333333333 43 745 45 756 49 c 0
 767 53 778.833333333 57.1666666667 791.5 61.5 c 0
 791.5 26.5 l 0
EndSplineSet
EndChar

StartChar: n
Encoding: 81 110 81
Width: 542
VWidth: 500
Flags: HW
LayerCount: 2
Fore
SplineSet
539.5 20.5 m 0
 535.166666667 18.8333333333 527.583333333 16.25 516.75 12.75 c 0
 505.916666667 9.25 493.833333333 5.58333333333 480.5 1.75 c 0
 467.166666667 -2.08333333333 453.5 -5.41666666667 439.5 -8.25 c 0
 425.5 -11.0833333333 413.166666667 -12.5 402.5 -12.5 c 0
 396.5 -12.5 388.25 -11.9166666667 377.75 -10.75 c 0
 367.25 -9.58333333333 357.166666667 -6.91666666667 347.5 -2.75 c 0
 337.833333333 1.41666666667 330 7.5 324 15.5 c 0
 318 23.5 316.5 34.3333333333 319.5 48 c 0
 382 362.5 l 0
 384.333333333 376.166666667 384.416666667 387.5 382.25 396.5 c 0
 380.083333333 405.5 376.583333333 412.75 371.75 418.25 c 0
 366.916666667 423.75 361.333333333 427.583333333 355 429.75 c 0
 348.666666667 431.916666667 342.666666667 433 337 433 c 0
 328.666666667 433 318.416666667 430.583333333 306.25 425.75 c 0
 294.083333333 420.916666667 281.25 414.5 267.75 406.5 c 0
 254.25 398.5 240.666666667 389.083333333 227 378.25 c 0
 213.333333333 367.416666667 200.833333333 356 189.5 344 c 0
 119 0 l 0
 23.5 0 l 0
 112.5 435 l 0
 26.5 444.5 l 0
 26.5 474 l 0
 181 506 l 0
 222 506 l 0
 203 410.5 l 0
 214.333333333 421.833333333 227.333333333 433.25 242 444.75 c 0
 256.666666667 456.25 272.333333333 466.5 289 475.5 c 0
 305.666666667 484.5 322.916666667 491.833333333 340.75 497.5 c 0
 358.583333333 503.166666667 376 506 393 506 c 0
 430.333333333 506 456.916666667 495.666666667 472.75 475 c 0
 488.583333333 454.333333333 492.5 421 484.5 375 c 0
 430 86 l 0
 428.333333333 76.3333333333 429.083333333 68.6666666667 432.25 63 c 0
 435.416666667 57.3333333333 439.583333333 53 444.75 50 c 0
 449.916666667 47 455.333333333 45.0833333333 461 44.25 c 0
 466.666666667 43.4166666667 471 43 474 43 c 0
 483.333333333 43 493.5 44.3333333333 504.5 47 c 0
 515.5 49.6666666667 526.833333333 52.8333333333 538.5 56.5 c 0
 539.5 20.5 l 0
EndSplineSet
EndChar

StartChar: o
Encoding: 82 111 82
Width: 518
VWidth: 500
Flags: HW
LayerCount: 2
Fore
SplineSet
486.5 307 m 0
 486.5 279.333333333 483.416666667 252.25 477.25 225.75 c 0
 471.083333333 199.25 462.25 174.166666667 450.75 150.5 c 0
 439.25 126.833333333 425.416666667 105.083333333 409.25 85.25 c 0
 393.083333333 65.4166666667 374.916666667 48.25 354.75 33.75 c 0
 334.583333333 19.25 312.666666667 7.91666666667 289 -0.25 c 0
 265.333333333 -8.41666666667 240.333333333 -12.5 214 -12.5 c 0
 186 -12.5 160.666666667 -8 138 1 c 0
 115.333333333 10 96.1666666667 22.9166666667 80.5 39.75 c 0
 64.8333333333 56.5833333333 52.75 76.9166666667 44.25 100.75 c 0
 35.75 124.583333333 31.5 151.333333333 31.5 181 c 0
 31.5 208.666666667 34.5 235.916666667 40.5 262.75 c 0
 46.5 289.583333333 55.0833333333 315 66.25 339 c 0
 77.4166666667 363 91 385.25 107 405.75 c 0
 123 426.25 141.083333333 443.916666667 161.25 458.75 c 0
 181.416666667 473.583333333 203.416666667 485.166666667 227.25 493.5 c 0
 251.083333333 501.833333333 276.333333333 506 303 506 c 0
 327.666666667 506 351.083333333 502.166666667 373.25 494.5 c 0
 395.416666667 486.833333333 414.916666667 474.833333333 431.75 458.5 c 0
 448.583333333 442.166666667 461.916666667 421.5 471.75 396.5 c 0
 481.583333333 371.5 486.5 341.666666667 486.5 307 c 0
383 311.5 m 0
 383 335.833333333 380.666666667 357.333333333 376 376 c 0
 371.333333333 394.666666667 365 410.333333333 357 423 c 0
 349 435.666666667 339.416666667 445.333333333 328.25 452 c 0
 317.083333333 458.666666667 305 462 292 462 c 0
 269.666666667 462 248.916666667 453.916666667 229.75 437.75 c 0
 210.583333333 421.583333333 194 400.416666667 180 374.25 c 0
 166 348.083333333 155 318.583333333 147 285.75 c 0
 139 252.916666667 135 219.833333333 135 186.5 c 0
 135 161.166666667 137.333333333 139 142 120 c 0
 146.666666667 101 153.166666667 85.0833333333 161.5 72.25 c 0
 169.833333333 59.4166666667 179.5 49.8333333333 190.5 43.5 c 0
 201.5 37.1666666667 213.5 34 226.5 34 c 0
 242.5 34 257.583333333 38.0833333333 271.75 46.25 c 0
 285.916666667 54.4166666667 298.75 65.4166666667 310.25 79.25 c 0
 321.75 93.0833333333 332 109.166666667 341 127.5 c 0
 350 145.833333333 357.666666667 165.25 364 185.75 c 0
 370.333333333 206.25 375.083333333 227.333333333 378.25 249 c 0
 381.416666667 270.666666667 383 291.5 383 311.5 c 0
EndSplineSet
EndChar

StartChar: p
Encoding: 83 112 83
Width: 506
VWidth: 500
Flags: HW
LayerCount: 2
Fore
SplineSet
473 316.5 m 0
 473 288.5 469.666666667 260.916666667 463 233.75 c 0
 456.333333333 206.583333333 446.75 180.833333333 434.25 156.5 c 0
 421.75 132.166666667 406.666666667 109.666666667 389 89 c 0
 371.333333333 68.3333333333 351.666666667 50.5 330 35.5 c 0
 308.333333333 20.5 284.833333333 8.75 259.5 0.25 c 0
 234.166666667 -8.25 207.666666667 -12.5 180 -12.5 c 0
 164.666666667 -12.5 150.833333333 -10.3333333333 138.5 -6 c 0
 126.166666667 -1.66666666667 115.833333333 2.33333333333 107.5 6 c 0
 75 -158.5 l 0
 73.6666666667 -164.166666667 74.4166666667 -168.75 77.25 -172.25 c 0
 80.0833333333 -175.75 86 -178 95 -179 c 0
 159.5 -184.5 l 0
 159.5 -223 l 0
 -98.5 -223 l 0
 -98.5 -184.5 l 0
 -45 -179 l 0
 -30.6666666667 -178 -22.5 -171.166666667 -20.5 -158.5 c 0
 95 435 l 0
 9 444.5 l 0
 9 474 l 0
 164 506 l 0
 204 506 l 0
 191.5 442.5 l 0
 200.166666667 448.166666667 210.083333333 454.666666667 221.25 462 c 0
 232.416666667 469.333333333 244.333333333 476.25 257 482.75 c 0
 269.666666667 489.25 282.916666667 494.75 296.75 499.25 c 0
 310.583333333 503.75 324.666666667 506 339 506 c 0
 365 506 386.583333333 500.416666667 403.75 489.25 c 0
 420.916666667 478.083333333 434.583333333 463.5 444.75 445.5 c 0
 454.916666667 427.5 462.166666667 407.166666667 466.5 384.5 c 0
 470.833333333 361.833333333 473 339.166666667 473 316.5 c 0
371.5 312.5 m 0
 371.5 327.5 369.916666667 342.75 366.75 358.25 c 0
 363.583333333 373.75 358.75 387.833333333 352.25 400.5 c 0
 345.75 413.166666667 337.5 423.5 327.5 431.5 c 0
 317.5 439.5 305.666666667 443.5 292 443.5 c 0
 279.666666667 443.5 267.333333333 440.75 255 435.25 c 0
 242.666666667 429.75 231.416666667 423.583333333 221.25 416.75 c 0
 211.083333333 409.916666667 202.333333333 403.25 195 396.75 c 0
 187.666666667 390.25 182.666666667 386 180 384 c 0
 119 66.5 l 0
 122 64.8333333333 126.25 62.25 131.75 58.75 c 0
 137.25 55.25 143.666666667 51.8333333333 151 48.5 c 0
 158.333333333 45.1666666667 166.166666667 42.25 174.5 39.75 c 0
 182.833333333 37.25 191.5 36 200.5 36 c 0
 219.166666667 36 236.333333333 40.1666666667 252 48.5 c 0
 267.666666667 56.8333333333 281.833333333 68.0833333333 294.5 82.25 c 0
 307.166666667 96.4166666667 318.333333333 112.833333333 328 131.5 c 0
 337.666666667 150.166666667 345.666666667 169.75 352 190.25 c 0
 358.333333333 210.75 363.166666667 231.5 366.5 252.5 c 0
 369.833333333 273.5 371.5 293.5 371.5 312.5 c 0
EndSplineSet
EndChar

StartChar: q
Encoding: 84 113 84
Width: 534
VWidth: 500
Flags: HW
LayerCount: 2
Fore
SplineSet
371.5 -158.5 m 0
 370.5 -164.166666667 371.416666667 -168.75 374.25 -172.25 c 0
 377.083333333 -175.75 383 -178 392 -179 c 0
 455.5 -184.5 l 0
 455.5 -223 l 0
 197.5 -223 l 0
 197.5 -184.5 l 0
 252 -179 l 0
 258.666666667 -178.333333333 264.166666667 -176.416666667 268.5 -173.25 c 0
 272.833333333 -170.083333333 275.833333333 -165.166666667 277.5 -158.5 c 0
 319.5 54.5 l 0
 295.833333333 34.8333333333 271.666666667 18.75 247 6.25 c 0
 222.333333333 -6.25 198 -12.5 174 -12.5 c 0
 153.333333333 -12.5 134.416666667 -8.58333333333 117.25 -0.75 c 0
 100.083333333 7.08333333333 85.25 18.8333333333 72.75 34.5 c 0
 60.25 50.1666666667 50.5 69.5 43.5 92.5 c 0
 36.5 115.5 33 142.333333333 33 173 c 0
 33 199.333333333 36.1666666667 225.833333333 42.5 252.5 c 0
 48.8333333333 279.166666667 57.8333333333 304.833333333 69.5 329.5 c 0
 81.1666666667 354.166666667 95.5 377.25 112.5 398.75 c 0
 129.5 420.25 148.666666667 438.916666667 170 454.75 c 0
 191.333333333 470.583333333 214.666666667 483.083333333 240 492.25 c 0
 265.333333333 501.416666667 292.166666667 506 320.5 506 c 0
 342.166666667 506 361.333333333 502.833333333 378 496.5 c 0
 394.666666667 490.166666667 407.666666667 483.333333333 417 476 c 0
 441.5 506 l 0
 503 506 l 0
 371.5 -158.5 l 0
386 397.5 m 0
 386.666666667 401.166666667 385.083333333 406.416666667 381.25 413.25 c 0
 377.416666667 420.083333333 372.583333333 426.916666667 366.75 433.75 c 0
 360.916666667 440.583333333 354.916666667 446.5 348.75 451.5 c 0
 342.583333333 456.5 337.666666667 459 334 459 c 0
 306 459 279.75 451.833333333 255.25 437.5 c 0
 230.75 423.166666667 209.333333333 403.333333333 191 378 c 0
 172.666666667 352.666666667 158.25 322.833333333 147.75 288.5 c 0
 137.25 254.166666667 132 217 132 177 c 0
 132 157.666666667 133.916666667 140.166666667 137.75 124.5 c 0
 141.583333333 108.833333333 147.083333333 95.5 154.25 84.5 c 0
 161.416666667 73.5 170.166666667 65 180.5 59 c 0
 190.833333333 53 202.333333333 50 215 50 c 0
 225.333333333 50 235.583333333 51.9166666667 245.75 55.75 c 0
 255.916666667 59.5833333333 265.75 64.6666666667 275.25 71 c 0
 284.75 77.3333333333 294.166666667 84.3333333333 303.5 92 c 0
 312.833333333 99.6666666667 322 107.5 331 115.5 c 0
 386 397.5 l 0
EndSplineSet
EndChar

StartChar: r
Encoding: 85 114 85
Width: 383
VWidth: 500
Flags: HW
LayerCount: 2
Fore
SplineSet
419 437 m 0
 419 425 416.833333333 415.416666667 412.5 408.25 c 0
 408.166666667 401.083333333 402 395.666666667 394 392 c 0
 386 388.333333333 376.416666667 385.916666667 365.25 384.75 c 0
 354.083333333 383.583333333 341.5 383 327.5 383 c 0
 303 432 l 0
 290.333333333 426.666666667 276.75 417.416666667 262.25 404.25 c 0
 247.75 391.083333333 234 376.083333333 221 359.25 c 0
 208 342.416666667 196.666666667 325.083333333 187 307.25 c 0
 177.333333333 289.416666667 171 273 168 258 c 0
 114.5 0 l 0
 19.5 0 l 0
 107.5 435 l 0
 21.5 444.5 l 0
 21.5 474 l 0
 176 506 l 0
 217 506 l 0
 195.5 402.5 l 0
 216.5 434.833333333 240.333333333 460.166666667 267 478.5 c 0
 293.666666667 496.833333333 322.5 506 353.5 506 c 0
 365.833333333 506 376.166666667 503.75 384.5 499.25 c 0
 392.833333333 494.75 399.583333333 489 404.75 482 c 0
 409.916666667 475 413.583333333 467.5 415.75 459.5 c 0
 417.916666667 451.5 419 444 419 437 c 0
EndSplineSet
EndChar

StartChar: s
Encoding: 86 115 86
Width: 379
VWidth: 500
Flags: HW
LayerCount: 2
Fore
SplineSet
357.5 441.5 m 0
 357.5 429.5 354.833333333 419.916666667 349.5 412.75 c 0
 344.166666667 405.583333333 337.666666667 400 330 396 c 0
 322.333333333 392 314.25 389.25 305.75 387.75 c 0
 297.25 386.25 289.833333333 385.333333333 283.5 385 c 0
 237.5 447.5 l 0
 235.5 449.166666667 232.333333333 450.916666667 228 452.75 c 0
 223.666666667 454.583333333 218.333333333 455.5 212 455.5 c 0
 200.666666667 455.5 191.166666667 453.083333333 183.5 448.25 c 0
 175.833333333 443.416666667 169.583333333 437.416666667 164.75 430.25 c 0
 159.916666667 423.083333333 156.5 415.416666667 154.5 407.25 c 0
 152.5 399.083333333 151.5 391.666666667 151.5 385 c 0
 151.5 375.666666667 154.166666667 366.25 159.5 356.75 c 0
 164.833333333 347.25 171.833333333 337.75 180.5 328.25 c 0
 189.166666667 318.75 198.916666667 309.416666667 209.75 300.25 c 0
 220.583333333 291.083333333 231.5 282.166666667 242.5 273.5 c 0
 253.833333333 264.5 264.75 255.25 275.25 245.75 c 0
 285.75 236.25 295.166666667 226.416666667 303.5 216.25 c 0
 311.833333333 206.083333333 318.5 195.333333333 323.5 184 c 0
 328.5 172.666666667 331 160.833333333 331 148.5 c 0
 331 127.5 326.75 107.333333333 318.25 88 c 0
 309.75 68.6666666667 297.25 51.5 280.75 36.5 c 0
 264.25 21.5 243.75 9.58333333333 219.25 0.75 c 0
 194.75 -8.08333333333 166.666666667 -12.5 135 -12.5 c 0
 110.333333333 -12.5 89 -9.75 71 -4.25 c 0
 53 1.25 38.1666666667 8.41666666667 26.5 17.25 c 0
 14.8333333333 26.0833333333 6.16666666667 36.1666666667 0.5 47.5 c 0
 -5.16666666667 58.8333333333 -8 70.3333333333 -8 82 c 0
 -8 98.3333333333 -3.08333333333 111.583333333 6.75 121.75 c 0
 16.5833333333 131.916666667 32 137 53 137 c 0
 59.3333333333 137 65.3333333333 136.166666667 71 134.5 c 0
 76.6666666667 132.833333333 81.8333333333 130.916666667 86.5 128.75 c 0
 91.1666666667 126.583333333 95.25 124.25 98.75 121.75 c 0
 102.25 119.25 104.833333333 117.166666667 106.5 115.5 c 0
 87 65.5 l 0
 94.3333333333 55.1666666667 103.416666667 46.4166666667 114.25 39.25 c 0
 125.083333333 32.0833333333 139.166666667 28.5 156.5 28.5 c 0
 166.833333333 28.5 176.833333333 30.5 186.5 34.5 c 0
 196.166666667 38.5 204.75 44.1666666667 212.25 51.5 c 0
 219.75 58.8333333333 225.666666667 67.75 230 78.25 c 0
 234.333333333 88.75 236.5 100.5 236.5 113.5 c 0
 236.5 123.833333333 234.416666667 133.583333333 230.25 142.75 c 0
 226.083333333 151.916666667 220.25 160.833333333 212.75 169.5 c 0
 205.25 178.166666667 196.416666667 186.75 186.25 195.25 c 0
 176.083333333 203.75 164.833333333 212.666666667 152.5 222 c 0
 141.833333333 230.333333333 131.583333333 239.333333333 121.75 249 c 0
 111.916666667 258.666666667 103.083333333 268.916666667 95.25 279.75 c 0
 87.4166666667 290.583333333 81.1666666667 302 76.5 314 c 0
 71.8333333333 326 69.5 338.333333333 69.5 351 c 0
 69.5 376 75.1666666667 398.166666667 86.5 417.5 c 0
 97.8333333333 436.833333333 112.416666667 453.083333333 130.25 466.25 c 0
 148.083333333 479.416666667 167.916666667 489.333333333 189.75 496 c 0
 211.583333333 502.666666667 233 506 254 506 c 0
 273.333333333 506 289.583333333 503.75 302.75 499.25 c 0
 315.916666667 494.75 326.583333333 489.25 334.75 482.75 c 0
 342.916666667 476.25 348.75 469.25 352.25 461.75 c 0
 355.75 454.25 357.5 447.5 357.5 441.5 c 0
EndSplineSet
EndChar

StartChar: t
Encoding: 87 116 87
Width: 307
VWidth: 500
Flags: HW
LayerCount: 2
Fore
SplineSet
207 429 m 0
 142.5 107.5 l 0
 140.5 98.5 140.833333333 90.4166666667 143.5 83.25 c 0
 146.166666667 76.0833333333 150.416666667 70.0833333333 156.25 65.25 c 0
 162.083333333 60.4166666667 168.916666667 56.6666666667 176.75 54 c 0
 184.583333333 51.3333333333 192.833333333 50 201.5 50 c 0
 211.166666667 50 221.166666667 50.9166666667 231.5 52.75 c 0
 241.833333333 54.5833333333 251.75 56.8333333333 261.25 59.5 c 0
 270.75 62.1666666667 279.583333333 64.9166666667 287.75 67.75 c 0
 295.916666667 70.5833333333 302.666666667 73 308 75 c 0
 308 34 l 0
 303.666666667 32 295.333333333 28.5 283 23.5 c 0
 270.666666667 18.5 256.5 13.3333333333 240.5 8 c 0
 224.5 2.66666666667 207.666666667 -2.08333333333 190 -6.25 c 0
 172.333333333 -10.4166666667 156.166666667 -12.5 141.5 -12.5 c 0
 122.833333333 -12.5 107.333333333 -10.25 95 -5.75 c 0
 82.6666666667 -1.25 72.8333333333 4.91666666667 65.5 12.75 c 0
 58.1666666667 20.5833333333 52.9166666667 29.9166666667 49.75 40.75 c 0
 46.5833333333 51.5833333333 45 63.3333333333 45 76 c 0
 45 82.6666666667 45.25 89.5 45.75 96.5 c 0
 46.25 103.5 47.3333333333 110.666666667 49 118 c 0
 111.5 429 l 0
 47 423 l 0
 47 456.5 l 0
 124 490.5 l 0
 174 593 l 0
 236.5 593 l 0
 216 476 l 0
 357.5 476 l 0
 357.5 429 l 0
 207 429 l 0
EndSplineSet
EndChar

StartChar: u
Encoding: 88 117 88
Width: 539
VWidth: 500
Flags: HW
LayerCount: 2
Fore
SplineSet
536.5 24.5 m 0
 530.166666667 20.8333333333 521.416666667 16.8333333333 510.25 12.5 c 0
 499.083333333 8.16666666667 487 4.16666666667 474 0.5 c 0
 461 -3.16666666667 447.75 -6.25 434.25 -8.75 c 0
 420.75 -11.25 408.5 -12.5 397.5 -12.5 c 0
 378.166666667 -12.5 363.833333333 -9.25 354.5 -2.75 c 0
 345.166666667 3.75 338.75 11.25 335.25 19.75 c 0
 331.75 28.25 330.166666667 36.8333333333 330.5 45.5 c 0
 330.833333333 54.1666666667 331 60.5 331 64.5 c 0
 304 38.8333333333 275.75 19.5833333333 246.25 6.75 c 0
 216.75 -6.08333333333 184.833333333 -12.5 150.5 -12.5 c 0
 126.833333333 -12.5 107.5 -8.33333333333 92.5 0 c 0
 77.5 8.33333333333 66.1666666667 18.8333333333 58.5 31.5 c 0
 50.8333333333 44.1666666667 46.1666666667 58 44.5 73 c 0
 42.8333333333 88 43.3333333333 102.166666667 46 115.5 c 0
 112.5 435 l 0
 26.5 444.5 l 0
 26.5 474 l 0
 181 506 l 0
 223 506 l 0
 141.5 115.5 l 0
 139.5 106.833333333 139.916666667 98.5833333333 142.75 90.75 c 0
 145.583333333 82.9166666667 149.75 76.0833333333 155.25 70.25 c 0
 160.75 64.4166666667 167 59.75 174 56.25 c 0
 181 52.75 187.833333333 51 194.5 51 c 0
 206.833333333 51 219.25 52.75 231.75 56.25 c 0
 244.25 59.75 256.666666667 64.5 269 70.5 c 0
 281.333333333 76.5 293.166666667 83.4166666667 304.5 91.25 c 0
 315.833333333 99.0833333333 326.333333333 107.5 336 116.5 c 0
 413.5 493.5 l 0
 509 493.5 l 0
 427 99.5 l 0
 424.666666667 88.8333333333 424.666666667 79.9166666667 427 72.75 c 0
 429.333333333 65.5833333333 432.916666667 59.6666666667 437.75 55 c 0
 442.583333333 50.3333333333 448.083333333 47 454.25 45 c 0
 460.416666667 43 466.333333333 42 472 42 c 0
 478.666666667 42 487.5 43 498.5 45 c 0
 509.5 47 522.166666667 52.1666666667 536.5 60.5 c 0
 536.5 24.5 l 0
EndSplineSet
EndChar

StartChar: v
Encoding: 89 118 89
Width: 473
VWidth: 500
Flags: HW
LayerCount: 2
Fore
SplineSet
478 444.5 m 0
 478 435.833333333 477.166666667 427.666666667 475.5 420 c 0
 473.833333333 412.333333333 471.916666667 405.166666667 469.75 398.5 c 0
 467.583333333 391.833333333 465.25 385.833333333 462.75 380.5 c 0
 460.25 375.166666667 458.166666667 370.833333333 456.5 367.5 c 0
 433.833333333 325.5 409.5 285.333333333 383.5 247 c 0
 357.5 208.666666667 332 173.25 307 140.75 c 0
 282 108.25 258.333333333 78.9166666667 236 52.75 c 0
 213.666666667 26.5833333333 194.666666667 4.83333333333 179 -12.5 c 0
 120 -12.5 l 0
 127 2.5 132.333333333 16.4166666667 136 29.25 c 0
 139.666666667 42.0833333333 141.166666667 54.1666666667 140.5 65.5 c 0
 140.5 66.5 140.166666667 71.5833333333 139.5 80.75 c 0
 138.833333333 89.9166666667 137.916666667 101.75 136.75 116.25 c 0
 135.583333333 130.75 134.166666667 147.333333333 132.5 166 c 0
 130.833333333 184.666666667 129 204 127 224 c 0
 125 244 122.916666667 264.083333333 120.75 284.25 c 0
 118.583333333 304.416666667 116.25 323.25 113.75 340.75 c 0
 111.25 358.25 108.75 373.75 106.25 387.25 c 0
 103.75 400.75 101.166666667 411 98.5 418 c 0
 95.1666666667 425 91.8333333333 430.166666667 88.5 433.5 c 0
 85.1666666667 436.833333333 80.6666666667 438.5 75 438.5 c 0
 2 442.5 l 0
 2 472 l 0
 111.5 506 l 0
 139.5 505.333333333 159.833333333 499.083333333 172.5 487.25 c 0
 185.166666667 475.416666667 192.833333333 457.333333333 195.5 433 c 0
 227.5 118 l 0
 244.833333333 140.666666667 260.833333333 162.25 275.5 182.75 c 0
 290.166666667 203.25 303.583333333 223.166666667 315.75 242.5 c 0
 327.916666667 261.833333333 339 281.083333333 349 300.25 c 0
 359 319.416666667 368 339.166666667 376 359.5 c 0
 356.5 483.5 l 0
 363.166666667 490.166666667 371.5 495.583333333 381.5 499.75 c 0
 391.5 503.916666667 402.833333333 506 415.5 506 c 0
 437.5 506 453.416666667 500.416666667 463.25 489.25 c 0
 473.083333333 478.083333333 478 463.166666667 478 444.5 c 0
EndSplineSet
EndChar

StartChar: w
Encoding: 90 119 90
Width: 719
VWidth: 500
Flags: HW
LayerCount: 2
Fore
SplineSet
723 445.5 m 0
 723 431.166666667 719.333333333 414 712 394 c 0
 704.666666667 374 695 352.416666667 683 329.25 c 0
 671 306.083333333 657.166666667 282 641.5 257 c 0
 625.833333333 232 609.75 207.333333333 593.25 183 c 0
 576.75 158.666666667 560.416666667 135.416666667 544.25 113.25 c 0
 528.083333333 91.0833333333 513.333333333 71.1666666667 500 53.5 c 0
 486.666666667 35.8333333333 475.416666667 21.1666666667 466.25 9.5 c 0
 457.083333333 -2.16666666667 451.166666667 -9.5 448.5 -12.5 c 0
 385 -12.5 l 0
 362.5 337 l 0
 347.5 304.666666667 331.833333333 272.416666667 315.5 240.25 c 0
 299.166666667 208.083333333 282.833333333 177 266.5 147 c 0
 250.166666667 117 234.083333333 88.4166666667 218.25 61.25 c 0
 202.416666667 34.0833333333 187.333333333 9.5 173 -12.5 c 0
 97.5 -12.5 l 0
 107.5 11.5 l 0
 79 434 l 0
 2 442.5 l 0
 2 471 l 0
 126 506 l 0
 172 503 l 0
 194.5 120 l 0
 207.833333333 144.333333333 221.833333333 171.166666667 236.5 200.5 c 0
 251.166666667 229.833333333 266 260.083333333 281 291.25 c 0
 296 322.416666667 310.833333333 354.083333333 325.5 386.25 c 0
 340.166666667 418.416666667 354.166666667 449.833333333 367.5 480.5 c 0
 444.5 489.5 l 0
 470 99.5 l 0
 501.666666667 140.166666667 529.5 182 553.5 225 c 0
 577.5 268 599.833333333 313.166666667 620.5 360.5 c 0
 600 480.5 l 0
 601.333333333 481.833333333 603.583333333 483.916666667 606.75 486.75 c 0
 609.916666667 489.583333333 614.166666667 492.416666667 619.5 495.25 c 0
 624.833333333 498.083333333 631 500.583333333 638 502.75 c 0
 645 504.916666667 652.833333333 506 661.5 506 c 0
 673.833333333 506 683.916666667 503.583333333 691.75 498.75 c 0
 699.583333333 493.916666667 705.833333333 488.25 710.5 481.75 c 0
 715.166666667 475.25 718.416666667 468.583333333 720.25 461.75 c 0
 722.083333333 454.916666667 723 449.5 723 445.5 c 0
EndSplineSet
EndChar

StartChar: x
Encoding: 91 120 91
Width: 540
VWidth: 500
Flags: HW
LayerCount: 2
Fore
SplineSet
552 445.5 m 0
 552 432.166666667 547.583333333 419.416666667 538.75 407.25 c 0
 529.916666667 395.083333333 515.5 385.666666667 495.5 379 c 0
 450.5 419 l 0
 441.5 415.333333333 431.5 408.75 420.5 399.25 c 0
 409.5 389.75 398.25 377.583333333 386.75 362.75 c 0
 375.25 347.916666667 363.833333333 330.666666667 352.5 311 c 0
 341.166666667 291.333333333 330.5 269.666666667 320.5 246 c 0
 322.5 239.666666667 324.916666667 231.75 327.75 222.25 c 0
 330.583333333 212.75 333.833333333 202.416666667 337.5 191.25 c 0
 341.166666667 180.083333333 345.083333333 168.583333333 349.25 156.75 c 0
 353.416666667 144.916666667 357.833333333 133.666666667 362.5 123 c 0
 367.5 112 372.75 101.666666667 378.25 92 c 0
 383.75 82.3333333333 389.5 73.8333333333 395.5 66.5 c 0
 401.5 59.1666666667 407.583333333 53.4166666667 413.75 49.25 c 0
 419.916666667 45.0833333333 426 43 432 43 c 0
 439.666666667 43 447.916666667 43.75 456.75 45.25 c 0
 465.583333333 46.75 476.833333333 50.8333333333 490.5 57.5 c 0
 490.5 20.5 l 0
 470.833333333 10.1666666667 451.416666667 2.08333333333 432.25 -3.75 c 0
 413.083333333 -9.58333333333 392.5 -12.5 370.5 -12.5 c 0
 359.166666667 -12.5 348.666666667 -9.41666666667 339 -3.25 c 0
 329.333333333 2.91666666667 320.416666667 11 312.25 21 c 0
 304.083333333 31 296.583333333 42.5833333333 289.75 55.75 c 0
 282.916666667 68.9166666667 276.833333333 82.5 271.5 96.5 c 0
 266.166666667 110.5 261.416666667 124.5 257.25 138.5 c 0
 253.083333333 152.5 249.666666667 165.333333333 247 177 c 0
 237.333333333 159 226.25 139.083333333 213.75 117.25 c 0
 201.25 95.4166666667 187 74.8333333333 171 55.5 c 0
 155 36.1666666667 137.25 20 117.75 7 c 0
 98.25 -6 76.6666666667 -12.5 53 -12.5 c 0
 32 -12.5 14.8333333333 -7.58333333333 1.5 2.25 c 0
 -11.8333333333 12.0833333333 -18.5 26 -18.5 44 c 0
 -18.5 60.6666666667 -13.0833333333 74 -2.25 84 c 0
 8.58333333333 94 24.3333333333 100.833333333 45 104.5 c 0
 88 63.5 l 0
 98.3333333333 69.8333333333 109.25 78.5 120.75 89.5 c 0
 132.25 100.5 143.916666667 113.75 155.75 129.25 c 0
 167.583333333 144.75 179.083333333 162.5 190.25 182.5 c 0
 201.416666667 202.5 211.666666667 224.666666667 221 249 c 0
 219.333333333 255.666666667 216.666666667 264.833333333 213 276.5 c 0
 209.333333333 288.166666667 204.916666667 300.583333333 199.75 313.75 c 0
 194.583333333 326.916666667 189.166666667 340.333333333 183.5 354 c 0
 177.833333333 367.666666667 172.333333333 380.083333333 167 391.25 c 0
 161.666666667 402.416666667 156.833333333 411.583333333 152.5 418.75 c 0
 148.166666667 425.916666667 144.833333333 429.666666667 142.5 430 c 0
 53 441.5 l 0
 53 469 l 0
 56 470 60.8333333333 471.583333333 67.5 473.75 c 0
 74.1666666667 475.916666667 81.75 478.416666667 90.25 481.25 c 0
 98.75 484.083333333 107.583333333 486.916666667 116.75 489.75 c 0
 125.916666667 492.583333333 134.5 495.25 142.5 497.75 c 0
 150.5 500.25 157.5 502.25 163.5 503.75 c 0
 169.5 505.25 173.666666667 506 176 506 c 0
 188 506 199.333333333 501.666666667 210 493 c 0
 220.666666667 484.333333333 230.75 471.666666667 240.25 455 c 0
 249.75 438.333333333 258.75 418 267.25 394 c 0
 275.75 370 284 342.5 292 311.5 c 0
 302 330.833333333 313.916666667 351.833333333 327.75 374.5 c 0
 341.583333333 397.166666667 356.833333333 418.25 373.5 437.75 c 0
 390.166666667 457.25 408.25 473.5 427.75 486.5 c 0
 447.25 499.5 467.833333333 506 489.5 506 c 0
 508.166666667 506 523.25 500.416666667 534.75 489.25 c 0
 546.25 478.083333333 552 463.5 552 445.5 c 0
EndSplineSet
EndChar

StartChar: y
Encoding: 92 121 92
Width: 509
VWidth: 500
Flags: HW
LayerCount: 2
Fore
SplineSet
485.5 423 m 0
 481.5 419 475.666666667 411.666666667 468 401 c 0
 460.333333333 390.333333333 452.416666667 378.333333333 444.25 365 c 0
 436.083333333 351.666666667 428.083333333 337.916666667 420.25 323.75 c 0
 412.416666667 309.583333333 406.166666667 297.166666667 401.5 286.5 c 0
 394.166666667 270.166666667 385.583333333 250.333333333 375.75 227 c 0
 365.916666667 203.666666667 354.916666667 178.583333333 342.75 151.75 c 0
 330.583333333 124.916666667 317.333333333 97.0833333333 303 68.25 c 0
 288.666666667 39.4166666667 273.333333333 11.1666666667 257 -16.5 c 0
 241 -43.5 223.916666667 -70.0833333333 205.75 -96.25 c 0
 187.583333333 -122.416666667 168.333333333 -145.75 148 -166.25 c 0
 127.666666667 -186.75 106.25 -203.25 83.75 -215.75 c 0
 61.25 -228.25 37.8333333333 -234.5 13.5 -234.5 c 0
 -5.16666666667 -234.5 -20.6666666667 -232.166666667 -33 -227.5 c 0
 -45.3333333333 -222.833333333 -55.1666666667 -217.083333333 -62.5 -210.25 c 0
 -69.8333333333 -203.416666667 -74.9166666667 -196.083333333 -77.75 -188.25 c 0
 -80.5833333333 -180.416666667 -82 -173.333333333 -82 -167 c 0
 -82 -159.333333333 -80.25 -151.916666667 -76.75 -144.75 c 0
 -73.25 -137.583333333 -68.3333333333 -131.25 -62 -125.75 c 0
 -55.6666666667 -120.25 -48.1666666667 -115.833333333 -39.5 -112.5 c 0
 -30.8333333333 -109.166666667 -21.5 -107.166666667 -11.5 -106.5 c 0
 48 -166 l 0
 58.6666666667 -165 69.1666666667 -160.75 79.5 -153.25 c 0
 89.8333333333 -145.75 100.75 -134.5 112.25 -119.5 c 0
 123.75 -104.5 136.333333333 -85.6666666667 150 -63 c 0
 163.666666667 -40.3333333333 179.166666667 -13.1666666667 196.5 18.5 c 0
 195.833333333 22.5 194.166666667 31.4166666667 191.5 45.25 c 0
 188.833333333 59.0833333333 185.583333333 75.9166666667 181.75 95.75 c 0
 177.916666667 115.583333333 173.583333333 137.5 168.75 161.5 c 0
 163.916666667 185.5 158.833333333 209.833333333 153.5 234.5 c 0
 148.166666667 258.5 142.583333333 282.583333333 136.75 306.75 c 0
 130.916666667 330.916666667 125.25 352.666666667 119.75 372 c 0
 114.25 391.333333333 109.333333333 407.166666667 105 419.5 c 0
 100.666666667 431.833333333 97.3333333333 438.166666667 95 438.5 c 0
 2 445.5 l 0
 2 471 l 0
 16 475.5 l 0
 22.6666666667 477.833333333 30 480.25 38 482.75 c 0
 46 485.25 54.5 487.916666667 63.5 490.75 c 0
 72.5 493.583333333 81 496.083333333 89 498.25 c 0
 97 500.416666667 104.25 502.25 110.75 503.75 c 0
 117.25 505.25 122 506 125 506 c 0
 136 506 145.666666667 503.416666667 154 498.25 c 0
 162.333333333 493.083333333 169.75 485.666666667 176.25 476 c 0
 182.75 466.333333333 188.75 454.75 194.25 441.25 c 0
 199.75 427.75 205 412.5 210 395.5 c 0
 218.666666667 365.166666667 227.666666667 327.583333333 237 282.75 c 0
 246.333333333 237.916666667 256 188 266 133 c 0
 422 506 l 0
 451.5 506 l 0
 536.5 478 l 0
 536.5 454.5 l 0
 485.5 423 l 0
EndSplineSet
EndChar

StartChar: z
Encoding: 93 122 93
Width: 455
VWidth: 500
Flags: HW
LayerCount: 2
Fore
SplineSet
113.5 72.5 m 0
 199.5 95 l 0
 206.5 92.3333333333 214.5 89.0833333333 223.5 85.25 c 0
 232.5 81.4166666667 241.75 77.6666666667 251.25 74 c 0
 260.75 70.3333333333 270 67.1666666667 279 64.5 c 0
 288 61.8333333333 296 60.5 303 60.5 c 0
 310.333333333 60.5 316.75 61.5833333333 322.25 63.75 c 0
 327.75 65.9166666667 332.583333333 68.6666666667 336.75 72 c 0
 340.916666667 75.3333333333 344.666666667 78.9166666667 348 82.75 c 0
 351.333333333 86.5833333333 354.5 90.3333333333 357.5 94 c 0
 301 156.5 l 0
 304.333333333 162.5 308.333333333 167.916666667 313 172.75 c 0
 317.666666667 177.583333333 322.583333333 181.666666667 327.75 185 c 0
 332.916666667 188.333333333 338.166666667 190.916666667 343.5 192.75 c 0
 348.833333333 194.583333333 353.833333333 195.5 358.5 195.5 c 0
 367.833333333 195.5 376.083333333 193.583333333 383.25 189.75 c 0
 390.416666667 185.916666667 396.5 181 401.5 175 c 0
 406.5 169 410.333333333 162.166666667 413 154.5 c 0
 415.666666667 146.833333333 417 139.333333333 417 132 c 0
 417 111.333333333 412.416666667 92.1666666667 403.25 74.5 c 0
 394.083333333 56.8333333333 382.25 41.5833333333 367.75 28.75 c 0
 353.25 15.9166666667 337.25 5.83333333333 319.75 -1.5 c 0
 302.25 -8.83333333333 285.166666667 -12.5 268.5 -12.5 c 0
 252.833333333 -12.5 237.916666667 -10.25 223.75 -5.75 c 0
 209.583333333 -1.25 195.916666667 3.75 182.75 9.25 c 0
 169.583333333 14.75 156.666666667 19.8333333333 144 24.5 c 0
 131.333333333 29.1666666667 118.833333333 31.5 106.5 31.5 c 0
 103.833333333 31.5 99.9166666667 31 94.75 30 c 0
 89.5833333333 29 84.6666666667 26.1666666667 80 21.5 c 0
 54.5 -26.5 l 0
 -16.5 11.5 l 0
 331 418 l 0
 240.5 398.5 l 0
 226.5 406.166666667 212 413 197 419 c 0
 182 425 167.5 428 153.5 428 c 0
 149.166666667 428 144.333333333 427.333333333 139 426 c 0
 133.666666667 424.666666667 128.5 422.75 123.5 420.25 c 0
 118.5 417.75 113.75 414.666666667 109.25 411 c 0
 104.75 407.333333333 101.166666667 403.166666667 98.5 398.5 c 0
 152.5 333 l 0
 151.166666667 331 148.833333333 328.083333333 145.5 324.25 c 0
 142.166666667 320.416666667 138.083333333 316.583333333 133.25 312.75 c 0
 128.416666667 308.916666667 122.833333333 305.666666667 116.5 303 c 0
 110.166666667 300.333333333 103.5 299 96.5 299 c 0
 86.8333333333 299 78.4166666667 300.916666667 71.25 304.75 c 0
 64.0833333333 308.583333333 58.1666666667 313.5 53.5 319.5 c 0
 48.8333333333 325.5 45.4166666667 332.083333333 43.25 339.25 c 0
 41.0833333333 346.416666667 40 353.166666667 40 359.5 c 0
 40 375.166666667 43.25 391.583333333 49.75 408.75 c 0
 56.25 425.916666667 65.75 441.75 78.25 456.25 c 0
 90.75 470.75 105.916666667 482.666666667 123.75 492 c 0
 141.583333333 501.333333333 161.833333333 506 184.5 506 c 0
 199.833333333 506 214.583333333 503.333333333 228.75 498 c 0
 242.916666667 492.666666667 256.333333333 486.75 269 480.25 c 0
 281.666666667 473.75 293.75 467.833333333 305.25 462.5 c 0
 316.75 457.166666667 327.666666667 454.5 338 454.5 c 0
 340 454.5 342.833333333 454.916666667 346.5 455.75 c 0
 350.166666667 456.583333333 355.166666667 458.666666667 361.5 462 c 0
 384 519 l 0
 461 479 l 0
 113.5 72.5 l 0
EndSplineSet
EndChar

StartChar: braceleft
Encoding: 94 123 94
Width: 497
VWidth: 500
Flags: HW
LayerCount: 2
Fore
SplineSet
516 677 m 0
 488.333333333 677 465.5 673.666666667 447.5 667 c 0
 429.5 660.333333333 414.833333333 651.666666667 403.5 641 c 0
 391.833333333 630 382.75 617 376.25 602 c 0
 369.75 587 364.5 571 360.5 554 c 0
 356.5 537 353.083333333 519.333333333 350.25 501 c 0
 347.416666667 482.666666667 343.833333333 464.666666667 339.5 447 c 0
 335.166666667 429.333333333 329.416666667 412.416666667 322.25 396.25 c 0
 315.083333333 380.083333333 305 365.5 292 352.5 c 0
 280.666666667 341.833333333 266.416666667 331.75 249.25 322.25 c 0
 232.083333333 312.75 210.5 304.666666667 184.5 298 c 0
 199.833333333 292.666666667 213.166666667 287.083333333 224.5 281.25 c 0
 235.833333333 275.416666667 245.666666667 268.666666667 254 261 c 0
 264.666666667 251 272.25 239.5 276.75 226.5 c 0
 281.25 213.5 283.666666667 199.666666667 284 185 c 0
 284.333333333 170.333333333 283.25 155 280.75 139 c 0
 278.25 123 275.333333333 107.083333333 272 91.25 c 0
 268.666666667 75.4166666667 265.5 59.8333333333 262.5 44.5 c 0
 259.5 29.1666666667 257.666666667 14.8333333333 257 1.5 c 0
 256.333333333 -11.8333333333 257.416666667 -24 260.25 -35 c 0
 263.083333333 -46 268.833333333 -55.1666666667 277.5 -62.5 c 0
 282.833333333 -67.1666666667 289 -70.8333333333 296 -73.5 c 0
 303 -76.1666666667 310.416666667 -78.25 318.25 -79.75 c 0
 326.083333333 -81.25 334.25 -82.1666666667 342.75 -82.5 c 0
 351.25 -82.8333333333 359.5 -83 367.5 -83 c 0
 359.5 -126 l 0
 340.833333333 -126 322.833333333 -125.583333333 305.5 -124.75 c 0
 288.166666667 -123.916666667 272.083333333 -122 257.25 -119 c 0
 242.416666667 -116 228.916666667 -111.75 216.75 -106.25 c 0
 204.583333333 -100.75 194.166666667 -93.3333333333 185.5 -84 c 0
 175.833333333 -73.6666666667 169.166666667 -61.6666666667 165.5 -48 c 0
 161.833333333 -34.3333333333 160.083333333 -19.8333333333 160.25 -4.5 c 0
 160.416666667 10.8333333333 161.916666667 26.75 164.75 43.25 c 0
 167.583333333 59.75 170.75 76.3333333333 174.25 93 c 0
 177.75 109.666666667 181.083333333 125.916666667 184.25 141.75 c 0
 187.416666667 157.583333333 189.25 172.5 189.75 186.5 c 0
 190.25 200.5 188.916666667 213.333333333 185.75 225 c 0
 182.583333333 236.666666667 176.666666667 246.333333333 168 254 c 0
 162 259.666666667 154.833333333 263.833333333 146.5 266.5 c 0
 138.166666667 269.166666667 129.25 271 119.75 272 c 0
 110.25 273 100.333333333 273.5 90 273.5 c 0
 59.5 273.5 l 0
 68.5 320.5 l 0
 82.5 320.5 95.75 320.666666667 108.25 321 c 0
 120.75 321.333333333 132.333333333 322.5 143 324.5 c 0
 153.666666667 326.5 163.583333333 329.583333333 172.75 333.75 c 0
 181.916666667 337.916666667 190.166666667 343.666666667 197.5 351 c 0
 210.166666667 363 219.916666667 377.916666667 226.75 395.75 c 0
 233.583333333 413.583333333 239.083333333 432.666666667 243.25 453 c 0
 247.416666667 473.333333333 251.333333333 494.416666667 255 516.25 c 0
 258.666666667 538.083333333 263.583333333 559.333333333 269.75 580 c 0
 275.916666667 600.666666667 284.333333333 619.916666667 295 637.75 c 0
 305.666666667 655.583333333 320.333333333 670.666666667 339 683 c 0
 360 697.333333333 385.583333333 707.083333333 415.75 712.25 c 0
 445.916666667 717.416666667 481.833333333 720 523.5 720 c 0
 516 677 l 0
EndSplineSet
EndChar

StartChar: bar
Encoding: 95 124 95
Width: 362
VWidth: 500
Flags: HW
LayerCount: 2
Fore
SplineSet
150 -264 m 0
 150 815 l 0
 212 815 l 0
 212 -264 l 0
 150 -264 l 0
EndSplineSet
EndChar

StartChar: braceright
Encoding: 96 125 96
Width: 497
VWidth: 500
Flags: HW
LayerCount: 2
Fore
SplineSet
439.5 273.5 m 0
 425.5 273.5 412.25 273.25 399.75 272.75 c 0
 387.25 272.25 375.583333333 271 364.75 269 c 0
 353.916666667 267 344 263.916666667 335 259.75 c 0
 326 255.583333333 317.833333333 249.833333333 310.5 242.5 c 0
 297.833333333 230.5 288.166666667 215.666666667 281.5 198 c 0
 274.833333333 180.333333333 269.333333333 161.333333333 265 141 c 0
 260.666666667 120.666666667 256.75 99.5 253.25 77.5 c 0
 249.75 55.5 244.916666667 34.25 238.75 13.75 c 0
 232.583333333 -6.75 224.166666667 -25.9166666667 213.5 -43.75 c 0
 202.833333333 -61.5833333333 188.333333333 -76.6666666667 170 -89 c 0
 148.333333333 -103.666666667 122.416666667 -113.5 92.25 -118.5 c 0
 62.0833333333 -123.5 26.1666666667 -126 -15.5 -126 c 0
 -8 -83 l 0
 19.6666666667 -83 42.5833333333 -79.6666666667 60.75 -73 c 0
 78.9166666667 -66.3333333333 93.8333333333 -57.6666666667 105.5 -47 c 0
 117.166666667 -36 126.166666667 -23 132.5 -8 c 0
 138.833333333 7 143.916666667 23.0833333333 147.75 40.25 c 0
 151.583333333 57.4166666667 154.833333333 75.1666666667 157.5 93.5 c 0
 160.166666667 111.833333333 163.666666667 129.833333333 168 147.5 c 0
 172.333333333 165.166666667 178.166666667 182.083333333 185.5 198.25 c 0
 192.833333333 214.416666667 203 228.833333333 216 241.5 c 0
 227.333333333 252.833333333 241.583333333 263.083333333 258.75 272.25 c 0
 275.916666667 281.416666667 297.5 289.666666667 323.5 297 c 0
 292.833333333 306 270 318 255 333 c 0
 240.666666667 346.333333333 231.666666667 362.25 228 380.75 c 0
 224.333333333 399.25 223.5 418.833333333 225.5 439.5 c 0
 227.5 460.166666667 231.083333333 481.333333333 236.25 503 c 0
 241.416666667 524.666666667 245.5 545.25 248.5 564.75 c 0
 251.5 584.25 252.25 602 250.75 618 c 0
 249.25 634 242.833333333 646.833333333 231.5 656.5 c 0
 225.833333333 661.166666667 219.416666667 664.833333333 212.25 667.5 c 0
 205.083333333 670.166666667 197.583333333 672.25 189.75 673.75 c 0
 181.916666667 675.25 173.75 676.166666667 165.25 676.5 c 0
 156.75 676.833333333 148.5 677 140.5 677 c 0
 149.5 720 l 0
 167.833333333 720 185.5 719.583333333 202.5 718.75 c 0
 219.5 717.916666667 235.416666667 716 250.25 713 c 0
 265.083333333 710 278.666666667 705.75 291 700.25 c 0
 303.333333333 694.75 313.833333333 687.333333333 322.5 678 c 0
 335.166666667 664 342.833333333 647.416666667 345.5 628.25 c 0
 348.166666667 609.083333333 348.166666667 588.666666667 345.5 567 c 0
 342.833333333 545.333333333 338.833333333 523.333333333 333.5 501 c 0
 328.166666667 478.666666667 324.083333333 457.25 321.25 436.75 c 0
 318.416666667 416.25 317.916666667 397.583333333 319.75 380.75 c 0
 321.583333333 363.916666667 328.333333333 350.333333333 340 340 c 0
 346 334.333333333 353.166666667 330.166666667 361.5 327.5 c 0
 369.833333333 324.833333333 378.75 323 388.25 322 c 0
 397.75 321 407.666666667 320.5 418 320.5 c 0
 448.5 320.5 l 0
 439.5 273.5 l 0
EndSplineSet
EndChar

StartChar: asciitilde
Encoding: 97 126 97
Width: 853
VWidth: 500
Flags: HW
LayerCount: 2
Fore
SplineSet
386 156.75 m 0
 376.166666667 149.916666667 367 144.208333333 358.5 139.625 c 0
 350 135.041666667 341.875 131.333333333 334.125 128.5 c 0
 326.375 125.666666667 318.875 123.666666667 311.625 122.5 c 0
 304.375 121.333333333 297.083333333 120.75 289.75 120.75 c 0
 277.583333333 120.75 265.5 122.541666667 253.5 126.125 c 0
 241.5 129.708333333 229.416666667 133.666666667 217.25 138 c 0
 205.083333333 142.333333333 192.75 146.291666667 180.25 149.875 c 0
 167.75 153.458333333 154.916666667 155.25 141.75 155.25 c 0
 128.75 155.25 114.208333333 151.708333333 98.125 144.625 c 0
 82.0416666667 137.541666667 65.4166666667 127.75 48.25 115.25 c 0
 48.25 148.5 l 0
 66.4166666667 161.5 83.6666666667 170.791666667 100 176.375 c 0
 116.333333333 181.958333333 131.5 184.75 145.5 184.75 c 0
 157.833333333 184.75 170.25 182.958333333 182.75 179.375 c 0
 195.25 175.791666667 207.583333333 171.875 219.75 167.625 c 0
 231.916666667 163.375 243.916666667 159.458333333 255.75 155.875 c 0
 267.583333333 152.291666667 279.083333333 150.5 290.25 150.5 c 0
 296.416666667 150.5 302.958333333 151.166666667 309.875 152.5 c 0
 316.791666667 153.833333333 324.166666667 156.041666667 332 159.125 c 0
 339.833333333 162.208333333 348.208333333 166.25 357.125 171.25 c 0
 366.041666667 176.25 375.666666667 182.5 386 190 c 0
 386 156.75 l 0
EndSplineSet
EndChar

StartChar: inherent
Encoding: 103 -1 98
Width: 163
Flags: HW
LayerCount: 2
Fore
SplineSet
320 737 m 1
 312 695 288.666666667 660 250 632 c 1
 212.666666667 602.666666667 171.333333333 588 126 588 c 1
 147 683 l 1
 162.333333333 683 175.333333333 688.333333333 186 699 c 1
 200 709.666666667 208.333333333 722 211 736 c 2
 225 804 l 1
 334 804 l 1
 320 737 l 1
EndSplineSet
EndChar

StartChar: makewide
Encoding: 104 -1 99
Width: 330
Flags: HW
LayerCount: 2
Fore
SplineSet
454 131 m 2
 446 95.6666666667 429 65 403 39 c 128
 377 13 348.666666667 0 318 0 c 2
 176 0 l 2
 145.333333333 0 117 9.33333333333 91 28 c 128
 65 46.6666666667 43.6666666667 71.6666666667 27 103 c 1
 60 259 l 1
 72.6666666667 209 93 169.333333333 121 140 c 1
 150.333333333 110.666666667 181.333333333 96 214 96 c 2
 303 96 l 2
 313 96 322 101.333333333 330 112 c 0
 334.666666667 117.333333333 338.166666667 122.5 340.5 127.5 c 128
 342.833333333 132.5 345.333333333 139.666666667 348 149 c 1
 422 499 l 2
 423.333333333 508.333333333 424 515.333333333 424 520 c 0
 424 535.333333333 419 550.166666667 409 564.5 c 128
 399 578.833333333 382 586 358 586 c 2
 263 586 l 1
 284 681 l 1
 502 681 l 1
 507 586 l 1
 524.333333333 567.333333333 533 545.666666667 533 521 c 0
 533 513.666666667 532.666666667 508.333333333 532 505 c 2
 454 131 l 2
EndSplineSet
EndChar

StartChar: shortrr
Encoding: 105 -1 100
Width: 782
Flags: HW
LayerCount: 2
Fore
SplineSet
916 588 m 1
 460 588 l 2
 448 588 436.166666667 584.166666667 424.5 576.5 c 128
 412.833333333 568.833333333 405.666666667 559.666666667 403 549 c 2
 387 467 l 2
 384.333333333 451.666666667 388 439.333333333 398 430 c 1
 408 419.333333333 420.666666667 414 436 414 c 2
 605 414 l 1
 586 319 l 1
 417 319 l 2
 399.666666667 319 384 313.666666667 370 303 c 1
 355.333333333 293.666666667 346.666666667 281.333333333 344 266 c 2
 322 164 l 1
 321.333333333 156.666666667 321 151.333333333 321 148 c 0
 321 142 323.333333333 133.666666667 328 123 c 128
 332.666666667 112.333333333 339.666666667 105.666666667 349 103 c 1
 431 103 l 1
 412 8 l 1
 289 8 l 2
 261 8 238 18.6666666667 220 40 c 0
 208 54.6666666667 202 72 202 92 c 0
 202 96.6666666667 202.666666667 104.333333333 204 115 c 1
 237 273 l 1
 240.333333333 296.333333333 252.333333333 317 273 335 c 128
 293.666666667 353 317.333333333 364.333333333 344 369 c 1
 319.333333333 375 301.5 385.333333333 290.5 400 c 128
 279.5 414.666666667 274 429.333333333 274 444 c 0
 274 448.666666667 274.666666667 454.666666667 276 462 c 2
 301 585 l 1
 308.333333333 615.666666667 325 639.333333333 351 656 c 1
 377 675.333333333 406.666666667 685 440 685 c 2
 936 685 l 1
 916 588 l 1
EndSplineSet
EndChar

StartChar: anusvara
Encoding: 107 3202 101
Width: 749
Flags: HW
LayerCount: 2
Fore
SplineSet
781 149 m 2
 773 110.333333333 753.5 75.8333333333 722.5 45.5 c 128
 691.5 15.1666666667 659.666666667 0 627 0 c 2
 326 0 l 2
 287.333333333 0 256 16.3333333333 232 49 c 1
 216.666666667 72.3333333333 209 97.6666666667 209 125 c 0
 209 137 210.333333333 149.333333333 213 162 c 2
 292 540 l 2
 300 578.666666667 321.5 611.666666667 356.5 639 c 128
 391.5 666.333333333 430 680 472 680 c 2
 746 680 l 2
 786 680 818 665.333333333 842 636 c 1
 857.333333333 612.666666667 865 588 865 562 c 0
 865 551.333333333 863.666666667 539.666666667 861 527 c 2
 781 149 l 2
677 172 m 1
 751 519 l 2
 751.666666667 523.666666667 752 529.666666667 752 537 c 0
 752 549 749.333333333 559 744 567 c 1
 734 579.666666667 721.333333333 586 706 586 c 2
 488 586 l 2
 468.666666667 586 449.666666667 580 431 568 c 1
 412.333333333 554 401.666666667 540 399 526 c 2
 324 171 l 2
 323.333333333 167.666666667 323 163 323 157 c 0
 323 144.333333333 328 131.666666667 338 119 c 1
 352.666666667 104.333333333 369.666666667 97 389 97 c 2
 601 97 l 2
 617.666666667 97 633.666666667 104.666666667 649 120 c 128
 664.333333333 135.333333333 673.666666667 152.666666667 677 172 c 1
EndSplineSet
EndChar

StartChar: u0C83
Encoding: 108 3203 102
Width: 484
Flags: HW
LayerCount: 2
Fore
SplineSet
610 464 m 2
 604.666666667 438 590.833333333 415.666666667 568.5 397 c 128
 546.166666667 378.333333333 521.666666667 369 495 369 c 2
 344 369 l 2
 314.666666667 369 291.666666667 379 275 399 c 0
 263 413.666666667 257 431 257 451 c 0
 257 459 257.333333333 465.333333333 258 470 c 2
 280 579 l 1
 287.333333333 608.333333333 303.333333333 632.333333333 328 651 c 128
 352.666666667 669.666666667 380.333333333 679 411 679 c 2
 548 679 l 2
 566.666666667 679 583.333333333 674 598 664 c 1
 612 656.666666667 622.666666667 643.333333333 630 624 c 0
 633.333333333 616.666666667 635 607 635 595 c 0
 635 590.333333333 634.333333333 582.666666667 633 572 c 1
 610 464 l 2
535 108 m 2
 529 78.6666666667 515.333333333 53.3333333333 494 32 c 128
 472.666666667 10.6666666667 450 0 426 0 c 2
 267 0 l 2
 237.666666667 0 214.666666667 10 198 30 c 0
 185.333333333 45.3333333333 179 62.6666666667 179 82 c 0
 179 85.3333333333 179.666666667 91.6666666667 181 101 c 2
 203 210 l 2
 209 238.666666667 225 262.666666667 251 282 c 128
 277 301.333333333 304.333333333 311 333 311 c 2
 470 311 l 2
 500.666666667 311 523.666666667 300 539 278 c 1
 549.666666667 261.333333333 555 243 555 223 c 0
 555 217.666666667 554.333333333 209.666666667 553 199 c 1
 535 108 l 2
507 491 m 2
 519 552 l 1
 521.666666667 561.333333333 521 569.166666667 517 575.5 c 128
 513 581.833333333 505.666666667 585 495 585 c 2
 432 585 l 2
 422.666666667 585 413 582 403 576 c 128
 393 570 386.666666667 562 384 552 c 2
 373 498 l 1
 371.666666667 488 374 479.833333333 380 473.5 c 128
 386 467.166666667 393.666666667 464 403 464 c 2
 471 464 l 2
 477 464 484.166666667 466.666666667 492.5 472 c 128
 500.833333333 477.333333333 505.666666667 483.666666667 507 491 c 2
430 122 m 2
 442 185 l 1
 444.666666667 195 444.666666667 202.666666667 442 208 c 256
 439.333333333 213.333333333 435.333333333 216 430 216 c 2
 349 216 l 2
 339 216 330.166666667 213.5 322.5 208.5 c 128
 314.833333333 203.5 310.333333333 197.333333333 309 190 c 2
 297 130 l 1
 296.333333333 120.666666667 297.333333333 112.333333333 300 105 c 1
 304.666666667 97.6666666667 310 94 316 94 c 2
 398 94 l 2
 405.333333333 94 412.166666667 96.5 418.5 101.5 c 128
 424.833333333 106.5 428.666666667 113.333333333 430 122 c 2
EndSplineSet
EndChar

StartChar: avowel
Encoding: 109 3205 103
Width: 972
Flags: HW
LayerCount: 2
Fore
SplineSet
1033 137 m 2
 1025 99.6666666667 1005 67.5 973 40.5 c 128
 941 13.5 906 0 868 0 c 2
 341 0 l 2
 299 0 265.666666667 14 241 42 c 1
 223.666666667 60.6666666667 215 83 215 109 c 0
 215 121 215.666666667 130 217 136 c 2
 303 546 l 2
 311 584 331 616 363 642 c 128
 395 668 429.666666667 681 467 681 c 2
 643 681 l 1
 597 463 l 1
 490 463 l 1
 515 586 l 1
 473 586 l 2
 458.333333333 586 444.666666667 578.333333333 432 563 c 1
 417.333333333 548.333333333 407.666666667 529 403 505 c 2
 332 172 l 2
 331.333333333 168.666666667 331 164 331 158 c 0
 331 144 335.666666667 131 345 119 c 1
 361.666666667 104.333333333 379.333333333 97 398 97 c 2
 840 97 l 2
 854 97 868 101.333333333 882 110 c 128
 896 118.666666667 908 130.333333333 918 145 c 1
 923.333333333 154.333333333 927.333333333 162 930 168 c 128
 932.666666667 174 934.666666667 182 936 192 c 1
 1008 533 l 2
 1010.66666667 547 1008.33333333 560 1001 572 c 1
 991 582 979 587 965 587 c 2
 923 587 l 1
 908 513 l 2
 906.666666667 503.666666667 906 497.333333333 906 494 c 0
 906 466 922.333333333 438 955 410 c 1
 936 315 l 1
 526 315 l 1
 545 410 l 1
 832 410 l 1
 808.666666667 439.333333333 797 466 797 490 c 0
 797 496 797.333333333 500.333333333 798 503 c 2
 835 680 l 1
 998 680 l 2
 1026.66666667 680 1050.33333333 674 1069 662 c 1
 1090.33333333 651.333333333 1105.66666667 636.333333333 1115 617 c 1
 1120.33333333 604.333333333 1123 591.666666667 1123 579 c 0
 1123 568.333333333 1122.33333333 560.333333333 1121 555 c 2
 1033 137 l 2
EndSplineSet
EndChar

StartChar: aavowel
Encoding: 110 3206 104
Width: 1041
Flags: HW
LayerCount: 2
Fore
SplineSet
1178 489 m 1
 1172 452.333333333 1153.66666667 420.5 1123 393.5 c 128
 1092.33333333 366.5 1060.66666667 353 1028 353 c 2
 986 353 l 1
 1006 323.666666667 1014.66666667 301.333333333 1012 286 c 2
 975 104 l 2
 969 75.3333333333 952 50.8333333333 924 30.5 c 128
 896 10.1666666667 865 0 831 0 c 2
 318 2 l 2
 282.666666667 2 255.333333333 15.3333333333 236 42 c 0
 222 60.6666666667 215 82 215 106 c 0
 215 116 216.333333333 126.333333333 219 137 c 2
 305 547 l 2
 313 585 335.833333333 617 373.5 643 c 128
 411.166666667 669 452.333333333 682 497 682 c 2
 634 682 l 1
 588 464 l 1
 479 464 l 1
 504 587 l 1
 482 587 l 2
 466.666666667 587 451.666666667 580.833333333 437 568.5 c 128
 422.333333333 556.166666667 413.666666667 542.666666667 411 528 c 2
 336 173 l 2
 335.333333333 168.333333333 335 162.333333333 335 155 c 0
 335 141 338 129 344 119 c 1
 356 104.333333333 370.333333333 97 387 97 c 2
 797 97 l 2
 815.666666667 97 833.5 104.666666667 850.5 120 c 128
 867.5 135.333333333 877.666666667 153 881 173 c 1
 906 287 l 1
 909.333333333 305.666666667 902 328.333333333 884 355 c 1
 606 355 l 1
 625 450 l 1
 871 450 l 1
 859 474.666666667 853.333333333 491.666666667 854 501 c 1
 872 583 l 2
 877.333333333 609.666666667 893.666666667 632 921 650 c 128
 948.333333333 668 979 677 1013 677 c 2
 1101 677 l 2
 1134.33333333 677 1159.33333333 666 1176 644 c 1
 1190 627.333333333 1197 609 1197 589 c 0
 1197 583.666666667 1196.33333333 575.666666667 1195 565 c 1
 1178 489 l 1
1069 497 m 1
 1080 544 l 2
 1080.66666667 548.666666667 1081 554.666666667 1081 562 c 0
 1081 576.666666667 1074.66666667 584 1062 584 c 2
 1022 584 l 2
 1011.33333333 584 1000.66666667 579.833333333 990 571.5 c 128
 979.333333333 563.166666667 973.666666667 554 973 544 c 1
 966 511 l 2
 964.666666667 503.666666667 964 498.333333333 964 495 c 0
 964 487 965.166666667 480.333333333 967.5 475 c 128
 969.833333333 469.666666667 974 462 980 452 c 1
 1026 452 l 2
 1036 452 1045.16666667 456.166666667 1053.5 464.5 c 128
 1061.83333333 472.833333333 1067 483.666666667 1069 497 c 1
EndSplineSet
EndChar

StartChar: ivowel
Encoding: 111 3207 105
Width: 785
Flags: HW
LayerCount: 2
Fore
SplineSet
812 0 m 1
 744 0 l 2
 710.666666667 0 684.333333333 10.6666666667 665 32 c 0
 650.333333333 48.6666666667 643 66.6666666667 643 86 c 0
 643 89.3333333333 643.666666667 96.3333333333 645 107 c 1
 659 175 l 1
 550 175 l 2
 519.333333333 175 495.666666667 183.666666667 479 201 c 0
 466.333333333 213.666666667 460 229 460 247 c 0
 460 253 460.333333333 257.666666667 461 261 c 2
 476 335 l 2
 479.333333333 352.333333333 492 368.333333333 514 383 c 1
 538 395.666666667 563 402 589 402 c 2
 706 402 l 2
 723.333333333 402 739 396.666666667 753 386 c 1
 765 374 772.333333333 359.666666667 775 343 c 1
 815 534 l 2
 817.666666667 548.666666667 814 559.666666667 804 567 c 1
 796 575 782.333333333 579 763 579 c 2
 689 579 l 2
 670.333333333 579 653.166666667 573.166666667 637.5 561.5 c 128
 621.833333333 549.833333333 612.666666667 537.666666667 610 525 c 2
 596 457 l 1
 489 457 l 1
 501 520 l 2
 504.333333333 534.666666667 500.5 548.166666667 489.5 560.5 c 128
 478.5 572.833333333 463.666666667 579 445 579 c 2
 354 579 l 2
 337.333333333 579 322 573.5 308 562.5 c 128
 294 551.5 285.666666667 539 283 525 c 2
 269 457 l 2
 268.333333333 454.333333333 268 451.5 268 448.5 c 128
 268 444 268 444 268 443 c 0
 268 433.666666667 270.666666667 426.333333333 276 421 c 1
 281.333333333 410.333333333 290 405 302 405 c 2
 324 405 l 1
 305 310 l 1
 256 310 l 2
 222 310 195 323 175 349 c 0
 161 367.666666667 154 389 154 413 c 0
 154 423.666666667 154.666666667 432 156 438 c 2
 177 540 l 2
 182.333333333 564.666666667 193.833333333 587.5 211.5 608.5 c 128
 229.166666667 629.5 249.833333333 645.833333333 273.5 657.5 c 128
 297.166666667 669.166666667 322 675 348 675 c 2
 478 675 l 2
 504 675 526 668.833333333 544 656.5 c 128
 562 644.166666667 571 628 571 608 c 1
 583.666666667 629.333333333 600 645.333333333 620 656 c 1
 638.666666667 668.666666667 659 675 681 675 c 2
 804 675 l 2
 847.333333333 675 879.666666667 661.666666667 901 635 c 1
 917.666666667 616.333333333 926 594 926 568 c 0
 926 557.333333333 924.666666667 546.666666667 922 536 c 2
 886 364 l 2
 873.333333333 305.333333333 834 249 768 195 c 1
 754 127 l 1
 751.333333333 119 752.666666667 111 758 103 c 1
 765.333333333 95.6666666667 772 92 778 92 c 2
 827 92 l 1
 812 0 l 1
673 269 m 1
 677 283 l 1
 680.333333333 301.666666667 673.333333333 311 656 311 c 2
 593 311 l 2
 587.666666667 311 583 309.5 579 306.5 c 128
 575 303.5 572.333333333 299 571 293 c 0
 570.333333333 287.666666667 571.333333333 282.666666667 574 278 c 128
 576.666666667 273.333333333 580.333333333 271 585 271 c 2
 673 269 l 1
EndSplineSet
EndChar

StartChar: iivowel
Encoding: 112 3208 106
Width: 1219
Flags: HW
LayerCount: 2
Fore
SplineSet
1335 404 m 2
 1329.66666667 377.333333333 1314.66666667 350.666666667 1290 324 c 1
 1263.33333333 299.333333333 1233 281 1199 269 c 1
 1239.66666667 207 1258.33333333 166.666666667 1255 148 c 2
 1241 80 l 1
 1235.66666667 58.6666666667 1225.66666667 40.6666666667 1211 26 c 128
 1196.33333333 11.3333333333 1180.33333333 4 1163 4 c 2
 940 4 l 1
 959 99 l 1
 1101 99 l 2
 1109 99 1118 102.666666667 1128 110 c 1
 1137.33333333 119.333333333 1142.33333333 127.666666667 1143 135 c 1
 1144 140 l 1
 1146.66666667 157.333333333 1140.66666667 173.333333333 1126 188 c 1
 1076 262 l 1
 857 262 l 1
 829 134 l 2
 821 98.6666666667 802.166666667 68 772.5 42 c 128
 742.833333333 16 709.333333333 3 672 3 c 2
 329 3 l 2
 299.666666667 3 275.666666667 14.6666666667 257 38 c 0
 244.333333333 53.3333333333 238 72.6666666667 238 96 c 0
 238 100.666666667 238.666666667 108.333333333 240 119 c 1
 270 261 l 1
 163 261 l 1
 182 356 l 1
 289 356 l 1
 308 445 l 1
 317.333333333 493 354.666666667 540.333333333 420 587 c 1
 325 587 l 1
 346 682 l 1
 837 682 l 2
 849.666666667 682 860.166666667 686.166666667 868.5 694.5 c 128
 876.833333333 702.833333333 882.333333333 712.333333333 885 723 c 2
 896 777 l 1
 1006 777 l 1
 995 723 l 1
 989 689.666666667 971.333333333 659.666666667 942 633 c 1
 915.333333333 606.333333333 882.666666667 589.333333333 844 582 c 1
 866 564.666666667 882 546.333333333 892 527 c 0
 896.666666667 519 899.833333333 510.333333333 901.5 501 c 128
 903.166666667 491.666666667 903.333333333 483 902 475 c 2
 877 358 l 1
 1019 358 l 1
 1006.33333333 372.666666667 1000 390 1000 410 c 0
 1000 418 1001.33333333 427.333333333 1004 438 c 2
 1019 513 l 1
 1026.33333333 544.333333333 1042.33333333 571 1067 593 c 1
 1095 615 1123.33333333 626 1152 626 c 2
 1266 626 l 2
 1299.33333333 626 1324.33333333 614 1341 590 c 1
 1353.66666667 574.666666667 1360 555 1360 531 c 0
 1360 525 1359.33333333 516.666666667 1358 506 c 1
 1335 404 l 2
1230 420 m 2
 1245 494 l 2
 1247.66666667 504.666666667 1246.66666667 513.833333333 1242 521.5 c 128
 1237.33333333 529.166666667 1229.66666667 533 1219 533 c 2
 1165 533 l 2
 1155.66666667 533 1147.16666667 529.333333333 1139.5 522 c 128
 1131.83333333 514.666666667 1127.66666667 507.333333333 1127 500 c 1
 1111 419 l 2
 1108.33333333 407 1109.66666667 396 1115 386 c 1
 1151 360 l 1
 1169.66666667 357.333333333 1186.83333333 362.666666667 1202.5 376 c 128
 1218.16666667 389.333333333 1227.33333333 404 1230 420 c 2
767 360 m 1
 793 483 l 1
 794.333333333 493.666666667 795 501.666666667 795 507 c 0
 795 543 779.333333333 571 748 591 c 1
 536 591 l 1
 470 550.333333333 431.666666667 504.333333333 421 453 c 2
 400 358 l 1
 767 360 l 1
730 175 m 1
 748 263 l 1
 380 263 l 1
 358 161 l 2
 355.333333333 145.666666667 358.166666667 131.5 366.5 118.5 c 128
 374.833333333 105.5 386 99 400 99 c 2
 644 99 l 2
 661.333333333 99 678.333333333 106.166666667 695 120.5 c 128
 711.666666667 134.833333333 723.333333333 153 730 175 c 1
EndSplineSet
EndChar

StartChar: uvowel
Encoding: 113 3209 107
Width: 1463
Flags: HW
LayerCount: 2
Fore
SplineSet
1526 145 m 2
 1520.66666667 119 1509.66666667 95 1493 73 c 1
 1478.33333333 51 1458.66666667 33.5 1434 20.5 c 128
 1409.33333333 7.5 1385 1 1361 1 c 2
 1175 1 l 2
 1147 1 1122.83333333 7.16666666667 1102.5 19.5 c 128
 1082.16666667 31.8333333333 1067 49.6666666667 1057 73 c 1
 1051.66666667 88.3333333333 1049 104.333333333 1049 121 c 0
 1049 125 1049.66666667 132.333333333 1051 143 c 1
 1135 539 l 2
 1137.66666667 553 1135.16666667 564.166666667 1127.5 572.5 c 128
 1119.83333333 580.833333333 1109 585 1095 585 c 2
 918 585 l 2
 908 585 896.666666667 581 884 573 c 1
 873.333333333 563 866.666666667 552 864 540 c 2
 779 136 l 2
 773 110 761.833333333 87 745.5 67 c 128
 729.166666667 47 708 30.8333333333 682 18.5 c 128
 656 6.16666666667 629 0 601 0 c 2
 355 0 l 2
 310.333333333 0 275.666666667 15.3333333333 251 46 c 1
 232.333333333 67.3333333333 223 92.3333333333 223 121 c 0
 223 131.666666667 224.333333333 143.333333333 227 156 c 2
 306 531 l 2
 311.333333333 557.666666667 321.666666667 582.666666667 337 606 c 1
 345 616.666666667 354.5 626.666666667 365.5 636 c 128
 376.5 645.333333333 387.333333333 653 398 659 c 1
 424 671.666666667 448 678 470 678 c 2
 674 678 l 1
 632 483 l 2
 624 445.666666667 606 414.5 578 389.5 c 128
 550 364.5 519.666666667 352 487 352 c 2
 413 352 l 1
 432 447 l 1
 478 447 l 2
 481.333333333 447 485.5 447.833333333 490.5 449.5 c 128
 495.5 451.166666667 500.333333333 453.333333333 505 456 c 1
 513 462 518.333333333 470.333333333 521 481 c 2
 542 581 l 1
 474 581 l 2
 458.666666667 581 445.666666667 575.666666667 435 565 c 1
 421 554.333333333 412.666666667 542 410 528 c 2
 331 153 l 2
 330.333333333 150.333333333 330 146 330 140 c 0
 330 128 333 118.333333333 339 111 c 0
 349.666666667 98.3333333333 362 92 376 92 c 2
 608 92 l 2
 622.666666667 92 635.333333333 97 646 107 c 128
 656.666666667 117 664.333333333 129.666666667 669 145 c 1
 751 537 l 2
 759 577 778.333333333 610 809 636 c 1
 839.666666667 664 873 678 909 678 c 2
 1127 678 l 2
 1155 678 1178.66666667 671.833333333 1198 659.5 c 128
 1217.33333333 647.166666667 1230.66666667 631.333333333 1238 612 c 1
 1240.66666667 602.666666667 1242.33333333 595.666666667 1243 591 c 128
 1243.66666667 586.333333333 1244 579 1244 569 c 0
 1244 563.666666667 1243.33333333 555.666666667 1242 545 c 1
 1160 156 l 2
 1159.33333333 152.666666667 1159 148 1159 142 c 0
 1159 132.666666667 1161.33333333 123.666666667 1166 115 c 1
 1176.66666667 102.333333333 1188 96 1200 96 c 2
 1355 96 l 2
 1369.66666667 96 1382.33333333 101 1393 111 c 128
 1403.66666667 121 1411.33333333 133.666666667 1416 149 c 1
 1497 532 l 2
 1499.66666667 544 1497 553.666666667 1489 561 c 1
 1483.66666667 568.333333333 1473.33333333 572 1458 572 c 2
 1439 572 l 1
 1462 681 l 1
 1522 681 l 2
 1556 681 1580.66666667 669 1596 645 c 1
 1608 629.666666667 1614 611 1614 589 c 0
 1614 576.333333333 1613.33333333 567 1612 561 c 2
 1526 145 l 2
EndSplineSet
EndChar

StartChar: uuvowel
Encoding: 114 3210 108
Width: 1752
Flags: HW
LayerCount: 2
Fore
SplineSet
1811 137 m 2
 1803 98.3333333333 1784.66666667 67 1756 43 c 1
 1725.33333333 15 1693.66666667 1 1661 1 c 2
 1605 1 l 2
 1572.33333333 1 1546.33333333 13 1527 37 c 0
 1514.33333333 52.3333333333 1508 71 1508 93 c 0
 1508 105.666666667 1508.66666667 115 1510 121 c 2
 1529 216 l 1
 1638 216 l 1
 1619 121 l 2
 1617.66666667 115.666666667 1618.66666667 109.333333333 1622 102 c 1
 1627.33333333 96.6666666667 1632.66666667 94 1638 94 c 2
 1671 94 l 2
 1677 94 1682.33333333 97.1666666667 1687 103.5 c 128
 1691.66666667 109.833333333 1695.66666667 118.333333333 1699 129 c 1
 1781 516 l 2
 1782.33333333 525.333333333 1783 532.333333333 1783 537 c 0
 1783 547 1780.33333333 556 1775 564 c 0
 1767 576.666666667 1755.66666667 583 1741 583 c 2
 1606 583 l 2
 1586.66666667 583 1569.33333333 576.333333333 1554 563 c 128
 1538.66666667 549.666666667 1528.66666667 533.666666667 1524 515 c 1
 1447 154 l 2
 1441.66666667 126 1430.33333333 99.6666666667 1413 75 c 0
 1405.66666667 65 1396.5 55 1385.5 45 c 128
 1374.5 35 1363.66666667 27 1353 21 c 0
 1329 6.33333333333 1304.66666667 -1 1280 -1 c 2
 1082 -1 l 2
 1044.66666667 -1 1017.66666667 13.6666666667 1001 43 c 1
 988.333333333 63 982 85 982 109 c 0
 982 121 983.333333333 133.333333333 986 146 c 2
 1067 529 l 2
 1069.66666667 543.666666667 1066.83333333 556.333333333 1058.5 567 c 128
 1050.16666667 577.666666667 1038.66666667 583 1024 583 c 2
 887 583 l 2
 872.333333333 583 858.333333333 576.5 845 563.5 c 128
 831.666666667 550.5 823.666666667 537 821 523 c 2
 744 159 l 2
 734 113.666666667 710.333333333 75.1666666667 673 43.5 c 128
 635.666666667 11.8333333333 595.333333333 -4 552 -4 c 2
 369 -4 l 2
 319.666666667 -4 281 11.3333333333 253 42 c 0
 233 63.3333333333 223 89.3333333333 223 120 c 0
 223 130.666666667 224.333333333 141.333333333 227 152 c 2
 308 535 l 2
 316 575 337.833333333 608.5 373.5 635.5 c 128
 409.166666667 662.5 448.333333333 676 491 676 c 2
 677 676 l 1
 640 499 l 2
 632 461.666666667 612.333333333 430 581 404 c 1
 551.666666667 377.333333333 518.333333333 364 481 364 c 2
 435 364 l 1
 456 459 l 1
 488 459 l 2
 495.333333333 459 504 462 514 468 c 1
 524 476 529.333333333 484 530 492 c 1
 548 580 l 1
 485 580 l 2
 468.333333333 580 453 574.5 439 563.5 c 128
 425 552.5 416.666666667 540 414 526 c 2
 336 157 l 2
 332.666666667 139.666666667 336.333333333 123.666666667 347 109 c 1
 359.666666667 96.3333333333 375.333333333 90 394 90 c 2
 566 90 l 2
 581.333333333 90 595.333333333 96.3333333333 608 109 c 0
 614 114.333333333 619.333333333 121.333333333 624 130 c 128
 628.666666667 138.666666667 631.666666667 147.666666667 633 157 c 2
 711 526 l 2
 716.333333333 554 728.666666667 579.666666667 748 603 c 128
 767.333333333 626.333333333 790.5 644.166666667 817.5 656.5 c 128
 844.5 668.833333333 871 675 897 675 c 2
 1048 675 l 2
 1076.66666667 675 1101.5 668.833333333 1122.5 656.5 c 128
 1143.5 644.166666667 1158.66666667 626 1168 602 c 0
 1174 588 1177 571.666666667 1177 553 c 0
 1177 548.333333333 1176.33333333 539.666666667 1175 527 c 1
 1094 144 l 2
 1092.66666667 136.666666667 1092 131.333333333 1092 128 c 0
 1092 120 1094.66666667 113.333333333 1100 108 c 1
 1108 97.3333333333 1119.33333333 92 1134 92 c 2
 1262 92 l 2
 1279.33333333 92 1295.33333333 98.6666666667 1310 112 c 128
 1324.66666667 125.333333333 1334.33333333 141.333333333 1339 160 c 1
 1414 515 l 2
 1416.66666667 529.666666667 1421 543.5 1427 556.5 c 128
 1433 569.5 1441 583 1451 597 c 1
 1470.33333333 621.666666667 1493.5 641.166666667 1520.5 655.5 c 128
 1547.5 669.833333333 1575 677 1603 677 c 2
 1761 677 l 2
 1790.33333333 677 1816 670 1838 656 c 1
 1859.33333333 640.666666667 1874 621 1882 597 c 1
 1888 583 1891 567.333333333 1891 550 c 0
 1891 540 1889.66666667 528.666666667 1887 516 c 2
 1811 137 l 2
EndSplineSet
EndChar

StartChar: rvocalicvowel.part
Encoding: 116 -1 110
Width: 1000
Flags: HW
LayerCount: 2
Fore
SplineSet
1058 145 m 2
 1050 106.333333333 1034 72.6666666667 1010 44 c 1
 982 15.3333333333 954.666666667 1 928 1 c 2
 724 1 l 2
 696 1 671.166666667 7.66666666667 649.5 21 c 128
 627.833333333 34.3333333333 613 53 605 77 c 1
 587.666666667 52.3333333333 569.666666667 33.5 551 20.5 c 128
 532.333333333 7.5 515.333333333 1 500 1 c 2
 268 1 l 2
 237.333333333 1 213.666666667 10.6666666667 197 30 c 0
 184.333333333 45.3333333333 178 62.6666666667 178 82 c 0
 178 86.6666666667 178.666666667 93.6666666667 180 103 c 2
 219 286 l 1
 384 286 l 2
 417.333333333 286 443.333333333 276.333333333 462 257 c 0
 477.333333333 241.666666667 485 224.666666667 485 206 c 0
 485 202.666666667 484.333333333 196.333333333 483 187 c 2
 474 138 l 1
 365 138 l 1
 372 173 l 2
 374.666666667 185.666666667 367.666666667 192 351 192 c 2
 309 192 l 1
 298 138 l 1
 297.333333333 127.333333333 298.666666667 118 302 110 c 1
 309.333333333 102 318.333333333 98 329 98 c 2
 477 98 l 2
 496.333333333 98 513.333333333 103 528 113 c 128
 542.666666667 123 552.333333333 135.666666667 557 151 c 1
 641 548 l 2
 643.666666667 560.666666667 640.166666667 570.5 630.5 577.5 c 128
 620.833333333 584.5 607.333333333 588 590 588 c 2
 446 588 l 2
 440.666666667 588 435 587.333333333 429 586 c 128
 423 584.666666667 415 581.666666667 405 577 c 128
 395 572.333333333 388.666666667 565 386 555 c 2
 371 480 l 1
 413 480 l 2
 423 480 432.666666667 483.666666667 442 491 c 128
 451.333333333 498.333333333 457.333333333 508 460 520 c 2
 465 548 l 1
 574 548 l 1
 567 515 l 2
 559 479.666666667 541.5 449 514.5 423 c 128
 487.5 397 458 384 426 384 c 2
 240 384 l 1
 280 575 l 1
 287.333333333 604.333333333 304.666666667 629.666666667 332 651 c 128
 359.333333333 672.333333333 390.666666667 683 426 683 c 2
 645 683 l 2
 682.333333333 683 711.666666667 670.666666667 733 646 c 0
 747.666666667 628.666666667 755 608 755 584 c 0
 755 572 754.333333333 563 753 557 c 2
 674 181 l 1
 680 157.666666667 691.166666667 138.166666667 707.5 122.5 c 128
 723.833333333 106.833333333 740.666666667 99 758 99 c 2
 886 99 l 2
 901.333333333 99 915.333333333 105.333333333 928 118 c 0
 934 123.333333333 939.333333333 130.333333333 944 139 c 128
 948.666666667 147.666666667 951.666666667 156.666666667 953 166 c 2
 1025 507 l 1
 1026.33333333 517.666666667 1027 525.333333333 1027 530 c 0
 1027 542.666666667 1023.33333333 554 1016 564 c 0
 1005.33333333 579.333333333 990 587 970 587 c 2
 825 587 l 1
 846 682 l 1
 1004 682 l 2
 1019.33333333 682 1034.66666667 688.333333333 1050 701 c 1
 1062.66666667 713.666666667 1071.33333333 729.666666667 1076 749 c 1
 1087 803 l 1
 1196 803 l 1
 1182 735 l 2
 1176.66666667 711 1166.33333333 689.666666667 1151 671 c 1
 1137 651.666666667 1117.66666667 637 1093 627 c 1
 1113 615 1125.66666667 601.166666667 1131 585.5 c 128
 1136.33333333 569.833333333 1139 560.166666667 1139 556.5 c 128
 1139 551 1139 551 1139 544 c 0
 1139 538.666666667 1138.33333333 530.666666667 1137 520 c 1
 1058 145 l 2
EndSplineSet
EndChar

StartChar: lvocalicvowel.part
Encoding: 118 -1 112
Width: 785
Flags: HW
LayerCount: 2
Fore
SplineSet
728 145 m 1
 725.333333333 130.333333333 729 120 739 114 c 0
 743.666666667 111.333333333 748.666666667 110 754 110 c 0
 769.333333333 110 782 116 792 128 c 1
 919 266 l 1
 990 210 l 1
 839 54 l 1
 819.666666667 29.3333333333 797.666666667 14.3333333333 773 9 c 0
 757.666666667 5.66666666667 737.666666667 7.83333333333 713 15.5 c 128
 688.333333333 23.1666666667 668.333333333 35.6666666667 653 53 c 1
 643 65.6666666667 636.333333333 74.3333333333 633 79 c 0
 623 93.6666666667 618 109.333333333 618 126 c 0
 618 129.333333333 618.666666667 135.166666667 620 143.5 c 128
 621.333333333 151.833333333 646.666666667 186.333333333 696 247 c 0
 711.333333333 266.333333333 735.666666667 296 769 336 c 1
 786.333333333 368.666666667 799.666666667 412.333333333 809 467 c 0
 811.666666667 484.333333333 814.333333333 508.333333333 817 539 c 1
 819.666666667 553.666666667 816 564.666666667 806 572 c 1
 798 580 784.333333333 584 765 584 c 2
 691 584 l 2
 672.333333333 584 655.166666667 578.166666667 639.5 566.5 c 128
 623.833333333 554.833333333 614.666666667 542.666666667 612 530 c 2
 598 462 l 1
 491 462 l 1
 503 525 l 2
 506.333333333 539.666666667 502.5 553.166666667 491.5 565.5 c 128
 480.5 577.833333333 465.666666667 584 447 584 c 2
 356 584 l 2
 339.333333333 584 324 578.5 310 567.5 c 128
 296 556.5 287.666666667 544 285 530 c 2
 271 462 l 2
 270.333333333 459.333333333 270 456.5 270 453.5 c 128
 270 449 270 449 270 448 c 0
 270 438.666666667 272.666666667 431.333333333 278 426 c 1
 283.333333333 415.333333333 292 410 304 410 c 2
 326 410 l 1
 307 315 l 1
 258 315 l 2
 224 315 197 328 177 354 c 0
 163 372.666666667 156 394 156 418 c 0
 156 428.666666667 156.666666667 437 158 443 c 2
 179 545 l 2
 184.333333333 569.666666667 195.833333333 592.5 213.5 613.5 c 128
 231.166666667 634.5 251.833333333 650.833333333 275.5 662.5 c 128
 299.166666667 674.166666667 324 680 350 680 c 2
 480 680 l 2
 506 680 528 673.833333333 546 661.5 c 128
 564 649.166666667 573 633 573 613 c 1
 585.666666667 634.333333333 602 650.333333333 622 661 c 1
 640.666666667 673.666666667 661 680 683 680 c 2
 806 680 l 2
 849.333333333 680 881.666666667 666.666666667 903 640 c 1
 919.666666667 621.333333333 928 599 928 573 c 0
 928 562.333333333 926.666666667 551.666666667 924 541 c 2
 888 369 l 2
 883.333333333 347.666666667 874 327 860 307 c 1
 858.666666667 303.666666667 828.666666667 268.666666667 770 202 c 0
 760.666666667 192 753.666666667 184.666666667 749 180 c 0
 735 164.666666667 728 153 728 145 c 1
EndSplineSet
EndChar

StartChar: evowel
Encoding: 119 3214 113
Width: 949
Flags: HW
LayerCount: 2
Fore
SplineSet
1009 145 m 2
 1001 106.333333333 982.166666667 72.6666666667 952.5 44 c 128
 922.833333333 15.3333333333 891 1 857 1 c 2
 650 1 l 2
 626 1 606.333333333 7.33333333333 591 20 c 0
 583.666666667 26 578.666666667 32.8333333333 576 40.5 c 128
 573.333333333 48.1666666667 572 57 572 67 c 1
 562 47 547.666666667 30.8333333333 529 18.5 c 128
 510.333333333 6.16666666667 491.333333333 0 472 0 c 2
 314 0 l 2
 273.333333333 0 241 13.3333333333 217 40 c 0
 199.666666667 58.6666666667 191 81.3333333333 191 108 c 0
 191 113.333333333 191.666666667 122.333333333 193 135 c 1
 250 408 l 1
 413 408 l 2
 431.666666667 408 448.166666667 400.833333333 462.5 386.5 c 128
 476.833333333 372.166666667 486.666666667 353 492 329 c 1
 498 310.333333333 501 290 501 268 c 0
 501 258 500.666666667 250.666666667 500 246 c 1
 394 218 l 1
 394 237.333333333 393.333333333 250.666666667 392 258 c 128
 390.666666667 265.333333333 387.333333333 275 382 287 c 1
 372.666666667 304.333333333 358.333333333 313 339 313 c 1
 307 162 l 1
 304.333333333 143.333333333 307.666666667 127.333333333 317 114 c 1
 327.666666667 101.333333333 341.666666667 95 359 95 c 2
 462 95 l 2
 479.333333333 95 494.333333333 101.333333333 507 114 c 0
 515 121.333333333 521 128.666666667 525 136 c 128
 529 143.333333333 532.333333333 152 535 162 c 2
 549 230 l 1
 659 230 l 1
 647 170 l 2
 646.333333333 166.666666667 646 161 646 153 c 0
 646 141 650 129.666666667 658 119 c 0
 670.666666667 103.666666667 686.333333333 96 705 96 c 2
 819 96 l 2
 838.333333333 96 856.166666667 103.333333333 872.5 118 c 128
 888.833333333 132.666666667 899.333333333 150.666666667 904 172 c 2
 974 499 l 2
 975.333333333 508.333333333 976 515.333333333 976 520 c 0
 976 535.333333333 971 549 961 561 c 1
 948.333333333 577.666666667 930 586 906 586 c 2
 815 586 l 1
 836 681 l 1
 941 681 l 2
 974.333333333 681 1003 673.666666667 1027 659 c 128
 1051 644.333333333 1068.33333333 624 1079 598 c 0
 1085 582.666666667 1088 565 1088 545 c 0
 1088 536.333333333 1086.66666667 526.666666667 1084 516 c 2
 1009 145 l 2
EndSplineSet
EndChar

